<svg xmlns="http://www.w3.org/2000/svg" width="55" height="43" viewBox="0 0 55 43" fill="none"><path d="M45.9252 0C48.1464 0 50.2766 0.856024 51.8472 2.37976C53.4178 3.90349 54.3002 5.97012 54.3002 8.125V34.125C54.3002 36.2799 53.4178 38.3465 51.8472 39.8702C50.2766 41.394 48.1464 42.25 45.9252 42.25H9.0752C6.85401 42.25 4.72379 41.394 3.15318 39.8702C1.58256 38.3465 0.700195 36.2799 0.700195 34.125V8.125C0.700195 5.97012 1.58256 3.90349 3.15318 2.37976C4.72379 0.856024 6.85401 0 9.0752 0H45.9252ZM50.9502 12.8733L28.3511 25.7757C28.1374 25.8974 27.8986 25.9716 27.6518 25.993C27.4051 26.0144 27.1565 25.9823 26.924 25.8993L26.6493 25.7757L4.0502 12.8797V34.125C4.0502 35.4179 4.57961 36.6579 5.52198 37.5721C6.46435 38.4864 7.74248 39 9.0752 39H45.9252C47.2579 39 48.536 38.4864 49.4784 37.5721C50.4208 36.6579 50.9502 35.4179 50.9502 34.125V12.8733ZM45.9252 3.25H9.0752C7.74248 3.25 6.46435 3.76361 5.52198 4.67785C4.57961 5.59209 4.0502 6.83207 4.0502 8.125V9.1065L27.5002 22.49L50.9502 9.1V8.125C50.9502 6.83207 50.4208 5.59209 49.4784 4.67785C48.536 3.76361 47.2579 3.25 45.9252 3.25Z" fill="#FDFDFD"></path></svg>