<svg xmlns="http://www.w3.org/2000/svg" width="37" height="47" viewBox="0 0 37 47" fill="none"><path d="M33.4062 43.7891H22.0651C24.0822 42.0603 25.9718 40.188 27.7191 38.1868C33.3359 31.7274 36.3047 24.9368 36.3047 18.5312C36.3047 13.8092 34.4288 9.28046 31.0898 5.94143C27.7508 2.60241 23.2221 0.726563 18.5 0.726562C13.7779 0.726563 9.24921 2.60241 5.91019 5.94143C2.57116 9.28046 0.695313 13.8092 0.695312 18.5312C0.695312 24.9306 3.66414 31.7274 9.2809 38.1868C11.0282 40.188 12.9178 42.0603 14.9349 43.7891H3.59375C3.2643 43.7891 2.94835 43.9199 2.71539 44.1529C2.48244 44.3858 2.35156 44.7018 2.35156 45.0312C2.35156 45.3607 2.48244 45.6767 2.71539 45.9096C2.94835 46.1426 3.2643 46.2734 3.59375 46.2734H33.4062C33.7357 46.2734 34.0517 46.1426 34.2846 45.9096C34.5176 45.6767 34.6484 45.3607 34.6484 45.0312C34.6484 44.7018 34.5176 44.3858 34.2846 44.1529C34.0517 43.9199 33.7357 43.7891 33.4062 43.7891ZM3.17969 18.5312C3.17969 14.4681 4.79379 10.5713 7.6669 7.69815C10.54 4.82504 14.4368 3.21094 18.5 3.21094C22.5632 3.21094 26.46 4.82504 29.3331 7.69815C32.2062 10.5713 33.8203 14.4681 33.8203 18.5312C33.8203 30.8745 21.6055 41.0832 18.5 43.4806C15.3945 41.0832 3.17969 30.8745 3.17969 18.5312ZM26.3672 18.5312C26.3672 16.9753 25.9058 15.4542 25.0413 14.1605C24.1769 12.8667 22.9482 11.8584 21.5106 11.2629C20.0731 10.6675 18.4913 10.5117 16.9652 10.8152C15.4391 11.1188 14.0373 11.8681 12.9371 12.9683C11.8368 14.0686 11.0875 15.4704 10.784 16.9964C10.4804 18.5225 10.6362 20.1044 11.2317 21.5419C11.8271 22.9794 12.8355 24.2081 14.1292 25.0726C15.423 25.937 16.944 26.3984 18.5 26.3984C20.5865 26.3984 22.5876 25.5696 24.0629 24.0942C25.5383 22.6188 26.3672 20.6178 26.3672 18.5312ZM13.1172 18.5312C13.1172 17.4666 13.4329 16.4259 14.0244 15.5407C14.6158 14.6555 15.4565 13.9656 16.4401 13.5582C17.4237 13.1508 18.506 13.0442 19.5501 13.2519C20.5943 13.4596 21.5534 13.9722 22.3062 14.725C23.059 15.4778 23.5717 16.437 23.7794 17.4811C23.9871 18.5253 23.8805 19.6076 23.4731 20.5912C23.0657 21.5747 22.3757 22.4154 21.4905 23.0069C20.6053 23.5984 19.5646 23.9141 18.5 23.9141C17.0724 23.9141 15.7033 23.3469 14.6938 22.3375C13.6843 21.328 13.1172 19.9589 13.1172 18.5312Z" fill="#FDFDFD"></path></svg>