<svg xmlns="http://www.w3.org/2000/svg" width="43" height="43" viewBox="0 0 43 43" fill="none"><path d="M26.5457 3.37891C26.6029 3.15896 26.7448 2.9706 26.9405 2.85504C27.1362 2.73949 27.3697 2.70614 27.5899 2.7623C30.6324 3.55474 33.4083 5.14465 35.6313 7.36799C37.8542 9.59132 39.4436 12.3675 40.2356 15.4102C40.2918 15.6301 40.2588 15.8633 40.1436 16.0589C40.0285 16.2545 39.8407 16.3967 39.6211 16.4543C39.5512 16.4742 39.4789 16.4844 39.4063 16.4844C39.2162 16.4838 39.0318 16.4202 38.8817 16.3035C38.7317 16.1869 38.6245 16.0239 38.577 15.8398C37.8596 13.0943 36.4238 10.5894 34.4172 8.5828C32.4106 6.57622 29.9057 5.14041 27.1602 4.42305C26.9406 4.36543 26.7528 4.2233 26.6377 4.02767C26.5225 3.83204 26.4895 3.59882 26.5457 3.37891ZM25.4414 11.298C28.6641 12.1639 30.8362 14.3359 31.702 17.5586C31.7495 17.7426 31.8567 17.9057 32.0067 18.0223C32.1568 18.1389 32.3412 18.2025 32.5313 18.2031C32.6039 18.2031 32.6762 18.193 32.7461 18.173C32.9659 18.1141 33.1533 17.9704 33.2673 17.7735C33.3813 17.5765 33.4125 17.3424 33.3541 17.1225C32.3229 13.2553 29.734 10.6771 25.8711 9.6373C25.6564 9.59579 25.434 9.63768 25.2491 9.75445C25.0642 9.87122 24.9308 10.0541 24.876 10.2658C24.8212 10.4775 24.8492 10.7021 24.9543 10.8939C25.0593 11.0857 25.2335 11.2302 25.4414 11.298ZM41.9715 32.5074C41.6149 35.2122 40.2855 37.6945 38.2318 39.4904C36.1781 41.2863 33.5407 42.2729 30.8125 42.2656C14.2266 42.2656 0.734399 28.7734 0.734399 12.1875C0.728746 9.46045 1.71599 6.82459 3.51175 4.77225C5.3075 2.7199 7.78894 1.39143 10.4926 1.03496C11.0465 0.967622 11.6073 1.08179 12.0907 1.36033C12.5742 1.63887 12.9543 2.06674 13.1739 2.57969L17.7071 12.7074C17.8765 13.1001 17.9456 13.5288 17.9081 13.9549C17.8706 14.3809 17.7277 14.791 17.4922 15.148C17.4729 15.176 17.4535 15.2039 17.4321 15.2297L12.8774 20.6459C12.8059 20.7646 12.765 20.8991 12.7582 21.0374C12.7515 21.1758 12.7791 21.3136 12.8387 21.4387C14.5231 24.8869 18.1346 28.4705 21.6237 30.1549C21.7496 30.2133 21.8881 30.2398 22.0268 30.2319C22.1654 30.224 22.3 30.1821 22.4186 30.1098L27.7617 25.5723L27.8434 25.51C28.201 25.2738 28.6118 25.1304 29.0386 25.0929C29.4655 25.0554 29.895 25.1249 30.2883 25.2951L40.4332 29.8412C40.9411 30.0622 41.3643 30.4407 41.6401 30.9209C41.916 31.4011 42.03 31.9574 41.9651 32.5074H41.9715ZM39.7479 31.4074L29.5987 26.8613C29.4754 26.8096 29.3415 26.7878 29.2082 26.7979C29.0748 26.808 28.9458 26.8496 28.8317 26.9193L23.5078 31.4568L23.4283 31.517C23.0582 31.7642 22.6303 31.9113 22.1865 31.944C21.7426 31.9768 21.2978 31.8941 20.8953 31.7039C17.0281 29.8369 13.1803 26.0148 11.3133 22.1928C11.1213 21.7934 11.0354 21.3513 11.064 20.9092C11.0926 20.467 11.2347 20.0396 11.4766 19.6684C11.4959 19.6383 11.5174 19.6125 11.5389 19.5846L16.0914 14.1705C16.1597 14.0545 16.1997 13.924 16.2083 13.7897C16.2169 13.6553 16.1938 13.5209 16.1408 13.3971L11.599 3.26934C11.535 3.11233 11.426 2.97777 11.2857 2.88257C11.1454 2.78738 10.9801 2.73582 10.8106 2.73437C10.7762 2.73224 10.7418 2.73224 10.7074 2.73437C8.41776 3.03776 6.31695 4.1647 4.7978 5.90449C3.27864 7.64428 2.44515 9.87782 2.45315 12.1875C2.45315 27.8238 15.1762 40.5469 30.8125 40.5469C33.1222 40.5549 35.3557 39.7214 37.0955 38.2022C38.8353 36.6831 39.9623 34.5823 40.2656 32.2926C40.2854 32.1082 40.2451 31.9224 40.1506 31.7629C40.0561 31.6034 39.9126 31.4787 39.7414 31.4074H39.7479Z" fill="#FDFDFD" stroke="#FDFDFD"></path></svg>