<svg xmlns="http://www.w3.org/2000/svg" width="1910" height="1483" viewBox="0 0 1910 1483" fill="none"><path d="M1216.32 124.767C976.758 284.966 735.195 361.63 428.616 209.889C186.794 90.2009 34.3343 157.36 -13.999 207.749V1253.57C66.5219 1355.61 276.977 1527.54 474.628 1398.96C672.279 1270.38 991.429 1349.62 1126.3 1405.31C1572.41 1577.46 1834.65 1423.81 1910 1325.47V105.205C1725.95 -40.7199 1455.88 -35.4328 1216.32 124.767Z" fill="url(#paint0_linear_14_7496)"></path><g opacity="0.4"><line y1="-0.5" x2="1181.39" y2="-0.5" transform="matrix(-4.43629e-08 1 1 4.30695e-08 528 254.607)" stroke="#FDFDFD" stroke-dasharray="7 7"></line><line y1="-0.5" x2="1170.55" y2="-0.5" transform="matrix(-4.43629e-08 1 1 4.30695e-08 938 265.446)" stroke="#FDFDFD" stroke-dasharray="7 7"></line><line y1="-0.5" x2="1381.41" y2="-0.5" transform="matrix(-4.43629e-08 1 1 4.30695e-08 1348 54.5889)" stroke="#FDFDFD" stroke-dasharray="7 7"></line><line y1="-0.5" x2="1176.47" y2="-0.5" transform="matrix(-4.43629e-08 1 1 4.30695e-08 549 259.534)" stroke="#FDFDFD" stroke-dasharray="7 7"></line><line y1="-0.5" x2="1177.45" y2="-0.5" transform="matrix(-4.43629e-08 1 1 4.30695e-08 959 258.549)" stroke="#FDFDFD" stroke-dasharray="7 7"></line><line y1="-0.5" x2="1388.31" y2="-0.5" transform="matrix(-4.43629e-08 1 1 4.30695e-08 1369 47.6919)" stroke="#FDFDFD" stroke-dasharray="7 7"></line><line y1="-0.5" x2="1394" y2="-0.5" transform="matrix(-4.37114e-08 1 1 4.37114e-08 1758 27)" stroke="#FDFDFD" stroke-dasharray="7 7"></line><line y1="-0.5" x2="1276" y2="-0.5" transform="matrix(-4.48081e-08 1 1 4.26415e-08 139 146)" stroke="#FDFDFD" stroke-dasharray="7 7"></line></g><defs><linearGradient id="paint0_linear_14_7496" x1="-13.999" y1="741.5" x2="1910" y2="741.5" gradientUnits="userSpaceOnUse"><stop stop-color="#2F057B"></stop><stop offset="1" stop-color="#6441C1"></stop></linearGradient></defs></svg>