<svg xmlns="http://www.w3.org/2000/svg" width="1920" height="1789" viewBox="0 0 1920 1789" fill="none"><path opacity="0.1" d="M220.785 1634.55C-148.336 1436.05 -127.383 894.611 -70.7661 648.705C-30.9894 423.385 102.025 255.19 163.561 199.257C398.871 20.7239 646.761 162.318 757.255 197.101C867.749 231.884 1247.72 65.1416 1341.46 26.0989C1416.44 -5.13522 1529.95 -1.55991 1577.34 4.13201C2047.67 126.271 2144.4 703.405 2133.98 976.704C2058.54 1513.53 1894.23 1679.49 1696.64 1766.41C1538.57 1835.95 1327.74 1721.43 1242.08 1655.47C1174.2 1595.32 1009.51 1471.6 893.768 1457.95C778.022 1444.3 639.309 1487.02 584.42 1510.09C523.233 1545.5 388.948 1619.87 341.3 1634.12C293.653 1648.36 241.104 1640.34 220.785 1634.55Z" fill="url(#paint0_linear_14_6242)"></path><defs><linearGradient id="paint0_linear_14_6242" x1="960" y1="199" x2="960" y2="1687" gradientUnits="userSpaceOnUse"><stop stop-color="#C292FF"></stop><stop offset="1" stop-color="#D47AFF" stop-opacity="0"></stop></linearGradient></defs></svg>