<svg xmlns="http://www.w3.org/2000/svg" width="90" height="90" viewBox="0 0 90 90" fill="none"><path d="M76.9784 57.4912C76.9765 55.9404 76.3063 54.4536 75.115 53.357C73.9236 52.2604 72.3083 51.6436 70.6234 51.6419H51.3919C54.0479 45.7172 54.0575 39.0674 51.4189 33.1363C51.3958 33.0842 51.3694 33.0335 51.3396 32.9844C50.7972 32.0862 49.9932 31.3451 49.0182 30.8445C48.0431 30.3439 46.9356 30.1037 45.8203 30.1508C44.705 30.198 43.6261 30.5307 42.705 31.1115C41.784 31.6923 41.0573 32.4982 40.6067 33.4384C40.5356 33.5869 40.4929 33.7456 40.4804 33.9074L40.0265 39.8395C39.3469 43.2486 37.3484 46.3157 34.4008 48.4728C33.2202 48.8542 31.0587 50.2035 25.4199 55.142V54.9946C25.4191 54.217 25.0831 53.4715 24.4857 52.9218C23.8884 52.372 23.0784 52.0628 22.2336 52.062H6.19439C5.34965 52.0628 4.53976 52.372 3.94244 52.9218C3.34512 53.4716 3.00917 54.217 3.00831 54.9946V84.4554C3.00892 85.2331 3.34476 85.9787 3.9421 86.5287C4.53945 87.0787 5.34949 87.388 6.19439 87.3888H22.2327C23.0775 87.3881 23.8874 87.0789 24.4848 86.5291C25.0821 85.9793 25.4181 85.2338 25.419 84.4563V84.3271C29.8294 85.2225 32.1313 86.2867 34.8162 88.5824C35.8718 89.5067 37.2778 90.0151 38.7347 89.9992H63.5952C64.8016 89.9996 65.9831 89.6838 67.0017 89.0887C68.0202 88.4936 68.8335 87.6439 69.3465 86.6389C69.8595 85.6339 70.051 84.5153 69.8985 83.4138C69.7461 82.3123 69.256 81.2736 68.4856 80.4191C70.4697 79.3207 71.8812 77.354 71.8812 75.2645C71.8827 73.9646 71.4113 72.7016 70.5422 71.6768C72.5631 70.5752 74.013 68.5416 74.013 66.3783C74.0146 65.1587 73.5997 63.9695 72.8269 62.9789C74.0444 62.5631 75.0946 61.8146 75.8367 60.8337C76.5788 59.8528 76.9771 58.6864 76.9784 57.4912ZM22.3633 84.4559C22.362 84.4874 22.3479 84.5173 22.3236 84.5396C22.2994 84.5618 22.2669 84.5748 22.2327 84.576H6.19439C6.16019 84.5748 6.12772 84.5618 6.10352 84.5396C6.07932 84.5173 6.06519 84.4874 6.06395 84.4559V54.9951C6.06523 54.9636 6.07938 54.9338 6.10357 54.9115C6.12776 54.8892 6.1602 54.8762 6.19439 54.875H22.2327C22.2669 54.8762 22.2994 54.8892 22.3236 54.9115C22.3478 54.9338 22.362 54.9636 22.3633 54.9951V84.4559ZM70.6234 60.5278H65.3133C64.9081 60.5278 64.5194 60.6759 64.2329 60.9397C63.9464 61.2034 63.7854 61.5611 63.7854 61.934C63.7854 62.307 63.9464 62.6647 64.2329 62.9284C64.5194 63.1921 64.9081 63.3403 65.3133 63.3403H67.6581C68.5327 63.3414 69.3712 63.6617 69.9897 64.231C70.6082 64.8002 70.9562 65.572 70.9574 66.3771C70.9574 67.9591 69.2589 69.5685 67.5156 69.7074C66.8737 69.5125 66.2021 69.4135 65.5262 69.414C65.121 69.414 64.7324 69.5622 64.4459 69.8259C64.1593 70.0896 63.9984 70.4473 63.9984 70.8203C63.9984 71.1932 64.1593 71.5509 64.4459 71.8146C64.7324 72.0784 65.121 72.2265 65.5262 72.2265C65.9125 72.2261 66.2959 72.2885 66.6587 72.4107C66.699 72.4271 66.7399 72.4418 66.7819 72.4548C67.386 72.6845 67.9026 73.0739 68.2663 73.5738C68.6301 74.0737 68.8246 74.6617 68.8253 75.2633C68.8253 76.8137 67.0592 78.3922 65.2609 78.504C64.7179 78.3683 64.1577 78.2997 63.595 78.3001C63.1898 78.3001 62.8012 78.4482 62.5147 78.712C62.2282 78.9757 62.0672 79.3334 62.0672 79.7063C62.0672 80.0793 62.2282 80.437 62.5147 80.7007C62.8012 80.9644 63.1898 81.1126 63.595 81.1126C63.915 81.1124 64.2332 81.1551 64.5398 81.2395C64.5759 81.2514 64.6127 81.2623 64.6502 81.2718C65.3918 81.5019 66.0204 81.9671 66.4238 82.5844C66.8272 83.2017 66.979 83.9309 66.8522 84.6417C66.7254 85.3525 66.3283 85.9987 65.7317 86.4649C65.1351 86.9311 64.3778 87.1869 63.5952 87.1867H38.7347C38.3956 87.1936 38.0584 87.1385 37.7427 87.0243C37.4269 86.9102 37.1391 86.7394 36.8958 86.5219C33.6511 83.7472 30.8148 82.484 25.419 81.4506V59.0468L25.69 58.8041C33.1889 52.101 35.0259 51.2308 35.4159 51.1251C35.6424 51.0822 35.8553 50.9927 36.0389 50.8632C39.7316 48.2597 42.2323 44.4786 43.0489 40.2636C43.0584 40.2143 43.0651 40.1645 43.0691 40.1146L43.5084 34.3762C43.7565 33.9554 44.1214 33.6026 44.5659 33.3538C45.0103 33.105 45.5185 32.969 46.0386 32.9598C46.5587 32.9505 47.0722 33.0682 47.5268 33.301C47.9814 33.5337 48.3609 33.8732 48.6266 34.2848C49.9024 37.188 50.4751 40.3124 50.3046 43.4402C50.1341 46.5679 49.2246 49.6239 47.6394 52.3949C47.5171 52.6093 47.457 52.849 47.4649 53.091C47.4728 53.333 47.5484 53.569 47.6844 53.7762C47.8205 53.9834 48.0123 54.1548 48.2414 54.2737C48.4705 54.3926 48.7291 54.4551 48.9921 54.4551H70.6234C71.4941 54.4612 72.3269 54.7838 72.9403 55.3527C73.5536 55.9216 73.8978 56.6905 73.8978 57.492C73.8978 58.2934 73.5536 59.0624 72.9403 59.6312C72.3269 60.2001 71.4941 60.5227 70.6234 60.5288V60.5278ZM17.1842 59.4942V59.6638C17.1842 60.0368 17.0232 60.3945 16.7367 60.6582C16.4502 60.9219 16.0616 61.0701 15.6564 61.0701C15.2512 61.0701 14.8626 60.9219 14.576 60.6582C14.2895 60.3945 14.1286 60.0368 14.1286 59.6638V59.4942C14.1286 59.1212 14.2895 58.7635 14.576 58.4998C14.8626 58.2361 15.2512 58.088 15.6564 58.088C16.0616 58.088 16.4502 58.2361 16.7367 58.4998C17.0232 58.7635 17.1842 59.1212 17.1842 59.4942ZM63.0284 12.0549C62.9363 11.7939 62.7632 11.5634 62.5304 11.3918C62.2977 11.2202 62.0155 11.1151 61.7187 11.0893L50.7682 10.1401L46.4024 0.84766C46.2841 0.595759 46.0883 0.381232 45.8391 0.230524C45.5899 0.0798152 45.2983 -0.000488281 45.0001 -0.000488281C44.7019 -0.000488281 44.4103 0.0798152 44.1611 0.230524C43.9119 0.381232 43.7161 0.595759 43.5978 0.84766L39.2326 10.1399L28.2823 11.0892C27.9855 11.1149 27.7033 11.2201 27.4706 11.3916C27.2379 11.5632 27.0648 11.7937 26.9726 12.0547C26.8805 12.3157 26.8734 12.5958 26.9521 12.8605C27.0308 13.1252 27.1919 13.3629 27.4156 13.5443L35.6684 20.2366L33.2655 30.1155C33.2004 30.3833 33.2218 30.6628 33.3272 30.9195C33.4325 31.1762 33.6172 31.399 33.8584 31.5603C34.0996 31.7216 34.3868 31.8144 34.6846 31.8273C34.9825 31.8402 35.2779 31.7726 35.5345 31.6328L45.0001 26.477L54.4653 31.6332C54.7219 31.7729 55.0173 31.8405 55.3152 31.8276C55.613 31.8147 55.9002 31.7219 56.1414 31.5606C56.3826 31.3993 56.5673 31.1766 56.6727 30.9198C56.778 30.6631 56.7995 30.3836 56.7343 30.1158L54.3316 20.237L62.5844 13.5446C62.8083 13.3633 62.9696 13.1256 63.0485 12.8609C63.1274 12.5962 63.1204 12.316 63.0284 12.0549ZM51.6341 18.6767C51.4287 18.8433 51.2757 19.0576 51.1911 19.2973C51.1065 19.537 51.0934 19.7931 51.1532 20.039L52.9816 27.5563L45.7793 23.6327C45.5437 23.5043 45.2749 23.4366 45.0011 23.4366C44.7272 23.4366 44.4585 23.5043 44.2228 23.6327L37.0205 27.5563L38.8479 20.0385C38.9077 19.7926 38.8947 19.5364 38.8101 19.2968C38.7255 19.0571 38.5725 18.8428 38.3671 18.6762L32.0875 13.5838L40.4199 12.8614C40.6924 12.8377 40.9531 12.7471 41.1745 12.599C41.396 12.4509 41.5702 12.2507 41.6788 12.0194L45.0001 4.94932L48.3214 12.0199C48.43 12.2512 48.6042 12.4514 48.8257 12.5995C49.0471 12.7476 49.3078 12.8383 49.5803 12.8619L57.9129 13.5844L51.6341 18.6767ZM89.9263 20.2951C89.8341 20.0341 89.661 19.8036 89.4283 19.632C89.1956 19.4605 88.9134 19.3553 88.6165 19.3296L80.8997 18.6606L77.8229 12.1122C77.7045 11.8603 77.5087 11.6458 77.2595 11.4951C77.0103 11.3444 76.7187 11.2641 76.4205 11.2641C76.1223 11.2641 75.8307 11.3444 75.5815 11.4951C75.3323 11.6458 75.1365 11.8603 75.0182 12.1122L71.9423 18.6606L64.2253 19.3296C63.9284 19.3553 63.6462 19.4604 63.4134 19.632C63.1806 19.8036 63.0075 20.0341 62.9154 20.2951C62.8233 20.5562 62.8161 20.8363 62.8949 21.101C62.9736 21.3657 63.1348 21.6035 63.3586 21.7849L69.1744 26.5009L67.4812 33.4629C67.4161 33.7307 67.4376 34.0102 67.543 34.267C67.6484 34.5238 67.8331 34.7465 68.0744 34.9078C68.3157 35.0691 68.603 35.1618 68.9009 35.1746C69.1988 35.1874 69.4942 35.1197 69.7508 34.9798L76.4211 31.3463L83.0908 34.9798C83.3474 35.1197 83.6428 35.1873 83.9407 35.1744C84.2385 35.1616 84.5258 35.0688 84.7671 34.9074C85.0083 34.7461 85.193 34.5234 85.2983 34.2666C85.4037 34.0099 85.4251 33.7303 85.36 33.4625L83.6666 26.5005L89.4822 21.7845C89.7059 21.6031 89.867 21.3655 89.9458 21.1008C90.0245 20.8362 90.0174 20.5561 89.9253 20.2951H89.9263ZM80.9694 24.9408C80.764 25.1074 80.611 25.3218 80.5264 25.5614C80.4418 25.8011 80.4287 26.0572 80.4885 26.3031L81.6075 30.9033L77.1989 28.5023C76.9633 28.374 76.6945 28.3062 76.4207 28.3062C76.1469 28.3062 75.8781 28.374 75.6425 28.5023L71.2353 30.9033L72.354 26.3031C72.4138 26.0572 72.4007 25.8011 72.3162 25.5614C72.2316 25.3218 72.0786 25.1074 71.8731 24.9408L68.0301 21.8248L73.1292 21.3825C73.4018 21.3589 73.6625 21.2683 73.884 21.1202C74.1055 20.972 74.2797 20.7718 74.3883 20.5405L76.4207 16.2137L78.4531 20.5405C78.5617 20.7718 78.7359 20.972 78.9574 21.1202C79.1789 21.2683 79.4396 21.3589 79.7122 21.3825L84.8113 21.8248L80.9694 24.9408ZM25.7769 19.3296L18.06 18.6606L14.982 12.1122C14.8637 11.8603 14.6679 11.6458 14.4187 11.4951C14.1695 11.3444 13.8779 11.2641 13.5797 11.2641C13.2815 11.2641 12.9899 11.3444 12.7407 11.4951C12.4915 11.6458 12.2957 11.8603 12.1773 12.1122L9.10145 18.6606L1.38462 19.3296C1.08774 19.3553 0.805522 19.4604 0.57277 19.632C0.340017 19.8036 0.166901 20.0341 0.0747622 20.2951C-0.0173762 20.5562 -0.0245081 20.8363 0.0542452 21.101C0.132999 21.3657 0.294195 21.6035 0.51796 21.7849L6.33361 26.5009L4.64021 33.4629C4.57516 33.7307 4.59666 34.0101 4.70206 34.2668C4.80746 34.5235 4.99216 34.7462 5.23338 34.9075C5.47461 35.0687 5.76183 35.1615 6.05964 35.1744C6.35745 35.1872 6.65284 35.1196 6.90941 34.9798L13.5797 31.3463L20.2494 34.9798C20.506 35.1196 20.8014 35.1872 21.0992 35.1743C21.3971 35.1614 21.6843 35.0686 21.9255 34.9073C22.1667 34.746 22.3514 34.5233 22.4567 34.2665C22.5621 34.0098 22.5835 33.7303 22.5184 33.4625L20.825 26.5005L26.6408 21.7845C26.8646 21.6031 27.0258 21.3654 27.1046 21.1007C27.1833 20.8359 27.1762 20.5558 27.084 20.2948C26.9919 20.0337 26.8188 19.8032 26.586 19.6317C26.3533 19.4601 26.0711 19.355 25.7742 19.3292L25.7769 19.3296ZM18.1293 24.9408C17.9239 25.1074 17.7709 25.3218 17.6863 25.5614C17.6017 25.8011 17.5887 26.0572 17.6485 26.3031L18.7672 30.9031L14.3579 28.5023C14.1223 28.374 13.8535 28.3062 13.5797 28.3062C13.3059 28.3062 13.0371 28.374 12.8015 28.5023L8.39407 30.9033L9.51301 26.3031C9.57281 26.0572 9.55973 25.8011 9.47514 25.5614C9.39054 25.3218 9.23754 25.1074 9.03213 24.9408L5.18927 21.8248L10.2884 21.3825C10.561 21.3589 10.8216 21.2683 11.0431 21.1202C11.2647 20.972 11.4388 20.7718 11.5475 20.5405L13.5797 16.2139L15.6121 20.5405C15.7207 20.7718 15.8949 20.972 16.1163 21.1201C16.3378 21.2682 16.5984 21.3589 16.871 21.3825L21.9701 21.8248L18.1293 24.9408Z" fill="url(#paint0_linear_14_6407)"></path><defs><linearGradient id="paint0_linear_14_6407" x1="0" y1="44.9995" x2="90" y2="44.9995" gradientUnits="userSpaceOnUse"><stop stop-color="#9255CE"></stop><stop offset="1" stop-color="#BE60FF"></stop></linearGradient></defs></svg>