<svg xmlns="http://www.w3.org/2000/svg" width="90" height="90" viewBox="0 0 90 90" fill="none"><mask id="mask0_14_6375" style="mask-type:luminance" maskUnits="userSpaceOnUse" x="0" y="-1" width="90" height="91"><path d="M88.5 88.4995V1.49951H1.5V88.4995H88.5Z" fill="white" stroke="white" stroke-width="3"></path></mask><g mask="url(#mask0_14_6375)"><path d="M43.1543 58.2416V61.4351C43.1543 62.8912 41.9738 64.0718 40.5176 64.0718H32.7832C31.5211 64.0718 30.498 63.0487 30.498 61.7866V34.5405C30.498 33.0844 31.6786 31.9038 33.1348 31.9038H40.5176C41.9738 31.9038 43.1543 33.0844 43.1543 34.5405V52.0893" stroke="url(#paint0_linear_14_6375)" stroke-width="3" stroke-miterlimit="10" stroke-linecap="round" stroke-linejoin="round"></path><path d="M43.1543 34.7163H45.9253C46.9283 34.7163 47.9104 34.4303 48.7564 33.8919L55.9589 29.3086C58.494 27.6952 60.0293 24.8986 60.0293 21.8936V17.7534C60.0293 15.0836 62.1935 12.9194 64.8633 12.9194C67.533 12.9194 69.6973 15.0836 69.6973 17.7534L69.7078 33.8379C69.708 34.3231 70.1014 34.7163 70.5867 34.7163H75.8496H81.4678C83.6123 34.7163 85.4388 36.3839 85.5149 38.5271C85.5951 40.7772 83.7947 42.6265 81.5625 42.6265H84.7266C86.9588 42.6265 88.7592 44.4757 88.679 46.7259C88.6029 48.869 86.7763 50.5366 84.6318 50.5366H81.5625C83.7947 50.5366 85.5951 52.3858 85.5149 54.636C85.4388 56.7791 83.6123 58.4468 81.4678 58.4468H76.8164C78.4956 58.4468 79.8608 59.7924 79.892 61.4642C79.9244 63.1881 78.46 64.5991 76.7357 64.5991H50.0718C48.5525 64.5991 47.0591 64.2054 45.7374 63.456L43.1543 61.9918" stroke="url(#paint1_linear_14_6375)" stroke-width="3" stroke-miterlimit="10" stroke-linecap="round" stroke-linejoin="round"></path><path d="M81.5625 42.6265H74.3555" stroke="url(#paint2_linear_14_6375)" stroke-width="3" stroke-miterlimit="10" stroke-linecap="round" stroke-linejoin="round"></path><path d="M81.5625 50.5366H74.3555" stroke="url(#paint3_linear_14_6375)" stroke-width="3" stroke-miterlimit="10" stroke-linecap="round" stroke-linejoin="round"></path><path d="M76.6406 58.4465H74.3555" stroke="url(#paint4_linear_14_6375)" stroke-width="3" stroke-miterlimit="10" stroke-linecap="round" stroke-linejoin="round"></path><path d="M57.4894 64.6281C53.0111 75.0525 42.651 82.353 30.5859 82.353C14.422 82.353 1.31836 69.2494 1.31836 53.0854V26.7183C1.31836 26.2328 1.71193 25.8394 2.19727 25.8394H2.54883C11.2862 25.8394 18.3691 18.7564 18.3691 10.019V8.5249C18.3691 8.03939 18.7627 7.646 19.248 7.646H41.9238C42.4093 7.646 42.8027 8.03939 42.8027 8.5249V10.4291C42.8027 19.1665 49.8858 26.2495 58.6231 26.2495" stroke="url(#paint5_linear_14_6375)" stroke-width="3" stroke-miterlimit="10" stroke-linecap="round" stroke-linejoin="round"></path><path d="M30.498 60.5559V77.0793C17.2949 77.0793 6.5918 66.3762 6.5918 53.1733V30.0579C15.7983 30.0579 23.2617 22.5945 23.2617 13.388V12.8313H30.498V25.7512" stroke="url(#paint6_linear_14_6375)" stroke-width="3" stroke-miterlimit="10" stroke-linecap="round" stroke-linejoin="round"></path><path d="M30.4102 34.5403H22.9395C21.7746 34.5403 20.8301 35.4848 20.8301 36.6497V59.3254C20.8301 60.4903 21.7746 61.4348 22.9395 61.4348H30.4102" stroke="url(#paint7_linear_14_6375)" stroke-width="3" stroke-miterlimit="10" stroke-linecap="round" stroke-linejoin="round"></path></g><defs><linearGradient id="paint0_linear_14_6375" x1="30.498" y1="47.9878" x2="43.1543" y2="47.9878" gradientUnits="userSpaceOnUse"><stop stop-color="#2F057B"></stop><stop offset="1" stop-color="#6441C1"></stop></linearGradient><linearGradient id="paint1_linear_14_6375" x1="43.1543" y1="38.7593" x2="88.6816" y2="38.7593" gradientUnits="userSpaceOnUse"><stop stop-color="#2F057B"></stop><stop offset="1" stop-color="#6441C1"></stop></linearGradient><linearGradient id="paint2_linear_14_6375" x1="74.3555" y1="42.1265" x2="81.5625" y2="42.1265" gradientUnits="userSpaceOnUse"><stop stop-color="#2F057B"></stop><stop offset="1" stop-color="#6441C1"></stop></linearGradient><linearGradient id="paint3_linear_14_6375" x1="74.3555" y1="50.0366" x2="81.5625" y2="50.0366" gradientUnits="userSpaceOnUse"><stop stop-color="#2F057B"></stop><stop offset="1" stop-color="#6441C1"></stop></linearGradient><linearGradient id="paint4_linear_14_6375" x1="74.3555" y1="57.9465" x2="76.6406" y2="57.9465" gradientUnits="userSpaceOnUse"><stop stop-color="#2F057B"></stop><stop offset="1" stop-color="#6441C1"></stop></linearGradient><linearGradient id="paint5_linear_14_6375" x1="1.31836" y1="44.9995" x2="58.6231" y2="44.9995" gradientUnits="userSpaceOnUse"><stop stop-color="#2F057B"></stop><stop offset="1" stop-color="#6441C1"></stop></linearGradient><linearGradient id="paint6_linear_14_6375" x1="6.5918" y1="44.9553" x2="30.498" y2="44.9553" gradientUnits="userSpaceOnUse"><stop stop-color="#2F057B"></stop><stop offset="1" stop-color="#6441C1"></stop></linearGradient><linearGradient id="paint7_linear_14_6375" x1="20.8301" y1="47.9875" x2="30.4102" y2="47.9875" gradientUnits="userSpaceOnUse"><stop stop-color="#2F057B"></stop><stop offset="1" stop-color="#6441C1"></stop></linearGradient></defs></svg>