<svg xmlns="http://www.w3.org/2000/svg" width="90" height="90" viewBox="0 0 90 90" fill="none"><path d="M85.2873 6.02727C84.2174 5.91872 83.1398 6.13957 82.1989 6.66026C81.7395 5.16989 80.6344 3.96501 79.1893 3.37879C77.7441 2.79257 76.112 2.88712 74.7442 3.63629C73.9826 1.27811 71.6758 -0.226414 69.2108 0.0273245C67.6068 0.209668 66.1783 1.12622 65.344 2.5083C64.0969 1.58513 62.5001 1.27348 60.9975 1.65999C59.4948 2.0465 58.2466 3.08997 57.5997 4.50028H42.8282C42.5546 4.49825 42.2865 4.42205 42.0527 4.27979L35.9885 0.651319C35.2913 0.229968 34.4931 0.00502845 33.6785 0.000324719H11.4658C8.72095 -0.0364472 6.38362 1.98822 6.02846 4.71028C5.92008 5.78069 6.14091 6.85868 6.66144 7.80025C5.17067 8.25906 3.96542 9.36422 3.37937 10.8097C2.79332 12.2553 2.88868 13.8877 3.63904 15.2552C1.27727 16.014 -0.229353 18.3244 0.0286595 20.7916C0.210333 22.3959 1.12703 23.8248 2.50958 24.6586C1.74841 25.7084 1.39932 27.0013 1.52861 28.2916C1.74291 30.085 2.86659 31.6413 4.50151 32.409V47.1749C4.49889 47.4473 4.42215 47.7138 4.27952 47.9459L0.61964 54.0418C0.22133 54.7367 0.00851413 55.5224 0.00166038 56.3233V78.5366C-0.0328911 81.2809 1.99167 83.6169 4.713 83.9726C5.78276 84.0781 6.85942 83.8575 7.8014 83.3396C8.26057 84.8305 9.36599 86.0357 10.8117 86.6217C12.2574 87.2078 13.89 87.1124 15.2576 86.362C15.9526 88.5324 17.9721 90.0035 20.251 89.9995C22.0592 89.9999 23.7339 89.0474 24.6578 87.493C25.9061 88.4162 27.5038 88.7276 29.0074 88.3409C30.5109 87.9541 31.7601 86.9104 32.4081 85.4995H47.1721C47.4458 85.5016 47.7138 85.5778 47.9476 85.72L54.0118 89.3515C54.7095 89.7713 55.5076 89.9947 56.3218 89.998H78.5345C81.2793 90.0348 83.6167 88.0101 83.9718 85.288C84.0799 84.2181 83.8591 83.1407 83.3389 82.1996C84.8296 81.7408 86.0349 80.6356 86.6209 79.1901C87.207 77.7446 87.1116 76.1121 86.3613 74.7446C88.7218 73.9861 90.2282 71.6774 89.9716 69.2112C89.79 67.6069 88.8733 66.178 87.4907 65.3442C88.2519 64.2944 88.601 63.0015 88.4717 61.7113C88.2557 59.9199 87.1322 58.3662 85.4988 57.5998V42.8249C85.502 42.5519 85.5781 42.2847 85.7193 42.0509L89.3522 35.988C89.7719 35.2898 89.9953 34.4912 89.9986 33.6765V11.4632C90.0332 8.7189 88.0086 6.38295 85.2873 6.02727ZM3.01356 20.4946C2.94407 19.8589 3.14839 19.2236 3.57545 18.7476C4.00252 18.2716 4.61197 17.9998 5.25148 18.0002H15.0012C15.8296 18.0002 16.5011 17.3286 16.5011 16.5002C16.5011 15.6718 15.8296 15.0002 15.0012 15.0002H8.25138C7.61196 15.0017 7.0021 14.7311 6.57419 14.2559C6.14628 13.7808 5.94075 13.146 6.00896 12.5102C6.2009 11.3148 7.25613 10.4515 8.46588 10.5002H18.0011C18.8295 10.5002 19.501 9.82866 19.501 9.00024C19.501 8.17182 18.8295 7.50026 18.0011 7.50026H11.2513C10.6119 7.50177 10.002 7.23114 9.57409 6.756C9.14618 6.28085 8.94065 5.64607 9.00886 5.01028C9.20018 3.81448 10.2558 2.95088 11.4658 3.0003H33.6785C33.9519 3.00237 34.2196 3.07914 34.4525 3.2223L40.5183 6.85526C41.2164 7.27382 42.0143 7.49662 42.8282 7.50026H56.9997V20.8336L54.4018 18.7067C52.4523 17.2186 49.7102 17.3694 47.9356 19.0622C46.6179 20.3401 46.1598 22.2657 46.7611 24.0001H41.7318C40.5513 24.0051 39.42 24.4738 38.5819 25.3051L24.4658 39.306L24.4358 39.336L23.8119 39.954C23.0802 40.6693 21.9087 40.6613 21.1869 39.936C20.5282 39.2745 20.4639 38.2264 21.037 37.4895L25.1618 32.4495C25.5286 32.0009 25.6042 31.3812 25.356 30.8576C25.1079 30.334 24.5803 30.0001 24.0009 30H6.96593C5.75813 30.0472 4.70532 29.185 4.51351 27.9916C4.44493 27.3563 4.64967 26.7219 5.07663 26.2465C5.50359 25.7712 6.11251 25.4998 6.75143 25.5001H15.0012C15.8296 25.5001 16.5011 24.8285 16.5011 24.0001C16.5011 23.1717 15.8296 22.5001 15.0012 22.5001H5.46598C4.25938 22.5468 3.20734 21.6865 3.01356 20.4946ZM62.9995 48.9854L49.305 62.5662C49.0296 62.8415 48.6565 62.9968 48.267 62.9982H41.0133L27.4342 49.3094C27.1582 49.0337 27.0023 48.66 27.0008 48.2699V41.0099L40.6908 27.4336C40.9667 27.157 41.3411 27.0011 41.7318 27.0001H48.9915L62.5706 40.689C62.8445 40.9663 62.9986 41.3401 62.9995 41.7299V48.9854ZM27.9787 85.4875C27.3472 85.5557 26.7167 85.3504 26.2463 84.9236C25.7737 84.495 25.5032 83.8875 25.5008 83.2496V83.2271V74.9996C25.5008 74.1712 24.8293 73.4996 24.0009 73.4996C23.1725 73.4996 22.5009 74.1712 22.5009 74.9996V83.2496V83.2706V84.5381C22.5421 85.7501 21.6726 86.8025 20.4745 86.9905C19.8443 87.0591 19.2149 86.8537 18.7465 86.4265C18.2729 85.9975 18.0022 85.3886 18.0011 84.7495V81.7496V81.7196V74.9996C18.0011 74.1712 17.3295 73.4996 16.5011 73.4996C15.6727 73.4996 15.0012 74.1712 15.0012 74.9996V81.7496V81.7676C14.9972 82.4036 14.7241 83.0082 14.2497 83.4318C13.7752 83.8554 13.1436 84.0584 12.5112 83.9906C11.3161 83.7993 10.4527 82.7445 10.5013 81.5351V78.7496V78.7271V71.9997C10.5013 71.1712 9.82976 70.4997 9.00136 70.4997C8.17296 70.4997 7.50141 71.1712 7.50141 71.9997V78.7496V78.7631C7.49863 79.3996 7.22637 80.0052 6.7521 80.4297C6.27783 80.8543 5.64593 81.0581 5.01299 80.9906C3.81816 80.7994 2.95449 79.7458 3.00156 78.5366V56.3233C3.00387 56.0531 3.07457 55.7878 3.20705 55.5523L6.85643 49.4834C7.27411 48.7855 7.49684 47.9882 7.50141 47.1749V33H20.833L18.7045 35.5995C17.3323 37.2686 17.2347 39.6457 18.4655 41.4217C19.6963 43.1976 21.9563 43.9408 24.0009 43.2419V48.2699C24.0058 49.4504 24.4745 50.5817 25.3058 51.4199L39.2943 65.5197C39.3108 65.5377 39.3273 65.5542 39.3453 65.5707L39.9558 66.1857C40.4814 66.7207 40.6343 67.519 40.3435 68.2103C40.0528 68.9016 39.3753 69.3507 38.6254 69.3492C38.2172 69.351 37.8205 69.214 37.5004 68.9607L32.4621 64.8372C32.0136 64.4626 31.3884 64.3826 30.86 64.6322C30.3316 64.8817 29.9963 65.4154 30.0007 65.9997V83.0351C30.0422 84.2457 29.175 85.2975 27.9787 85.4875ZM86.9867 69.5052C87.0562 70.1409 86.8519 70.7762 86.4249 71.2522C85.9978 71.7282 85.3883 72 84.7488 71.9997H74.9991C74.1707 71.9997 73.4992 72.6712 73.4992 73.4996C73.4992 74.3281 74.1707 74.9996 74.9991 74.9996H81.7489C82.3883 74.9981 82.9982 75.2688 83.4261 75.7439C83.854 76.219 84.0595 76.8538 83.9913 77.4896C83.7994 78.6851 82.7442 79.5483 81.5344 79.4996H71.9992C71.1708 79.4996 70.4993 80.1712 70.4993 80.9996C70.4993 81.828 71.1708 82.4996 71.9992 82.4996H78.749C79.3884 82.4981 79.9983 82.7687 80.4262 83.2438C80.8541 83.719 81.0596 84.3538 80.9914 84.9895C80.8001 86.1853 79.7445 87.049 78.5345 86.9995H56.3218C56.0484 86.9975 55.7807 86.9207 55.5478 86.7775L49.482 83.1446C48.7839 82.726 47.986 82.5032 47.1721 82.4996H33.0006V69.1632L35.5985 71.2902C37.5462 72.784 40.2925 72.633 42.0647 70.9347C43.3828 69.6583 43.8425 67.7341 43.2437 65.9997H48.2685C49.449 65.9948 50.5803 65.5261 51.4184 64.6947L65.53 50.6999L65.5825 50.6489L66.1929 50.0489C66.9246 49.3335 68.0961 49.3416 68.8179 50.0669C69.4767 50.7283 69.5409 51.7764 68.9678 52.5133L64.843 57.5533C64.4786 58.0013 64.4037 58.6187 64.6505 59.1409C64.8973 59.663 65.422 59.997 65.9994 59.9998H83.0344C84.2422 59.9526 85.295 60.8148 85.4868 62.0083C85.5554 62.6435 85.3506 63.278 84.9237 63.7533C84.4967 64.2286 83.8878 64.5 83.2489 64.4997H74.9991C74.1707 64.4997 73.4992 65.1713 73.4992 65.9997C73.4992 66.8281 74.1707 67.4997 74.9991 67.4997H84.5388C85.7437 67.4553 86.7932 68.3151 86.9867 69.5052ZM86.9987 33.6765C86.9964 33.9497 86.9202 34.2171 86.7783 34.4505L83.1439 40.5165C82.7255 41.2141 82.5027 42.0115 82.4989 42.8249V56.9998H69.1628L71.2913 54.4003C72.8362 52.4693 72.6818 49.6852 70.9328 47.9369C69.6225 46.6796 67.7279 46.2429 65.9994 46.7999V41.7299C65.9945 40.5494 65.5258 39.4181 64.6945 38.58L50.7 24.4591L50.6715 24.4306L50.052 23.8066C49.7006 23.4595 49.5043 22.9851 49.5076 22.4911C49.511 21.9971 49.7138 21.5254 50.07 21.1831C50.7405 20.5435 51.7743 20.4801 52.5179 21.0331L57.5562 25.1566C58.0043 25.5191 58.6205 25.5929 59.1414 25.3463C59.6624 25.0997 59.996 24.5765 59.9996 24.0001V6.96476C59.9532 5.75667 60.8159 4.70404 62.0096 4.51228C62.6446 4.44416 63.2786 4.64911 63.7536 5.07603C64.2286 5.50295 64.4997 6.11161 64.4995 6.75026V15.0002C64.4995 15.8286 65.171 16.5002 65.9994 16.5002C66.8278 16.5002 67.4994 15.8286 67.4994 15.0002V5.46477C67.4523 4.25646 68.3153 3.20343 69.5093 3.0123C70.1443 2.94417 70.7784 3.14912 71.2533 3.57604C71.7283 4.00296 71.9995 4.61162 71.9992 5.25028V15.0002C71.9992 15.8286 72.6708 16.5002 73.4992 16.5002C74.3276 16.5002 74.9991 15.8286 74.9991 15.0002V8.25025C74.9981 7.61107 75.2689 7.0016 75.7439 6.57402C76.219 6.14643 76.8535 5.94109 77.4891 6.00927C78.6842 6.20053 79.5476 7.25531 79.499 8.46475V18.0002C79.499 18.8286 80.1705 19.5001 80.9989 19.5001C81.8273 19.5001 82.4989 18.8286 82.4989 18.0002V11.2502C82.4978 10.611 82.7686 10.0016 83.2437 9.57399C83.7188 9.1464 84.3533 8.94106 84.9888 9.00924C86.183 9.20106 87.0459 10.2546 86.9987 11.4632V33.6765Z" fill="#FDFDFD"></path></svg>