<svg xmlns="http://www.w3.org/2000/svg" width="90" height="90" viewBox="0 0 90 90" fill="none"><path d="M88.3174 56.201C88.0121 55.9192 87.7389 55.67 87.4934 55.4461C86.5308 54.5684 86.0476 54.1277 85.8095 53.7221C85.5712 53.3166 85.4248 52.6852 85.1326 51.4268C85.0581 51.1058 84.9752 50.7485 84.8796 50.3477C84.3378 48.0747 82.3807 46.4603 80.0096 46.3305C79.5915 46.3077 79.219 46.2894 78.8846 46.2732C77.5733 46.209 76.9153 46.1767 76.4675 46.0165C76.0199 45.8564 75.4946 45.465 74.4482 44.6857C74.1813 44.487 73.8841 44.2656 73.5489 44.019C71.6479 42.6201 69.0929 42.6201 67.1917 44.019C66.8567 44.2656 66.5595 44.4868 66.2926 44.6855C65.246 45.465 64.7207 45.8562 64.2729 46.0165C64.0856 46.0836 63.8604 46.1281 63.5667 46.162C58.7237 41.8881 52.9254 38.9413 46.6905 37.5222C53.4343 34.3392 58.1017 27.5589 58.1017 19.7267C58.1018 8.84907 49.0996 -0.000488281 38.0344 -0.000488281C26.9691 -0.000488281 17.9669 8.84907 17.9669 19.7267C17.9669 27.5592 22.6346 34.3399 29.379 37.5227C23.0984 38.9535 17.2516 41.9331 12.3914 46.2538C5.40428 52.4654 1.00645 60.9357 0.00841604 70.1045C-0.0362526 70.514 0.098307 70.9228 0.378317 71.2291C0.658326 71.5354 1.05758 71.7105 1.47657 71.7105L38.0318 71.7103C38.0325 71.7103 38.0334 71.7105 38.0342 71.7105C38.0349 71.7105 38.0358 71.7103 38.0366 71.7103H52.9109C53.4338 72.8994 54.4032 73.8812 55.6919 74.4239C56.0768 74.586 56.4205 74.7284 56.7289 74.8561C56.886 74.9211 57.0324 74.9819 57.1699 75.0392L53.0552 83.7271C52.7684 84.333 52.8472 85.0386 53.2606 85.5685C53.6739 86.0983 54.3462 86.3558 55.0158 86.2408L59.1683 85.5276L61.2862 89.1104C61.6135 89.6642 62.2097 89.9995 62.8565 89.9995C62.8841 89.9995 62.912 89.999 62.9399 89.9977C63.6184 89.9674 64.2183 89.5726 64.5055 88.9667L68.5547 80.4169C69.4565 80.1463 69.9687 80.0101 70.3704 80.0101C70.772 80.0101 71.2843 80.1463 72.1863 80.4169L76.2353 88.9665C76.5219 89.5722 77.1216 89.9672 77.8003 89.9977C77.8284 89.999 77.8565 89.9995 77.8843 89.9995C78.5311 89.9995 79.1271 89.6642 79.4546 89.1104L81.5724 85.5276L85.725 86.2409C86.3952 86.3558 87.0676 86.0979 87.4809 85.5676C87.894 85.0374 87.9722 84.3317 87.6852 83.7267L83.5707 75.0392C83.7082 74.9819 83.8546 74.9213 84.0117 74.8561C84.3201 74.7284 84.6638 74.586 85.0487 74.4239C87.2317 73.5049 88.5092 71.3298 88.2273 69.0116C88.1777 68.6028 88.1312 68.2392 88.0896 67.9125C87.9263 66.6319 87.8441 65.9892 87.927 65.5279C88.0099 65.0667 88.3104 64.4902 88.9095 63.3418C89.0622 63.0489 89.2324 62.7229 89.4212 62.3556C90.4927 60.272 90.0491 57.7988 88.3174 56.201ZM51.3196 62.3556C51.5084 62.7229 51.6786 63.0489 51.8312 63.342C52.4304 64.4906 52.7311 65.0668 52.8138 65.5281C52.8965 65.9893 52.8145 66.632 52.6512 67.9127C52.6166 68.1834 52.5788 68.4812 52.5386 68.8073H41.3611L45.0859 64.7591C45.4015 64.416 45.532 63.9453 45.437 63.4922L43.5391 54.4472L43.9083 54.8774C44.1903 55.2062 44.6042 55.3931 45.0368 55.3931C45.0831 55.3931 45.1298 55.391 45.1765 55.3866C45.6587 55.3416 46.0878 55.0671 46.3248 54.6519L53.1067 42.7708C55.3331 43.8058 57.4536 45.0733 59.4328 46.5603C57.6683 47.0979 56.3001 48.5065 55.8612 50.3482C55.7656 50.7489 55.6827 51.1063 55.6083 51.4272C55.3163 52.6855 55.1698 53.3171 54.9315 53.7227C54.6932 54.1282 54.2101 54.569 53.2475 55.4467C53.002 55.6704 52.7287 55.9197 52.4234 56.2015C50.6918 57.7986 50.2483 60.272 51.3196 62.3556ZM31.2767 51.4041L25.6936 41.6235C26.7286 41.2457 27.7864 40.9151 28.8638 40.6324L35.9131 45.9998L31.2767 51.4041ZM36.521 49.7943L38.0342 48.0304L39.5472 49.7941L42.3931 63.3576L38.034 68.0951L33.6749 63.3576L36.521 49.7943ZM40.1556 45.9998L47.1972 40.6384C48.2707 40.9215 49.3287 41.2543 50.3681 41.6353L44.7919 51.4041L40.1556 45.9998ZM20.9202 19.7267C20.9202 10.45 28.5976 2.90273 38.0344 2.90273C47.4711 2.90273 55.1485 10.45 55.1485 19.7267C55.1485 29.001 47.4751 36.5467 38.0417 36.5507C38.0392 36.5507 38.0368 36.5507 38.0342 36.5507C38.0318 36.5507 38.0294 36.5507 38.0268 36.5507C28.5936 36.5465 20.9202 29.001 20.9202 19.7267ZM38.0344 39.4539H38.0417C39.8495 39.4543 41.64 39.5916 43.4012 39.8564L38.0342 43.9428L32.6629 39.8531C34.4136 39.5916 36.2046 39.4543 38.0268 39.4539C38.0294 39.4537 38.032 39.4539 38.0344 39.4539ZM22.9537 42.7561L29.7439 54.6515C29.9809 55.0667 30.4099 55.3412 30.8922 55.3862C30.9389 55.3906 30.9854 55.3928 31.0319 55.3928C31.4646 55.3928 31.8786 55.2057 32.1604 54.8771L32.5294 54.447L30.6315 63.492C30.5365 63.9453 30.6668 64.4158 30.9826 64.7591L34.7075 68.8073L3.15774 68.8075C4.98288 57.1342 12.6096 47.545 22.9537 42.7561ZM62.7466 85.8022L61.205 83.194C60.8944 82.6685 60.284 82.3893 59.6741 82.4934L56.6516 83.0126L59.6178 76.7494C59.817 77.0345 60.0506 77.3901 60.346 77.8396C60.5276 78.1159 60.7299 78.4238 60.959 78.7684C61.8845 80.1594 63.3687 80.9917 64.967 81.114L62.7466 85.8022ZM81.0669 82.4934C80.4578 82.3887 79.8466 82.6682 79.536 83.194L77.9943 85.802L75.7751 81.116C77.373 80.9934 78.8569 80.1592 79.782 78.7682C80.0111 78.4238 80.2134 78.1159 80.395 77.8396C80.6903 77.3899 80.924 77.0345 81.1232 76.7494L84.0894 83.0126L81.0669 82.4934ZM86.7856 61.0459C86.5995 61.4075 86.4321 61.7287 86.2817 62.017C84.8105 64.8371 84.7583 65.1294 85.1594 68.2738C85.2004 68.5953 85.2462 68.9535 85.2951 69.356C85.4221 70.3995 84.8689 71.3412 83.8862 71.755C83.507 71.9144 83.1687 72.0547 82.8649 72.1806C79.8942 73.4114 79.6628 73.6021 77.914 76.2646C77.7352 76.5367 77.5362 76.8399 77.3105 77.1793C76.7253 78.0587 75.6856 78.4307 74.6626 78.1266C74.268 78.0094 73.9171 77.9029 73.602 77.8073C72.0617 77.34 71.2161 77.1065 70.3706 77.1065C69.525 77.1065 68.6793 77.3402 67.1391 77.8073C66.824 77.9029 66.4733 78.0092 66.0785 78.1266C65.0554 78.43 64.0158 78.0587 63.4307 77.1793C63.205 76.8399 63.006 76.5367 62.8271 76.2646C61.0782 73.6023 60.8469 73.4114 57.8763 72.1806C57.5725 72.0549 57.2341 71.9146 56.855 71.755C55.8723 71.3412 55.3193 70.3995 55.4461 69.356C55.495 68.9535 55.5408 68.5953 55.5817 68.2738C55.9828 65.1294 55.9306 64.8371 54.4593 62.017C54.3089 61.7287 54.1415 61.4075 53.9554 61.0459C53.4731 60.108 53.6652 59.037 54.4445 58.3179C54.7452 58.0405 55.0143 57.795 55.2561 57.5745C57.6195 55.4194 57.7705 55.1623 58.4876 52.0724C58.5609 51.7565 58.6427 51.4047 58.7366 51.01C58.9804 49.9866 59.8279 49.2877 60.8953 49.2294C61.3071 49.2067 61.6739 49.1889 62.0031 49.1728C65.2228 49.0151 65.5065 48.9135 68.0764 46.9996C68.3391 46.804 68.6316 46.586 68.9617 46.3431C69.8178 45.7132 70.9236 45.7134 71.7795 46.3431C72.1097 46.5858 72.4023 46.804 72.6651 46.9997C75.2347 48.9133 75.5184 49.0149 78.738 49.1726C79.0673 49.1888 79.4341 49.2067 79.8459 49.2292C80.9133 49.2875 81.7607 49.9864 82.0045 51.0098C82.0987 51.4045 82.1803 51.7565 82.2537 52.0724C82.9708 55.162 83.1218 55.4191 85.4852 57.5744C85.727 57.7948 85.9961 58.0401 86.2966 58.3176C87.0759 59.037 87.2681 60.108 86.7856 61.0459ZM70.3704 51.1827C64.2742 51.1827 59.3145 56.0583 59.3145 62.0509C59.3145 68.0435 64.2742 72.9191 70.3704 72.9191C76.4666 72.9191 81.4262 68.0437 81.4262 62.0511C81.4262 56.0585 76.4667 51.1827 70.3704 51.1827ZM70.3704 70.0161C65.9026 70.0161 62.2678 66.443 62.2678 62.0511C62.2678 57.6593 65.9026 54.0861 70.3704 54.0861C74.8382 54.0861 78.473 57.6593 78.473 62.0511C78.473 66.443 74.8382 70.0161 70.3704 70.0161Z" fill="url(#paint0_linear_14_6412)"></path><defs><linearGradient id="paint0_linear_14_6412" x1="0" y1="-0.000488281" x2="90" y2="-0.000488281" gradientUnits="userSpaceOnUse"><stop stop-color="#FF7369"></stop><stop offset="1" stop-color="#FFB06D"></stop></linearGradient></defs></svg>