<svg xmlns="http://www.w3.org/2000/svg" width="60" height="63" viewBox="0 0 60 63" fill="none"><path d="M46.3707 10.5158C45.2658 10.0893 44.0248 10.637 43.5979 11.7409C43.171 12.8447 43.7193 14.0823 44.8242 14.5109C51.6441 17.1471 55.7143 21.3262 55.7143 25.6914C55.7143 33.1506 43.939 39.4538 30 39.4538C16.061 39.4538 4.28571 33.1506 4.28571 25.6893C4.28571 21.3179 8.36426 17.1346 15.1967 14.4984C16.3016 14.0719 16.852 12.8342 16.4251 11.7304C15.9982 10.6266 14.7573 10.0788 13.6544 10.5032C5.10393 13.8022 0 19.4802 0 25.6893V44.9562C0 50.005 3.28125 54.6586 9.23898 58.06C14.8179 61.244 22.1924 63.0001 30 63.0001C37.8076 63.0001 45.1821 61.244 50.761 58.06C56.7188 54.6586 60 50.005 60 44.9562V25.6893C60 19.4865 54.9044 13.8126 46.3707 10.5158ZM30 58.7186C16.061 58.7186 4.28571 52.4154 4.28571 44.9562V35.0928C5.63756 36.4391 7.29492 37.683 9.23898 38.791C14.8179 41.9771 22.1924 43.7311 30 43.7311C37.8076 43.7311 45.1821 41.9771 50.761 38.791C52.7051 37.683 54.3604 36.4391 55.7143 35.0928V44.9562C55.7143 52.4154 43.9369 58.7186 30 58.7186Z" fill="#FDFDFD"></path><path d="M30 0C20.3865 0 12.8572 4.70174 12.8572 10.7038V21.4077C12.8572 27.4098 20.3865 32.1115 30 32.1115C39.6136 32.1115 47.1429 27.4098 47.1429 21.4077V10.7038C47.1429 4.70174 39.6136 0 30 0ZM30 4.28153C37.5775 4.28153 42.8572 7.6662 42.8572 10.7038C42.8572 13.7415 37.5775 17.1261 30 17.1261C22.4226 17.1261 17.1429 13.7415 17.1429 10.7038C17.1429 7.6662 22.4226 4.28153 30 4.28153ZM30 27.83C22.4226 27.83 17.1429 24.4453 17.1429 21.4077V17.8537C20.2609 20.0467 24.827 21.4098 30 21.4098C35.173 21.4098 39.7392 20.0467 42.8572 17.8537V21.4098C42.8572 24.4453 37.5775 27.83 30 27.83Z" fill="#476AFC"></path></svg>