<svg xmlns="http://www.w3.org/2000/svg" width="43" height="62" viewBox="0 0 43 62" fill="none"><path d="M23.4545 54.25C23.4545 55.3209 22.5803 56.1875 21.5 56.1875C20.4196 56.1875 19.5454 55.319 19.5454 54.25C19.5454 53.181 20.4196 52.3125 21.5 52.3125C22.5803 52.3125 23.4545 53.1791 23.4545 54.25Z" fill="#FDFDFD"></path><path d="M36.8978 0H6.10223C2.73713 0 0 2.71326 0 6.04901V55.951C0 59.2867 2.73713 62 6.10223 62H36.8978C40.2629 62 43 59.2867 43 55.951V6.04901C43 2.71326 40.2629 0 36.8978 0ZM3.90909 6.04901C3.90909 4.84943 4.894 3.875 6.10223 3.875H36.8978C38.1079 3.875 39.0909 4.84943 39.0909 6.04901V46.5H3.90909V6.04901ZM36.8978 58.125H6.10223C4.89209 58.125 3.90909 57.1506 3.90909 55.951V50.375H39.0909V55.951C39.0909 57.1506 38.106 58.125 36.8978 58.125Z" fill="#FDFDFD"></path><path d="M35.9528 15.6571L22.271 9.84457C21.7786 9.63644 21.2231 9.63644 20.7307 9.84457L7.04885 15.6571C6.32926 15.9617 5.86353 16.6637 5.86353 17.4375V32.9375C5.86353 33.7133 6.32926 34.4134 7.04885 34.718L20.7307 40.5305L20.7326 40.5267C20.9769 40.6308 21.2384 40.6875 21.5018 40.6875C21.7633 40.6875 22.0248 40.6346 22.2729 40.5305L35.9547 34.718C36.6724 34.4115 37.1401 33.7114 37.1401 32.9356V17.4375C37.1363 16.6618 36.6705 15.9617 35.9528 15.6571ZM21.4999 13.7328L30.219 17.4375L21.4999 21.1422L12.7808 17.4375L21.4999 13.7328ZM9.77262 20.3759L19.5453 24.5272V35.8116L9.77262 31.6604V20.3759ZM23.4544 35.8116V24.5272L33.2272 20.3759V31.6604L23.4544 35.8116Z" fill="#476AFC"></path></svg>