<svg xmlns="http://www.w3.org/2000/svg" width="62" height="62" viewBox="0 0 62 62" fill="none"><path d="M26.8828 53.3621C17.5243 51.6506 10.1719 44.1993 8.58756 34.8186C8.39785 33.6924 7.33021 32.9356 6.20605 33.1253C5.66113 33.2182 5.20299 33.5169 4.89622 33.9286C4.43203 34.308 4.13535 34.8832 4.13535 35.529V49.9553C1.7276 50.809 0 53.1058 0 55.8001C0 59.219 2.78112 62.0001 6.2 62.0001C8.89434 62.0001 11.1911 60.2725 12.0448 57.8668H26.4166C27.4681 57.8668 28.3339 57.0817 28.4631 56.0645C28.4954 55.9676 28.5236 55.8687 28.5418 55.7658C28.7497 54.6437 28.0049 53.568 26.8828 53.3621ZM16.6847 53.7335H12.0448C11.4212 51.9756 10.0266 50.579 8.26667 49.9553V45.3114C10.41 48.706 13.288 51.5901 16.6847 53.7335ZM6.2 57.8668C5.0597 57.8668 4.13333 56.9404 4.13333 55.8001C4.13333 54.6618 5.0597 53.7335 6.2 53.7335C7.3403 53.7335 8.26667 54.6598 8.26667 55.8001C8.26667 56.9404 7.3403 57.8668 6.2 57.8668Z" fill="#FDFDFD"></path><path d="M34.9839 8.6138C44.2859 10.2566 51.6726 17.605 53.3639 26.8969C53.5456 27.896 54.4154 28.5943 55.3943 28.5943C55.5174 28.5943 55.6425 28.5842 55.7676 28.56C55.9876 28.5196 56.1894 28.4469 56.3771 28.346C57.2369 28.0958 57.8666 27.3046 57.8666 26.3621V12.1881C57.8666 12.1396 57.8626 12.0932 57.8585 12.0468C60.2663 11.1971 61.9999 8.89635 61.9999 6.2C61.9999 2.78112 59.2188 0 55.7999 0C53.1056 0 50.8088 1.7276 49.9551 4.13333H35.3734C34.2311 4.13333 33.3068 5.0597 33.3068 6.2C33.3068 6.20605 33.3068 6.21009 33.3068 6.21615C33.3068 6.21615 33.3068 6.21816 33.3068 6.22018C33.109 7.34434 33.8598 8.41601 34.9839 8.6138ZM45.3072 8.26667H49.9551C50.5788 10.0286 51.9774 11.4252 53.7393 12.0468C53.7353 12.0932 53.7312 12.1417 53.7312 12.1901V16.6908C51.5879 13.2961 48.7018 10.412 45.3072 8.26667ZM55.7999 4.13333C56.9402 4.13333 57.8666 5.0597 57.8666 6.2C57.8666 7.33828 56.9402 8.26667 55.7999 8.26667C54.6616 8.26667 53.7333 7.3403 53.7333 6.2C53.7333 5.0597 54.6616 4.13333 55.7999 4.13333Z" fill="#FDFDFD"></path><path d="M4.13333 12.0448V26.5962C4.13333 27.7365 5.0597 28.6629 6.2 28.6629C6.49062 28.6629 6.7651 28.6023 7.01738 28.4954C7.82266 28.3339 8.48867 27.7002 8.64609 26.8445C10.3253 17.7483 17.5546 10.4504 26.6346 8.68646C27.2037 8.57546 27.6719 8.24043 27.9666 7.79238C28.4227 7.41296 28.7133 6.8418 28.7133 6.20202C28.7133 5.0597 27.789 4.13535 26.6467 4.13535H12.0448C11.1911 1.7276 8.89434 0 6.2 0C2.78112 0 0 2.78112 0 6.2C0 8.89434 1.7276 11.1911 4.13333 12.0448ZM11.9176 12.0872C10.5251 13.4919 9.30404 15.0298 8.26667 16.6726V12.0448C10.0266 11.4212 11.4212 10.0266 12.0448 8.26667H16.6706C14.9611 9.34844 13.3667 10.626 11.9176 12.0872ZM6.2 4.13333C7.3403 4.13333 8.26667 5.0597 8.26667 6.2C8.26667 7.33828 7.3403 8.26667 6.2 8.26667C5.0597 8.26667 4.13333 7.3403 4.13333 6.2C4.13333 5.0597 5.0597 4.13333 6.2 4.13333Z" fill="#FDFDFD"></path><path d="M57.8667 49.9551V35.6438C57.8667 34.5036 56.9403 33.5772 55.8 33.5772C55.7355 33.5772 55.6709 33.5812 55.6063 33.5873C54.5366 33.4601 53.5396 34.1806 53.3358 35.2543C51.6082 44.3868 44.3062 51.6605 35.1677 53.3538C34.0455 53.5617 33.3049 54.6394 33.5127 55.7616C33.6903 56.7243 34.5097 57.4044 35.4482 57.4488C35.7933 57.7112 36.2252 57.8686 36.6914 57.8686H49.9532C50.8069 60.2743 53.1037 62.0019 55.798 62.0019C59.2169 62.0019 61.998 59.2208 61.998 55.8019C62 53.1056 60.2724 50.8088 57.8667 49.9551ZM53.7334 45.291V49.9571C51.9735 50.5808 50.5789 51.9754 49.9552 53.7353H45.2911C48.6918 51.5838 51.584 48.6897 53.7334 45.291ZM55.8 57.8666C54.6618 57.8666 53.7334 56.9402 53.7334 55.7999C53.7334 54.6616 54.6597 53.7332 55.8 53.7332C56.9403 53.7332 57.8667 54.6596 57.8667 55.7999C57.8667 56.9402 56.9403 57.8666 55.8 57.8666Z" fill="#FDFDFD"></path><path d="M51.4082 33.0666C52.5485 33.0666 53.4749 32.1422 53.4749 30.9999C53.4749 29.8576 52.5485 28.9333 51.4082 28.9333H33.0666V12.3999C33.0666 11.2576 32.1422 10.3333 30.9999 10.3333C29.8576 10.3333 28.9332 11.2576 28.9332 12.3999V28.9333H10.5916C9.45127 28.9333 8.5249 29.8576 8.5249 30.9999C8.5249 32.1422 9.45127 33.0666 10.5916 33.0666H28.9332V49.5999C28.9332 50.7422 29.8576 51.6666 30.9999 51.6666C32.1422 51.6666 33.0666 50.7422 33.0666 49.5999V33.0666H51.4082Z" fill="#FDFDFD"></path><path d="M31.0001 12.4C27.5812 12.4 24.8 9.61888 24.8 6.2C24.8 2.78112 27.5812 0 31.0001 0C34.4189 0 37.2001 2.78112 37.2001 6.2C37.2001 9.61888 34.4189 12.4 31.0001 12.4ZM31.0001 4.13333C29.8598 4.13333 28.9334 5.0597 28.9334 6.2C28.9334 7.33828 29.8598 8.26667 31.0001 8.26667C32.1383 8.26667 33.0667 7.3403 33.0667 6.2C33.0667 5.0597 32.1403 4.13333 31.0001 4.13333Z" fill="#476AFC"></path><path d="M31.0001 62.0001C27.5812 62.0001 24.8 59.219 24.8 55.8001C24.8 52.3812 27.5812 49.6001 31.0001 49.6001C34.4189 49.6001 37.2001 52.3812 37.2001 55.8001C37.2001 59.219 34.4189 62.0001 31.0001 62.0001ZM31.0001 53.7334C29.8598 53.7334 28.9334 54.6598 28.9334 55.8001C28.9334 56.9404 29.8598 57.8668 31.0001 57.8668C32.1383 57.8668 33.0667 56.9404 33.0667 55.8001C33.0667 54.6618 32.1403 53.7334 31.0001 53.7334Z" fill="#476AFC"></path><path d="M6.2 37.2001C2.78112 37.2001 0 34.4189 0 31.0001C0 27.5812 2.78112 24.8 6.2 24.8C9.61888 24.8 12.4 27.5812 12.4 31.0001C12.4 34.4189 9.61888 37.2001 6.2 37.2001ZM6.2 28.9334C5.0597 28.9334 4.13333 29.8598 4.13333 31.0001C4.13333 32.1383 5.0597 33.0667 6.2 33.0667C7.3403 33.0667 8.26667 32.1403 8.26667 31.0001C8.26667 29.8618 7.3403 28.9334 6.2 28.9334Z" fill="#476AFC"></path><path d="M55.8001 37.2001C52.3812 37.2001 49.6001 34.4189 49.6001 31.0001C49.6001 27.5812 52.3812 24.8 55.8001 24.8C59.219 24.8 62.0001 27.5812 62.0001 31.0001C62.0001 34.4189 59.219 37.2001 55.8001 37.2001ZM55.8001 28.9334C54.6618 28.9334 53.7334 29.8598 53.7334 31.0001C53.7334 32.1383 54.6598 33.0667 55.8001 33.0667C56.9404 33.0667 57.8668 32.1403 57.8668 31.0001C57.8668 29.8618 56.9404 28.9334 55.8001 28.9334Z" fill="#476AFC"></path></svg>