<svg xmlns="http://www.w3.org/2000/svg" width="58" height="63" viewBox="0 0 58 63" fill="none"><path d="M31.0714 63C30.6931 63 30.3148 62.8958 29.9831 62.6873C29.3742 62.3071 29.002 61.6326 29.002 60.907V31.6042C29.002 30.8112 29.445 30.0876 30.1469 29.732L55.002 17.1757C55.6453 16.8507 56.4079 16.8854 57.0188 17.2677C57.6297 17.6479 57.9999 18.3224 57.9999 19.048V48.3507C57.9999 49.1438 57.5569 49.8673 56.855 50.223L31.9978 62.7813C31.7045 62.9285 31.3869 63 31.0714 63ZM33.1428 32.8981V57.5201L53.8571 47.0548V22.4328L33.1428 32.8981Z" fill="#FDFDFD"></path><path d="M28.0673 27.6286C27.7356 27.6286 27.4018 27.5489 27.1004 27.3874L3.17581 14.6186C2.47387 14.2445 2.04502 13.4964 2.07334 12.6952C2.10166 11.894 2.58109 11.1786 3.3073 10.8536L27.2319 0.177778C27.7477 -0.053193 28.3323 -0.059325 28.8522 0.155294L54.6419 10.829C55.3964 11.1418 55.9001 11.8735 55.9264 12.6972C55.9548 13.521 55.4996 14.2834 54.7673 14.6472L28.9776 27.414C28.6924 27.5571 28.3789 27.6286 28.0673 27.6286ZM8.89247 12.9364L28.1017 23.187L48.8059 12.9384L28.0977 4.36797L8.89247 12.9364Z" fill="#FDFDFD"></path><path d="M2.99381 49.7653C2.35458 49.7653 1.72142 49.4669 1.31684 48.9027C0.643221 47.9686 0.847532 46.6584 1.77401 45.9798L22.9273 30.4352C23.8517 29.7546 25.1484 29.961 25.822 30.8972C26.4956 31.8313 26.2913 33.1415 25.3648 33.8221L4.20956 49.3667C3.84342 49.6365 3.41659 49.7653 2.99381 49.7653Z" fill="#FDFDFD"></path><path d="M2.42555 39.3389C1.7843 39.3389 1.15316 39.0384 0.748582 38.4763C0.076986 37.5422 0.279274 36.232 1.20575 35.5534L15.1333 25.3191C16.0598 24.6405 17.3544 24.8449 18.028 25.7811C18.7016 26.7152 18.4973 28.0254 17.5708 28.704L3.6413 38.9383C3.27314 39.2081 2.84631 39.3389 2.42555 39.3389Z" fill="#FDFDFD"></path><path d="M11.3139 54.4971C10.6746 54.4971 10.0435 54.1986 9.63691 53.6345C8.96329 52.7004 9.1676 51.3902 10.0941 50.7116L22.9697 41.2499C23.8962 40.5713 25.1908 40.7778 25.8644 41.7119C26.5381 42.646 26.3338 43.9562 25.4073 44.6368L12.5316 54.0985C12.1635 54.3683 11.7367 54.4971 11.3139 54.4971Z" fill="#FDFDFD"></path><path d="M24.8571 63C24.5173 63 24.1734 62.9141 23.8659 62.7445L1.08022 50.1862C0.41469 49.8183 0 49.1151 0 48.3486V19.0459C0 18.308 0.384347 17.6233 1.01346 17.2472C1.64258 16.8711 2.42139 16.8568 3.06264 17.2104L25.8484 29.7687C26.5139 30.1366 26.9286 30.8418 26.9286 31.6063V60.909C26.9286 61.6469 26.5422 62.3316 25.9131 62.7077C25.5894 62.9019 25.2233 63 24.8571 63ZM4.14286 47.1059L22.7857 57.381V32.847L4.14286 22.5718V47.1059Z" fill="#476AFC"></path></svg>