<svg xmlns="http://www.w3.org/2000/svg" width="64" height="62" viewBox="0 0 64 62" fill="none"><path d="M44.3766 49.9664C44.2869 49.9664 44.1971 49.9606 44.1074 49.9489L9.67224 45.258C8.57955 45.1078 7.81467 44.1018 7.96297 43.01C8.11126 41.9162 9.11809 41.1539 10.2127 41.302L43.522 45.8409L54.9795 31.5322C55.6683 30.6704 56.9269 30.532 57.7874 31.2202C58.6478 31.9085 58.7883 33.166 58.0996 34.0258L45.9356 49.2197C45.5552 49.6954 44.9776 49.9664 44.3766 49.9664Z" fill="#476AFC"></path><mask id="mask0_302_2411" style="mask-type:luminance" maskUnits="userSpaceOnUse" x="0" y="0" width="64" height="62"><path d="M64 0H0V62H64V0Z" fill="white"></path></mask><g mask="url(#mask0_302_2411)"><path d="M40.9346 37.8726C40.8448 37.8726 40.755 37.8667 40.6653 37.855L15.1277 34.3748C14.035 34.2266 13.2682 33.2186 13.4185 32.1268C13.5668 31.035 14.5736 30.2707 15.6682 30.4189L40.0819 33.7451L48.1131 23.7159C48.8019 22.8561 50.0604 22.7157 50.9209 23.4039C51.7833 24.0941 51.9219 25.3497 51.2331 26.2095L42.4955 37.1239C42.1131 37.5996 41.5375 37.8726 40.9346 37.8726Z" fill="#476AFC"></path></g><mask id="mask1_302_2411" style="mask-type:luminance" maskUnits="userSpaceOnUse" x="0" y="0" width="64" height="62"><path d="M64 0H0V62H64V0Z" fill="white"></path></mask><g mask="url(#mask1_302_2411)"><path d="M63.5785 38.8007L35.6058 0.867609L35.6039 0.869559C35.3054 0.464025 34.8605 0.177421 34.3434 0.0857855C33.5375 -0.0565415 32.7258 0.309999 32.2966 1.00604L0.327789 52.9125C-0.0253818 53.4877 -0.0663574 54.2013 0.222423 54.8135C0.511204 55.4237 1.08876 55.8468 1.75998 55.9384L45.7171 61.9279C45.8068 61.9396 45.8985 61.9454 45.9883 61.9454C46.5385 61.9454 47.0673 61.7192 47.4478 61.3118C47.4829 61.2747 47.5473 61.1967 47.5473 61.1967L63.5317 41.2319C64.0956 40.5262 64.1151 39.5279 63.5785 38.8007ZM5.33852 52.3958L33.0615 7.38151L43.4575 57.5898L5.33852 52.3958ZM47.081 55.3847L37.8049 10.577L59.4536 39.9335L47.081 55.3847Z" fill="#FDFDFD"></path></g></svg>