<svg xmlns="http://www.w3.org/2000/svg" width="63" height="63" viewBox="0 0 63 63" fill="none"><g clip-path="url(#clip0_302_2390)"><mask id="mask0_302_2390" style="mask-type:luminance" maskUnits="userSpaceOnUse" x="0" y="0" width="63" height="63"><path d="M63 0H0V63H63V0Z" fill="white"></path></mask><g mask="url(#mask0_302_2390)"><path d="M29.9945 62.4476C29.61 62.4476 29.2234 62.3413 28.8757 62.1224C27.2434 61.0874 25.8116 59.0174 24.617 55.9676C24.1957 54.8897 24.7254 53.6747 25.8034 53.2533C26.8793 52.8319 28.0943 53.3638 28.5177 54.4397C29.6898 57.4342 30.7288 58.3363 31.1195 58.5858C32.0952 59.2056 32.3857 60.5003 31.7659 61.476C31.367 62.104 30.6879 62.4476 29.9945 62.4476ZM35.0325 60.1894C34.6582 60.1894 34.2818 60.0892 33.9402 59.8806C32.9543 59.2751 32.6454 57.9865 33.2488 56.9985C34.02 55.7385 34.7625 53.9119 35.3925 51.7151C35.7116 50.6024 36.8734 49.9601 37.9841 50.2792C39.0948 50.5983 39.737 51.7581 39.4179 52.8708C38.6734 55.4624 37.7979 57.5876 36.8182 59.1872C36.4254 59.8335 35.7361 60.1894 35.0325 60.1894ZM24.8113 51.2692C23.8459 51.2692 22.9786 50.5983 22.7659 49.6165C22.3384 47.6406 21.9825 45.4908 21.7084 43.2285C21.5693 42.081 22.3854 41.0358 23.535 40.8967C24.6866 40.7556 25.7277 41.5758 25.8668 42.7233C26.1266 44.8608 26.462 46.8838 26.8609 48.7349C27.1063 49.866 26.3863 50.9808 25.2552 51.2242C25.1079 51.2528 24.9586 51.2692 24.8113 51.2692ZM38.7613 48.2522C38.6468 48.2522 38.5323 48.2419 38.4177 48.2235C37.2763 48.0353 36.5052 46.9574 36.6934 45.816C37.0104 43.9015 37.262 41.8581 37.442 39.741C37.5402 38.5894 38.5527 37.7303 39.7063 37.8326C40.8579 37.9308 41.7129 38.9453 41.6148 40.0969C41.4245 42.3224 41.1586 44.4763 40.8252 46.4972C40.6554 47.524 39.7657 48.2522 38.7613 48.2522ZM23.2527 38.8063C22.1461 38.8063 21.2195 37.9369 21.1643 36.8181C21.0743 35.0733 21.0293 33.2835 21.0293 31.4999C21.0293 31.1338 21.0313 30.7697 21.0354 30.4076C21.0457 29.2499 21.9866 28.3294 23.1504 28.3335C24.3082 28.3458 25.2368 29.2928 25.2245 30.4485C25.2204 30.7963 25.2184 31.1481 25.2184 31.4999C25.2184 33.214 25.2613 34.9322 25.3473 36.6053C25.4066 37.761 24.5168 38.7449 23.3632 38.8042C23.3243 38.8063 23.2875 38.8063 23.2527 38.8063ZM39.8557 35.7381C39.8413 35.7381 39.827 35.7381 39.8127 35.7381C38.657 35.7156 37.7386 34.7583 37.7611 33.6006C37.7754 32.9051 37.7836 32.1994 37.7836 31.4999C37.7836 29.4258 37.7202 27.3558 37.5954 25.3492C37.5238 24.1956 38.4013 23.2015 39.557 23.1278C40.7066 23.0542 41.7048 23.9338 41.7784 25.0874C41.9093 27.1819 41.9748 29.3399 41.9748 31.4999C41.9748 32.2281 41.9666 32.9644 41.9523 33.6865C41.9277 34.8299 40.9929 35.7381 39.8557 35.7381ZM23.3898 26.2431C23.3386 26.2431 23.2854 26.241 23.2343 26.2369C22.0807 26.151 21.2134 25.1488 21.2993 23.9951C21.4629 21.7819 21.7002 19.6281 22.0029 17.5928C22.1748 16.4494 23.2425 15.6619 24.3838 15.8317C25.5273 16.0035 26.3168 17.0692 26.145 18.2147C25.8566 20.1476 25.6295 22.1951 25.4741 24.304C25.3943 25.4044 24.4759 26.2431 23.3898 26.2431ZM39.0743 21.0578C38.0413 21.0578 37.1434 20.2949 37.0002 19.2435C36.7098 17.0999 36.3436 15.0872 35.91 13.2647C35.6441 12.1397 36.3395 11.0106 37.4645 10.7426C38.5895 10.4747 39.7186 11.1722 39.9866 12.2972C40.4509 14.2526 40.8416 16.4003 41.1504 18.681C41.3059 19.8285 40.502 20.8819 39.3566 21.0374C39.2625 21.0517 39.1663 21.0578 39.0743 21.0578ZM25.3104 13.8353C25.1345 13.8353 24.9586 13.8128 24.7807 13.7678C23.6618 13.4774 22.9909 12.3319 23.2834 11.211C23.9379 8.69716 24.7111 6.56784 25.5804 4.88034C26.1102 3.85148 27.3723 3.44853 28.4011 3.9783C29.43 4.50807 29.8329 5.77216 29.3032 6.79898C28.575 8.21239 27.9143 10.0513 27.3354 12.2685C27.09 13.2115 26.2411 13.8353 25.3104 13.8353ZM36.0225 8.90171C35.2207 8.90171 34.4557 8.43739 34.1079 7.65807C32.7538 4.61239 31.7004 4.30557 31.5838 4.27898C30.4527 4.03353 29.7368 2.91671 29.9823 1.78762C30.2277 0.65648 31.3425 -0.0614748 32.4736 0.186025C34.6009 0.648298 36.4377 2.58943 37.935 5.95625C38.4054 7.01171 37.9309 8.25125 36.8734 8.72171C36.5952 8.84443 36.3068 8.90171 36.0225 8.90171Z" fill="#476AFC"></path></g><path d="M31.5 0.0817871C14.175 0.0817871 0.0817871 14.175 0.0817871 31.5C0.0817871 48.825 14.175 62.9182 31.5 62.9182C48.825 62.9182 62.9182 48.825 62.9182 31.5C62.9182 14.175 48.825 0.0817871 31.5 0.0817871ZM45.1207 55.0697C45.0266 54.8325 44.8875 54.6095 44.7013 54.4111C43.9077 53.5684 42.5822 53.5295 41.7416 54.3232C41.042 54.9818 40.3036 55.5791 39.5509 56.0986C38.9761 56.4954 38.6632 57.1275 38.6468 57.7738C36.3682 58.3957 33.9729 58.727 31.5 58.727C28.9657 58.727 26.5132 58.3772 24.1834 57.7268C24.1916 57.06 23.8806 56.4034 23.2957 55.9902C22.547 55.4625 21.8147 54.857 21.1213 54.1902C20.2868 53.3884 18.9613 53.415 18.1595 54.2495C17.955 54.4622 17.8057 54.7077 17.7095 54.9675C9.67497 50.2302 4.27088 41.4859 4.27088 31.5C4.27088 22.907 8.27383 15.2325 14.5104 10.2375C14.447 10.3316 14.3816 10.4256 14.3182 10.5218C13.6841 11.4893 13.9541 12.7882 14.9216 13.4222C15.2754 13.6554 15.6743 13.7659 16.0691 13.7659C16.7522 13.7659 17.4191 13.4325 17.822 12.8188C18.36 11.9986 18.9388 11.2172 19.5443 10.4952C20.2888 9.60951 20.1743 8.28815 19.2886 7.54361C19.1904 7.45974 19.0841 7.38815 18.9736 7.32679C22.725 5.37338 26.9857 4.26883 31.5 4.26883C36.0143 4.26883 40.277 5.37542 44.0284 7.32883C43.9179 7.3902 43.8116 7.46179 43.7134 7.54565C42.8277 8.2902 42.7132 9.61156 43.4577 10.4972C44.0632 11.2193 44.6441 12.0007 45.182 12.8209C45.5829 13.4345 46.2538 13.7679 46.935 13.7679C47.3297 13.7679 47.7266 13.6575 48.0804 13.4243C49.0479 12.7902 49.3179 11.4913 48.6838 10.5238C48.6204 10.4277 48.555 10.3336 48.4895 10.2395C54.7261 15.2345 58.727 22.9091 58.727 31.502C58.7291 41.5554 53.2493 50.355 45.1207 55.0697Z" fill="#FDFDFD"></path><path d="M14.7027 43.8219C14.3161 42.7317 13.1175 42.1589 12.0293 42.5476C10.9391 42.9342 10.3684 44.1328 10.755 45.221C11.4443 47.1642 12.285 49.0173 13.2525 50.7273C13.637 51.4085 14.3468 51.791 15.077 51.791C15.4268 51.791 15.7807 51.703 16.1059 51.5189C17.1123 50.9482 17.4661 49.6698 16.8975 48.6635C16.0486 47.1662 15.3102 45.538 14.7027 43.8219Z" fill="#FDFDFD"></path><path d="M11.2356 39.238C12.3811 39.0784 13.1809 38.0189 13.0193 36.8734C12.7738 35.1164 12.6491 33.3082 12.6491 31.5V31.4918C12.6491 30.3341 11.7102 29.4014 10.5545 29.4014C9.39678 29.4014 8.45996 30.3443 8.45996 31.5C8.45996 33.5005 8.59905 35.505 8.8711 37.4523C9.01632 38.4995 9.91428 39.2564 10.9431 39.2564C11.0393 39.2584 11.1354 39.2523 11.2356 39.238Z" fill="#FDFDFD"></path><path d="M10.8654 26.01C10.9983 26.0346 11.1272 26.0469 11.2581 26.0469C12.244 26.0469 13.1236 25.3473 13.3138 24.343C13.6533 22.5594 14.1218 20.8166 14.7088 19.166C15.0954 18.0757 14.5268 16.8791 13.4345 16.4925C12.3443 16.106 11.1477 16.6746 10.7611 17.7648C10.1024 19.616 9.57675 21.5673 9.19835 23.5616C8.98153 24.6969 9.72812 25.7932 10.8654 26.01Z" fill="#FDFDFD"></path><path d="M52.4494 29.4976C52.4474 29.4976 52.4453 29.4976 52.4453 29.4976C51.2917 29.4976 50.3528 30.4323 50.3508 31.586C50.3467 33.4044 50.2158 35.2207 49.9642 36.988C49.8006 38.1335 50.5962 39.1951 51.7417 39.3587C51.8419 39.373 51.9422 39.3791 52.0403 39.3791C53.0672 39.3791 53.9631 38.6244 54.1124 37.5812C54.3926 35.6216 54.5358 33.6069 54.5419 31.5962C54.5419 30.4385 53.6072 29.4996 52.4494 29.4976Z" fill="#FDFDFD"></path><path d="M50.9278 42.6988C49.8396 42.3081 48.6389 42.8726 48.2483 43.9608C47.6305 45.679 46.8798 47.3113 46.0187 48.8106C45.4419 49.8149 45.7896 51.0933 46.7919 51.6701C47.1212 51.8583 47.4792 51.9483 47.833 51.9483C48.5592 51.9483 49.2648 51.5699 49.6514 50.8969C50.6333 49.1849 51.4883 47.3276 52.1898 45.3783C52.5826 44.2901 52.016 43.0894 50.9278 42.6988Z" fill="#FDFDFD"></path><path d="M49.6984 24.4023C49.8886 25.4087 50.7681 26.1103 51.754 26.1103C51.8829 26.1103 52.0138 26.098 52.1427 26.0735C53.2799 25.8587 54.0286 24.7644 53.8138 23.6271C53.4374 21.6246 52.9118 19.663 52.2531 17.8016C51.8686 16.7114 50.672 16.1387 49.5797 16.5253C48.4895 16.9119 47.9168 18.1064 48.3034 19.1987C48.8924 20.8596 49.3609 22.6105 49.6984 24.4023Z" fill="#FDFDFD"></path></g><defs><clipPath id="clip0_302_2390"><rect width="63" height="63" fill="white"></rect></clipPath></defs></svg>