<svg xmlns="http://www.w3.org/2000/svg" width="89" height="89" viewBox="0 0 89 89" fill="none"><circle cx="44.5705" cy="44.4062" r="43.8715" fill="#FDFDFD" fill-opacity="0.2"></circle><path d="M57.6587 22.1047H31.1165C26.2302 22.1047 22.269 26.0659 22.269 30.9522V57.4944C22.269 62.3807 26.2302 66.3419 31.1165 66.3419H57.6587C62.545 66.3419 66.5062 62.3807 66.5062 57.4944V30.9522C66.5062 26.0659 62.545 22.1047 57.6587 22.1047Z" fill="#FDFDFD"></path><path d="M48.8838 44.291C48.8838 38.7419 47.5797 36.3345 43.97 36.3345H39.825V52.113H44.0717C47.6133 52.113 48.8838 49.7728 48.8838 44.291Z" fill="url(#paint0_linear_302_2301)"></path><path d="M66.5064 47.9562V57.4946C66.5064 59.841 65.5742 62.0914 63.915 63.7506C62.2558 65.4098 60.0054 66.342 57.6589 66.342H43.0917L33.7488 56.9991C33.8249 57.0531 33.9478 57.077 34.1416 57.0938C37.4152 57.3592 40.6604 57.4946 44.0702 57.4946C52.093 57.4946 55.1348 53.5831 55.1348 44.2907C55.1348 39.3901 54.3067 35.9741 52.3761 33.8259L66.5064 47.9562Z" fill="url(#paint1_linear_302_2301)"></path><path d="M55.1346 44.2903C55.1346 53.5801 52.0928 57.4942 44.07 57.4942C40.6602 57.4942 37.4176 57.3606 34.1414 57.0934C33.7406 57.0598 33.6406 56.9925 33.6406 56.6917V31.8207C33.6406 31.4872 33.7406 31.3863 34.1414 31.3527C37.4149 31.0873 40.6602 30.9519 44.07 30.9519C52.0928 30.9519 55.1346 34.8961 55.1346 44.2903ZM39.8285 36.3338V52.1123H44.0753C47.6142 52.1123 48.8892 49.7721 48.8892 44.2903C48.8892 38.7412 47.585 36.3338 43.9753 36.3338H39.8285Z" fill="#121212"></path><defs><linearGradient id="paint0_linear_302_2301" x1="37.4388" y1="38.7206" x2="48.4768" y2="49.7587" gradientUnits="userSpaceOnUse"><stop stop-opacity="0.25"></stop><stop offset="1" stop-opacity="0"></stop></linearGradient><linearGradient id="paint1_linear_302_2301" x1="41.9256" y1="44.2756" x2="62.6577" y2="65.0078" gradientUnits="userSpaceOnUse"><stop stop-opacity="0.25"></stop><stop offset="1" stop-opacity="0"></stop></linearGradient></defs></svg>