<svg xmlns="http://www.w3.org/2000/svg" width="57" height="57" viewBox="0 0 57 57" fill="none"><path d="M56.7245 10.7255L46.2729 0.2755C46.0917 0.100514 45.8502 0.00187557 45.5983 0H21.8448C21.0895 0.00225539 20.3658 0.303247 19.8317 0.837237C19.2976 1.37123 18.9966 2.09483 18.9943 2.85V8.5975C13.8764 8.83735 9.04754 11.039 5.51049 14.7451C1.97343 18.4513 0 23.3772 0 28.5C0 33.6228 1.97343 38.5487 5.51049 42.2549C9.04754 45.961 13.8764 48.1627 18.9943 48.4025V54.15C18.9966 54.9052 19.2976 55.6288 19.8317 56.1628C20.3658 56.6968 21.0895 56.9977 21.8448 57H54.1496C54.9049 56.9977 55.6286 56.6968 56.1626 56.1628C56.6967 55.6288 56.9977 54.9052 57 54.15V11.4C56.9981 11.1481 56.8995 10.9066 56.7245 10.7255ZM46.5484 3.2395L53.76 10.45H47.4986C47.2466 10.45 47.0049 10.3499 46.8267 10.1718C46.6485 9.99359 46.5484 9.75196 46.5484 9.5V3.2395ZM1.89178 28.5C1.89797 23.8795 3.67399 19.4368 6.85486 16.085C10.0357 12.7333 14.3798 10.727 18.9943 10.4785V28.1105L6.54747 40.5555C3.55121 37.2551 1.89148 32.9573 1.89178 28.5ZM7.88717 41.895L20.334 29.45H37.9687C37.7956 32.8541 36.6602 36.1392 34.6944 38.9238C32.7286 41.7085 30.013 43.8784 26.8631 45.1816C23.7131 46.4847 20.258 46.8677 16.8991 46.2859C13.5402 45.7042 10.4152 44.1816 7.88717 41.895ZM55.0997 54.15C55.0997 54.402 54.9996 54.6436 54.8214 54.8218C54.6432 54.9999 54.4016 55.1 54.1496 55.1H21.8448C21.5928 55.1 21.3511 54.9999 21.1729 54.8218C20.9947 54.6436 20.8946 54.402 20.8946 54.15V48.4025C26.0108 48.1554 30.8362 45.9518 34.3731 42.2474C37.91 38.5431 39.8878 33.6213 39.8974 28.5C39.8974 28.248 39.7973 28.0064 39.6192 27.8282C39.441 27.6501 39.1993 27.55 38.9473 27.55H20.8946V2.85C20.8946 2.59804 20.9947 2.35641 21.1729 2.17825C21.3511 2.00009 21.5928 1.9 21.8448 1.9H44.6482V9.5C44.6504 10.2552 44.9515 10.9788 45.4855 11.5128C46.0196 12.0468 46.7433 12.3477 47.4986 12.35H55.0997V54.15Z" fill="#FDFDFD"></path><path d="M23.7441 4.75012C23.4921 4.75012 23.2504 4.85021 23.0722 5.02837C22.894 5.20653 22.7939 5.44817 22.7939 5.70012V24.7001C22.7939 24.9521 22.894 25.1937 23.0722 25.3719C23.2504 25.55 23.4921 25.6501 23.7441 25.6501H42.7469C42.9989 25.6501 43.2406 25.55 43.4188 25.3719C43.597 25.1937 43.6971 24.9521 43.6971 24.7001C43.6913 19.4108 41.5872 14.3398 37.8466 10.5997C34.1059 6.85963 29.0342 4.75591 23.7441 4.75012ZM24.6942 23.7501V6.67862C29.145 6.91757 33.3503 8.79287 36.502 11.9441C39.6537 15.0953 41.5293 19.3 41.7683 23.7501H24.6942Z" fill="#FDFDFD"></path><path d="M44.6489 36.1001C42.9577 36.1001 41.3044 36.6015 39.8981 37.541C38.4919 38.4805 37.3958 39.8158 36.7486 41.3782C36.1014 42.9405 35.932 44.6596 36.262 46.3181C36.5919 47.9767 37.4064 49.5001 38.6023 50.6959C39.7982 51.8916 41.3219 52.7059 42.9807 53.0358C44.6394 53.3657 46.3588 53.1964 47.9214 52.5493C49.4839 51.9021 50.8194 50.8063 51.7591 49.4002C52.6987 47.9942 53.2002 46.3411 53.2002 44.6501C53.1967 42.3836 52.2946 40.2109 50.6917 38.6082C49.0888 37.0055 46.9158 36.1036 44.6489 36.1001ZM44.6489 51.3001C43.3335 51.3001 42.0476 50.9101 40.9538 50.1794C39.8601 49.4487 39.0076 48.4101 38.5042 47.1949C38.0008 45.9798 37.8691 44.6427 38.1257 43.3527C38.3824 42.0628 39.0158 40.8779 39.946 39.9478C40.8761 39.0178 42.0612 38.3845 43.3514 38.1279C44.6416 37.8713 45.9789 38.003 47.1942 38.5063C48.4095 39.0096 49.4482 39.862 50.179 40.9556C50.9099 42.0491 51.2999 43.3349 51.2999 44.6501C51.2979 46.4132 50.5965 48.1035 49.3497 49.3501C48.1028 50.5968 46.4123 51.2981 44.6489 51.3001Z" fill="#FDFDFD"></path><path d="M42.7478 46.1569L40.5691 43.9785L39.2256 45.3218L42.076 48.1718C42.2542 48.3499 42.4958 48.45 42.7478 48.45C42.9997 48.45 43.2413 48.3499 43.4195 48.1718L49.1204 42.4718L47.7769 41.1285L42.7478 46.1569Z" fill="#FDFDFD"></path><path d="M45.5986 16.1498H53.1998V18.0498H45.5986V16.1498Z" fill="#FDFDFD"></path><path d="M45.5986 21.8501H53.1998V23.7501H45.5986V21.8501Z" fill="#FDFDFD"></path><path d="M45.5986 27.5497H53.1998V29.4497H45.5986V27.5497Z" fill="#FDFDFD"></path></svg>