<svg xmlns="http://www.w3.org/2000/svg" width="42" height="42" viewBox="0 0 42 42" fill="none"><path d="M42 23.7471V18.253C42 17.9202 41.7583 17.6367 41.4297 17.5841L38.0689 17.0462C37.6339 15.1589 36.8938 13.3738 35.8641 11.7281L37.8614 8.96947C38.0567 8.69995 38.027 8.32855 37.7918 8.09323L33.9069 4.20839C33.6716 3.97316 33.3002 3.94352 33.0305 4.1387L30.2719 6.13599C28.6257 5.10614 26.8408 4.36615 24.9538 3.93107L24.4159 0.570388C24.3633 0.241755 24.0797 0 23.7469 0H18.2529C17.9201 0 17.6366 0.241754 17.584 0.570304L17.0461 3.93099C15.1589 4.36606 13.3738 5.10606 11.7279 6.13582L8.96937 4.13862C8.69993 3.94344 8.32845 3.97307 8.09304 4.20831L4.20813 8.09315C3.9729 8.32846 3.94326 8.69986 4.13852 8.96947L6.13581 11.728C5.10563 13.3748 4.36563 15.1596 3.9309 17.0461L0.570218 17.5841C0.241669 17.6367 0 17.9202 0 18.253V23.7471C0 24.0799 0.241669 24.3634 0.570302 24.4159L3.93098 24.9539C4.36605 26.841 5.10613 28.6261 6.1359 30.272L4.13861 33.0306C3.94334 33.3001 3.97298 33.6715 4.20821 33.9069L8.09313 37.7917C8.32862 38.0271 8.70001 38.0564 8.96946 37.8614L11.728 35.8641C13.3748 36.8943 15.1598 37.6344 17.0462 38.069L17.5841 41.4297C17.6367 41.7582 17.9203 42 18.253 42H23.747C24.0798 42 24.3633 41.7582 24.4159 41.4297L24.8986 38.4148C26.663 40.5998 29.3622 42 32.3828 42C37.6858 42.0001 42 37.6858 42 32.3829C42 29.3623 40.5997 26.6629 38.4147 24.8985L41.4296 24.4159C41.7583 24.3634 42 24.0799 42 23.7471ZM33.1007 22.7926C32.8636 22.775 32.6243 22.7658 32.3828 22.7658C30.9286 22.7658 29.5491 23.0909 28.3121 23.6712V22.6C28.3121 20.9994 27.1001 19.7808 24.9865 19.2565C24.25 19.0739 23.5142 18.943 22.7806 18.8603C23.9025 18.0729 24.6631 16.5668 24.6631 14.841C24.6631 12.5068 23.2595 11.0567 21.0001 11.0567C18.7406 11.0567 17.3369 12.5068 17.3369 14.841C17.3369 16.5631 18.0944 18.0663 19.2123 18.8551C18.4721 18.9376 17.7367 19.0705 17.008 19.2579C14.867 19.8082 13.6879 20.9951 13.6879 22.6V28.6271C13.6879 29.0012 13.9912 29.3045 14.3653 29.3045H23.271C22.9435 30.2715 22.7658 31.3068 22.7658 32.3829C22.7658 32.6243 22.7749 32.8637 22.7925 33.1007C22.2 33.1878 21.5994 33.2319 21 33.2319C14.2554 33.2319 8.76818 27.7447 8.76818 21C8.76818 14.2552 14.2554 8.76811 21 8.76811C27.7446 8.76811 33.2318 14.2554 33.2318 21C33.2318 21.5995 33.1877 22.2 33.1007 22.7926ZM24.6198 23.3081C24.2457 23.3081 23.9424 23.6114 23.9424 23.9855V27.7772C23.9111 27.8343 23.8806 27.8919 23.8505 27.9496H18.0575V23.9855C18.0575 23.6114 17.7541 23.3081 17.38 23.3081C17.0059 23.3081 16.7026 23.6114 16.7026 23.9855V27.9496H15.0426V22.5999C15.0426 21.4113 16.2947 20.84 17.3452 20.57C19.7268 19.9575 22.1878 19.958 24.6603 20.5714C25.5181 20.7842 26.9572 21.3306 26.9572 22.5999V24.4467C26.3503 24.8629 25.7932 25.3467 25.2972 25.8875V23.9854C25.2972 23.6114 24.9939 23.3081 24.6198 23.3081ZM21 18.0876C19.7272 18.0876 18.6917 16.6311 18.6917 14.8409C18.6917 12.727 20.1379 12.4114 21 12.4114C21.8621 12.4114 23.3082 12.7271 23.3082 14.8409C23.3082 16.6312 22.2727 18.0876 21 18.0876ZM40.6452 32.3829C40.6452 36.9388 36.9387 40.6452 32.3828 40.6452C27.827 40.6452 24.1206 36.9388 24.1206 32.3829C24.1206 27.827 27.827 24.1207 32.3828 24.1207C36.9387 24.1207 40.6452 27.8271 40.6452 32.3829ZM40.6452 23.1695L37.3977 23.6892C37.2277 23.7165 37.0793 23.8069 36.9763 23.9356C36.1909 23.5068 35.3392 23.1849 34.4412 22.9884C34.5377 22.331 34.5867 21.6648 34.5867 21C34.5867 13.5083 28.4917 7.41335 20.9999 7.41335C13.5082 7.41335 7.41325 13.5084 7.41325 21C7.41325 28.4917 13.5082 34.5868 20.9999 34.5868C21.6648 34.5868 22.3309 34.5379 22.9882 34.4413C23.1848 35.3393 23.5068 36.191 23.9356 36.9765C23.8068 37.0795 23.7165 37.2278 23.6892 37.3979L23.1693 40.6452H18.8306L18.3107 37.3979C18.2661 37.1189 18.0531 36.897 17.7762 36.841C15.7376 36.4285 13.821 35.6339 12.08 34.4794C11.8448 34.3235 11.5373 34.3297 11.3084 34.4954L8.64277 36.4254L5.57482 33.3574L7.50479 30.6916C7.67042 30.4628 7.67677 30.1554 7.52071 29.92C6.36673 28.1802 5.57211 26.2637 5.15914 24.2238C5.10309 23.9469 4.88115 23.7339 4.6023 23.6893L1.35484 23.1695V18.8306L4.60222 18.3108C4.88115 18.2661 5.10309 18.0531 5.15906 17.7763C5.57169 15.7375 6.36622 13.8211 7.52063 12.0801C7.67677 11.8448 7.67042 11.5372 7.50471 11.3084L5.57474 8.64287L8.64269 5.57483L11.3083 7.50481C11.537 7.67043 11.8447 7.6767 12.08 7.52064C13.8198 6.36674 15.7363 5.57212 17.7762 5.15907C18.0531 5.10301 18.266 4.88107 18.3107 4.60223L18.8306 1.35484H23.1693L23.6892 4.60223C23.7338 4.88107 23.9469 5.10301 24.2237 5.15907C26.2631 5.57204 28.1796 6.36665 29.9199 7.52064C30.1552 7.67662 30.4626 7.67043 30.6915 7.50472L33.3571 5.57475L36.4252 8.64279L34.4952 11.3084C34.3296 11.5372 34.3232 11.8447 34.4793 12.0801C35.6332 13.8197 36.4277 15.7362 36.8409 17.7763C36.8969 18.0531 37.1189 18.2661 37.3977 18.3108L40.6452 18.8306V23.1695ZM35.1101 28.6538L31.0623 32.7605L29.6558 31.354C29.2794 30.9776 28.779 30.7702 28.2466 30.7702C27.7142 30.7702 27.2138 30.9775 26.8374 31.3539C26.4609 31.7303 26.2536 32.2308 26.2536 32.7631C26.2536 33.2955 26.4608 33.7959 26.8373 34.1723L29.6586 36.9936C30.0472 37.3821 30.5575 37.5764 31.0678 37.5763C31.5782 37.5763 32.0886 37.382 32.4771 36.9935C33.9159 35.5546 36.8534 32.5477 37.9333 31.457C38.308 31.0802 38.5135 30.5802 38.5121 30.0489C38.5105 29.5175 38.3022 29.0185 37.9255 28.6439C37.1478 27.8704 35.8857 27.8739 35.1101 28.6538ZM36.9715 30.5029C35.8873 31.5979 32.9523 34.6024 31.519 36.0356C31.2702 36.2844 30.8653 36.2844 30.6166 36.0356L27.7954 33.2144H27.7954C27.6749 33.0939 27.6085 32.9337 27.6085 32.7632C27.6085 32.5928 27.6749 32.4325 27.7954 32.312C27.9159 32.1915 28.0761 32.1252 28.2466 32.1252C28.4171 32.1252 28.5772 32.1915 28.6978 32.312L30.5868 34.201C30.7139 34.328 30.8862 34.3994 31.0658 34.3994H31.0682C31.2488 34.3987 31.4215 34.3261 31.5482 34.1976L36.0728 29.6072C36.3194 29.3591 36.722 29.3581 36.9702 29.6047C37.0903 29.7242 37.1567 29.8833 37.1572 30.0528C37.1576 30.2221 37.0921 30.3816 36.9715 30.5029Z" fill="#FDFDFD"></path></svg>