<svg xmlns="http://www.w3.org/2000/svg" width="36" height="42" viewBox="0 0 36 42" fill="none"><path d="M18.0006 4.10338C18.1598 4.10328 18.3124 4.03812 18.425 3.92219C18.5375 3.80627 18.6008 3.64907 18.6009 3.48513V0.618245C18.6009 0.454276 18.5377 0.297023 18.4251 0.181079C18.3125 0.0651362 18.1598 0 18.0006 0C17.8415 0 17.6888 0.0651362 17.5762 0.181079C17.4636 0.297023 17.4004 0.454276 17.4004 0.618245V3.48513C17.4005 3.64907 17.4638 3.80627 17.5763 3.92219C17.6889 4.03812 17.8415 4.10328 18.0006 4.10338Z" fill="#FDFDFD"></path><path d="M35.4 17.9214H32.6169C32.4577 17.9214 32.305 17.9865 32.1924 18.1025C32.0798 18.2184 32.0166 18.3757 32.0166 18.5396C32.0166 18.7036 32.0798 18.8609 32.1924 18.9768C32.305 19.0927 32.4577 19.1579 32.6169 19.1579H35.4C35.5592 19.1579 35.7119 19.0927 35.8244 18.9768C35.937 18.8609 36.0003 18.7036 36.0003 18.5396C36.0003 18.3757 35.937 18.2184 35.8244 18.1025C35.7119 17.9865 35.5592 17.9214 35.4 17.9214Z" fill="#FDFDFD"></path><path d="M3.38374 17.9214H0.600258C0.44106 17.9214 0.288382 17.9865 0.175811 18.1025C0.0632412 18.2184 0 18.3757 0 18.5396C0 18.7036 0.0632412 18.8609 0.175811 18.9768C0.288382 19.0927 0.44106 19.1579 0.600258 19.1579H3.38374C3.54294 19.1579 3.69562 19.0927 3.80819 18.9768C3.92076 18.8609 3.984 18.7036 3.984 18.5396C3.984 18.3757 3.92076 18.2184 3.80819 18.1025C3.69562 17.9865 3.54294 17.9214 3.38374 17.9214Z" fill="#FDFDFD"></path><path d="M29.8792 5.43053L27.9107 7.45766C27.8534 7.51471 27.8077 7.58294 27.7762 7.65837C27.7448 7.73381 27.7282 7.81493 27.7276 7.89702C27.7269 7.97911 27.7421 8.06052 27.7723 8.1365C27.8025 8.21247 27.8471 8.28149 27.9034 8.33952C27.9598 8.39756 28.0268 8.44345 28.1006 8.47453C28.1744 8.5056 28.2534 8.52122 28.3331 8.52049C28.4128 8.51976 28.4916 8.50269 28.5648 8.47027C28.6381 8.43786 28.7043 8.39074 28.7596 8.33168L30.7278 6.30455C30.8403 6.18865 30.9036 6.03145 30.9036 5.86754C30.9036 5.70363 30.8403 5.54643 30.7278 5.43053C30.6153 5.31463 30.4626 5.24951 30.3035 5.24951C30.1444 5.24951 29.9917 5.31463 29.8792 5.43053Z" fill="#FDFDFD"></path><path d="M7.24037 28.7471L5.27221 30.7743C5.21486 30.8313 5.16912 30.8995 5.13765 30.9749C5.10617 31.0503 5.0896 31.1315 5.08889 31.2136C5.08818 31.2957 5.10335 31.3771 5.13352 31.4531C5.16369 31.529 5.20824 31.5981 5.26459 31.6561C5.32094 31.7142 5.38795 31.7601 5.46172 31.7912C5.53548 31.8223 5.61452 31.838 5.69422 31.8373C5.77392 31.8366 5.85269 31.8195 5.92593 31.7872C5.99917 31.7548 6.06542 31.7077 6.1208 31.6487L8.08725 29.6201C8.19661 29.5035 8.25714 29.3474 8.25581 29.1853C8.25447 29.0232 8.19137 28.8681 8.0801 28.7534C7.96883 28.6388 7.81829 28.5737 7.66091 28.5723C7.50352 28.5708 7.35188 28.6331 7.23865 28.7457L7.24037 28.7471Z" fill="#FDFDFD"></path><path d="M28.7602 28.7473C28.6464 28.6387 28.4961 28.5796 28.341 28.5826C28.1859 28.5856 28.0379 28.6503 27.9281 28.7632C27.8183 28.8762 27.7552 29.0285 27.7521 29.1882C27.7489 29.348 27.806 29.5028 27.9112 29.6202L29.8798 31.6474C29.9351 31.7064 30.0014 31.7535 30.0746 31.7859C30.1479 31.8183 30.2266 31.8353 30.3063 31.836C30.386 31.8367 30.4651 31.821 30.5388 31.7899C30.6126 31.7588 30.6796 31.7129 30.736 31.6548C30.7923 31.5968 30.8369 31.5277 30.867 31.4518C30.8972 31.3758 30.9124 31.2944 30.9117 31.2123C30.911 31.1302 30.8944 31.0491 30.8629 30.9736C30.8314 30.8982 30.7857 30.83 30.7283 30.773L28.7602 28.7473Z" fill="#FDFDFD"></path><path d="M7.24009 8.33155C7.35406 8.43972 7.50424 8.49826 7.65918 8.49493C7.81412 8.49159 7.9618 8.42663 8.07127 8.31364C8.18074 8.20066 8.24352 8.04843 8.24645 7.88884C8.24937 7.72925 8.19222 7.57468 8.08697 7.45753L6.11881 5.43039C6.00464 5.3239 5.85507 5.26673 5.70109 5.2707C5.54711 5.27468 5.40051 5.3395 5.29166 5.45175C5.18282 5.564 5.12006 5.71506 5.11638 5.87366C5.11271 6.03226 5.1684 6.18624 5.27193 6.3037L7.24009 8.33155Z" fill="#FDFDFD"></path><path d="M30.633 18.5393C30.633 18.5323 30.6313 18.5255 30.6313 18.5185C30.6313 18.4906 30.633 18.463 30.6313 18.4351C30.6067 14.992 29.2581 11.6994 26.881 9.27842C24.5039 6.85749 21.292 5.50568 17.949 5.51914C14.6061 5.5326 11.4046 6.91024 9.04589 9.35025C6.68722 11.7903 5.36368 15.0937 5.36524 18.5368V18.5414C5.36728 20.361 5.73915 22.16 6.45691 23.8227C7.17466 25.4853 8.22241 26.9748 9.53274 28.1952C10.2147 28.8318 10.7596 29.6084 11.1325 30.4751C11.5054 31.3417 11.6979 32.2791 11.6978 33.227V37.8197C11.6991 38.1848 11.816 38.5395 12.0309 38.8298C12.2458 39.1201 12.5469 39.3302 12.8884 39.4282L13.6605 41.5945C13.7028 41.7134 13.7796 41.816 13.8804 41.8884C13.9811 41.9609 14.1011 41.9998 14.224 41.9998H21.7756C21.8985 41.9998 22.0185 41.9609 22.1193 41.8884C22.2201 41.816 22.2968 41.7134 22.3392 41.5945L23.1113 39.4282C23.4527 39.3302 23.7538 39.1201 23.9687 38.8298C24.1836 38.5395 24.3006 38.1848 24.3018 37.8197V33.227C24.3079 32.2702 24.5073 31.3252 24.8872 30.452C25.2671 29.5789 25.8194 28.7967 26.5087 28.1553C27.8027 26.9385 28.8372 25.4582 29.5467 23.8081C30.2562 22.1579 30.6252 20.374 30.6303 18.5693C30.6306 18.5591 30.633 18.5496 30.633 18.5393ZM29.416 17.9211H25.8203C25.7415 17.921 25.6634 17.937 25.5906 17.968C25.5177 17.9991 25.4515 18.0446 25.3958 18.1021C25.34 18.1595 25.2958 18.2276 25.2657 18.3027C25.2355 18.3777 25.22 18.4581 25.2201 18.5393V19.5352C25.2147 19.8607 25.0855 20.171 24.8601 20.3992C24.6347 20.6275 24.3313 20.7554 24.0153 20.7554C23.6992 20.7554 23.3958 20.6275 23.1704 20.3992C22.9451 20.171 22.8158 19.8607 22.8105 19.5352V18.5393C22.8105 18.4581 22.795 18.3777 22.7649 18.3027C22.7347 18.2276 22.6905 18.1595 22.6347 18.1021C22.579 18.0446 22.5128 17.9991 22.44 17.968C22.3671 17.937 22.289 17.921 22.2102 17.9211H18.6001V14.8196H18.9667C19.6046 14.8196 20.2164 14.5586 20.6674 14.094C21.1185 13.6295 21.3719 12.9994 21.3719 12.3424C21.3719 11.6854 21.1185 11.0553 20.6674 10.5907C20.2164 10.1262 19.6046 9.86517 18.9667 9.86517H18.6001V6.77996C21.4273 6.91284 24.1042 8.12932 26.1053 10.1906C28.1065 12.2519 29.2873 15.0091 29.416 17.9211ZM17.3996 6.78278V10.4834C17.3996 10.6474 17.4629 10.8046 17.5755 10.9205C17.688 11.0364 17.8406 11.1016 17.9998 11.1017H18.9667C19.2862 11.1017 19.5926 11.2324 19.8185 11.4651C20.0445 11.6977 20.1714 12.0133 20.1714 12.3424C20.1714 12.6715 20.0445 12.987 19.8185 13.2197C19.5926 13.4524 19.2862 13.5831 18.9667 13.5831H17.9998C17.8406 13.5832 17.688 13.6484 17.5755 13.7643C17.4629 13.8802 17.3996 14.0374 17.3996 14.2014V17.9211H14.3887V17.5434C14.3811 16.8915 14.1244 16.2689 13.6741 15.8107C13.2238 15.3524 12.6163 15.0954 11.9833 15.0954C11.3503 15.0954 10.7429 15.3524 10.2926 15.8107C9.84232 16.2689 9.58558 16.8915 9.57802 17.5434V17.9211H6.58325C6.74284 15.0202 7.9337 12.2813 9.92865 10.227C11.9236 8.17263 14.583 6.9466 17.3996 6.78278ZM10.3378 27.2778C8.09438 25.1878 6.74459 22.2687 6.5829 19.1576H10.1793C10.3385 19.1576 10.4912 19.0924 10.6038 18.9765C10.7163 18.8605 10.7796 18.7033 10.7796 18.5393V17.5434C10.7849 17.2179 10.9142 16.9076 11.1395 16.6794C11.3649 16.4512 11.6683 16.3233 11.9844 16.3233C12.3004 16.3233 12.6038 16.4512 12.8292 16.6794C13.0546 16.9076 13.1838 17.2179 13.1892 17.5434V18.5393C13.1892 18.7033 13.2524 18.8605 13.365 18.9765C13.4776 19.0924 13.6302 19.1576 13.7894 19.1576H17.3996V22.2587H17.0329C16.395 22.2587 15.7832 22.5197 15.3322 22.9842C14.8811 23.4488 14.6277 24.0789 14.6277 24.7359C14.6277 25.3929 14.8811 26.023 15.3322 26.4876C15.7832 26.9521 16.395 27.2131 17.0329 27.2131H17.3996V32.943H12.8911C12.8547 31.8709 12.61 30.8171 12.1714 29.8441C11.7329 28.871 11.1094 27.9984 10.3378 27.2778ZM23.1013 35.6022H12.8983V34.1795H23.1013V35.6022ZM22.6726 38.2617H13.3271C13.2134 38.2616 13.1044 38.215 13.024 38.1322C12.9436 38.0494 12.8984 37.9372 12.8983 37.8201V36.8387H23.1013V37.8201C23.1012 37.9372 23.056 38.0494 22.9756 38.1322C22.8953 38.215 22.7863 38.2616 22.6726 38.2617ZM21.3568 40.7636H14.6428L14.1925 39.4982H21.8072L21.3568 40.7636ZM25.6999 27.2424C24.9225 27.9681 24.293 28.8458 23.8481 29.8245C23.4032 30.8032 23.1518 31.8633 23.1085 32.943H18.6001V26.5949C18.6 26.4309 18.5367 26.2737 18.4242 26.1578C18.3116 26.0419 18.159 25.9767 17.9998 25.9766H17.0329C16.7134 25.9766 16.407 25.8459 16.1811 25.6132C15.9552 25.3805 15.8283 25.065 15.8283 24.7359C15.8283 24.4068 15.9552 24.0913 16.1811 23.8586C16.407 23.6259 16.7134 23.4952 17.0329 23.4952H17.9998C18.159 23.4951 18.3116 23.4299 18.4242 23.314C18.5367 23.1981 18.6 23.0409 18.6001 22.8769V19.1576H21.611V19.5352C21.6185 20.1871 21.8753 20.8097 22.3255 21.268C22.7758 21.7262 23.3833 21.9832 24.0163 21.9832C24.6493 21.9832 25.2568 21.7262 25.707 21.268C26.1573 20.8097 26.4141 20.1871 26.4216 19.5352V19.1576H29.4147C29.2548 22.2503 27.9205 25.1542 25.6999 27.2424Z" fill="#FDFDFD"></path></svg>