<svg xmlns="http://www.w3.org/2000/svg" width="42" height="42" viewBox="0 0 42 42" fill="none"><path d="M41.8278 26.201L36.6889 15.4728C37.2571 12.5371 36.9689 4.8029 37.0347 1.71752C37.043 1.33496 36.6724 1.01062 36.2935 1.06884L32.8428 1.5595C29.3098 2.0668 25.6614 1.68425 22.2519 0.420158C21.8484 0.303728 21.0824 -0.128724 20.7695 0.0376038C17.0717 1.54287 13.0775 2.14165 9.13264 1.5595L5.69017 1.06884C5.31133 1.01062 4.94073 1.32665 4.94897 1.71752C5.03132 4.6532 4.75131 12.3875 5.27015 15.1818L0.172335 25.8351C-0.247679 26.6667 0.131157 27.7728 0.971186 28.1637L3.82893 29.5608C4.66072 29.9849 5.74782 29.6024 6.13489 28.7541L6.43137 28.1387L7.57611 28.6543C7.97142 28.829 8.23496 29.2032 8.27614 29.6357L8.37496 30.6752L7.49376 32.2137C6.48078 33.8604 7.86436 36.189 9.77501 36.0393C9.19852 38.2598 11.7845 40.0727 13.6375 38.7504C14.1399 39.9646 15.647 40.5967 16.8494 40.0894C17.3435 42.2683 20.3989 42.7173 21.486 40.738L22.1201 39.632L23.9402 40.6965C25.4226 41.6196 27.5144 40.3971 27.4403 38.6257C28.9227 38.9583 30.4298 37.4946 30.2239 35.9811C31.6404 36.0226 32.8511 34.4758 32.464 33.087C33.9464 32.8874 34.8606 31.0993 34.1935 29.777L35.8324 29.0535C36.203 29.935 37.3148 30.3592 38.163 29.9184L41.0208 28.5213C41.869 28.1387 42.2479 27.0326 41.8278 26.201ZM6.25842 2.47431L8.95969 2.85686C13.0281 3.44733 17.1623 2.88181 20.9919 1.35159C24.8214 2.89013 28.9886 3.44733 33.024 2.85686L35.7335 2.47431C35.7006 4.37045 35.8324 11.8053 35.6182 13.5601C35.157 13.1526 34.4982 13.0195 33.9135 13.2108C34.0699 11.7388 33.9876 6.79052 34.0041 5.23535C34.0123 4.8528 33.6417 4.52846 33.2629 4.58667C29.1945 5.1605 25.0849 4.71973 21.2142 3.28931C21.0742 3.23942 20.9177 3.23942 20.7695 3.28931C16.9235 4.7031 12.7892 5.1605 8.72909 4.57836C8.35026 4.51182 7.97966 4.83616 7.98789 5.22704C8.00436 6.55766 7.94671 11.5808 8.05378 12.8282C7.46905 12.6369 6.80197 12.795 6.34901 13.2108C6.1843 11.772 6.29136 4.07106 6.25842 2.47431ZM30.7098 18.3586C30.191 18.6497 29.598 18.9574 28.9968 18.7744L25.6202 17.8929C24.039 17.4605 22.499 18.0093 21.2472 18.9907C20.5471 18.6663 19.2047 17.8596 18.4388 17.7765C17.5659 17.527 14.7411 18.2422 13.761 18.3586C13.5222 18.4002 13.2751 18.3669 13.0528 18.2588L11.5374 17.502L11.8751 16.7951C12.3774 15.9136 12.0563 14.7659 11.1421 14.3252L9.42088 13.4852C9.20676 11.8469 9.31382 7.68037 9.28911 5.98383C13.2422 6.43291 17.2529 5.95888 21.0083 4.6033C24.7802 5.95888 28.758 6.4246 32.7275 5.98383C32.7028 7.92155 32.8264 11.9966 32.5628 13.8761L30.8828 14.6994C30.4628 14.899 30.1498 15.2566 30.0016 15.6974C29.6145 16.529 30.3886 17.6185 30.7098 18.3586ZM5.96194 26.1178L4.97367 28.1803C4.87485 28.3882 4.60307 28.488 4.39718 28.3799L1.53944 26.9827C1.33355 26.8829 1.23472 26.6085 1.34179 26.4006C1.70415 25.6355 6.9255 14.7493 7.13139 14.3002C7.23845 14.0923 7.50199 13.9925 7.71612 14.0923L10.5739 15.4895C10.7797 15.5976 10.8786 15.8554 10.7715 16.0716C10.4091 16.8118 6.42313 25.1531 5.96194 26.1178ZM9.06675 34.5673C8.49026 34.2513 8.27614 33.4362 8.61379 32.8707C8.61379 32.8707 9.64324 31.0744 9.64324 31.0661L10.4256 29.7022C10.5986 29.4111 10.8868 29.1866 11.2162 29.1117C12.221 28.8373 13.1022 30.0515 12.5586 30.9413C12.4022 31.2158 12.081 31.773 11.9245 32.0474L10.7386 34.1265C10.4009 34.7087 9.65148 34.9082 9.06675 34.5673ZM13.7528 36.4385C13.6704 36.6131 13.3904 37.0871 13.2998 37.2618C12.4433 38.6673 10.3927 37.4614 11.1586 36.0143C11.8504 34.875 12.8633 32.8957 13.621 31.7979C14.4775 30.9413 15.9434 31.7563 15.6881 32.9373C15.6223 33.2616 15.1693 33.902 15.0293 34.193C15.0293 34.2014 13.7528 36.4385 13.7528 36.4385ZM17.0141 38.3346C16.2317 39.6403 14.2716 38.6839 14.7987 37.2535C14.7987 37.2452 16.1658 34.8584 16.174 34.8584C16.3552 34.5922 16.7176 33.7606 16.9811 33.5859C17.7553 32.9123 19.0153 33.5194 18.9988 34.5423C19.0153 34.8999 18.793 35.2409 18.62 35.532C18.2576 36.164 17.3764 37.7026 17.0141 38.3346ZM22.1778 36.9208L20.366 40.0894C19.7648 41.1788 18.0435 40.7214 18.0682 39.4656C18.0682 39.2411 18.1259 39.0332 18.2329 38.8419C18.2659 38.8086 20.2342 35.2659 20.2342 35.4322C21.2389 34.4093 22.8778 35.6567 22.1778 36.9208ZM25.9991 39.1912C25.7108 39.6902 25.0767 39.8648 24.5826 39.5737L22.7625 38.5092C23.059 37.9687 23.5861 37.2202 23.6108 36.5798C23.6519 36.6048 24.8132 37.2618 24.8049 37.2784L25.6202 37.7441C26.1144 38.0435 26.2873 38.6839 25.9991 39.1912ZM32.9746 31.2906C32.9746 31.2989 32.9746 31.2989 32.9746 31.2906C32.7028 31.7813 32.0358 31.9726 31.5581 31.6732C30.4957 31.091 27.0121 28.9953 25.925 28.3217C25.192 27.8892 24.5332 28.987 25.2579 29.4444C25.2661 29.4527 29.4168 31.9726 29.4251 31.9726L30.7098 32.721C31.871 33.4279 30.8663 35.1993 29.6721 34.534C29.491 34.4675 24.3108 31.1825 23.9896 30.9829C23.2649 30.5421 22.5896 31.6233 23.3061 32.0973L28.4039 35.3074C29.6227 36.0143 28.5439 37.9022 27.3332 37.2202L25.4638 36.1308C25.4555 36.1391 23.166 34.8085 23.1578 34.8085C22.5319 33.877 21.2472 33.4945 20.2095 33.9103C19.8801 32.5048 18.2988 31.6399 16.9564 32.1223C16.6847 30.8166 15.3258 29.9101 14.0246 30.1762C13.8516 27.7645 10.8209 26.8912 9.42088 28.8622C9.19028 28.2385 8.72086 27.7229 8.10319 27.4484L6.99962 26.9578C7.93848 24.9951 10.0138 20.6706 10.9692 18.6746C11.8092 19.0655 13.0034 19.8972 13.9751 19.6477L17.3435 19.0655C17.887 18.974 18.4388 19.0489 18.933 19.2984L20.0036 19.8306L15.1528 23.1156C14.6834 23.4316 14.4034 23.9472 14.3787 24.5211C14.354 25.0949 14.5928 25.6188 15.0293 25.9764L15.6305 26.4671C16.4458 27.1241 17.5247 27.3486 18.5294 27.0742L24.1543 25.519C24.5743 25.4026 25.019 25.4608 25.4061 25.6771L32.5711 29.7604C32.6122 29.8436 32.6699 29.9101 32.7358 29.9766C33.1228 30.2926 33.2217 30.8582 32.9746 31.2906ZM33.3782 28.7125L26.0485 24.5294C25.612 24.2882 25.1261 24.1468 24.632 24.1385C24.2531 24.0055 18.6941 25.702 18.1918 25.8018C17.5906 25.9681 16.9317 25.8267 16.4458 25.4359L15.8446 24.9452C15.6058 24.7622 15.6223 24.3547 15.8776 24.1967C16.5694 23.7227 22.1119 19.9803 22.639 19.6144C23.4131 19.0905 24.3849 18.9241 25.2908 19.157L28.6674 20.0385C29.5651 20.2963 30.4792 19.997 31.2616 19.5312L35.2559 27.8726L33.3782 28.7125ZM40.6831 27.0992C40.6419 27.2073 40.5678 27.2987 40.4607 27.3486L37.603 28.7458C37.0595 28.987 36.9194 28.2551 36.73 27.9225C36.6312 27.7146 31.5416 17.0862 31.2369 16.4375C31.1298 16.2296 31.2287 15.9552 31.4428 15.8554L34.2923 14.4582C34.457 14.3834 34.6547 14.4167 34.7864 14.5331C34.8523 14.5414 35.4041 15.7889 35.4535 15.8637L40.6666 26.7665C40.7078 26.8746 40.716 26.991 40.6831 27.0992Z" fill="#FDFDFD"></path></svg>