<svg xmlns="http://www.w3.org/2000/svg" width="14" height="10" viewBox="0 0 14 10" fill="none"><path d="M9.27462 0.376842L13.506 4.60819C13.593 4.69525 13.6366 4.80843 13.6366 4.94774C13.6366 5.08704 13.593 5.20023 13.506 5.28729L9.27462 9.51863C9.18756 9.6057 9.07437 9.64923 8.93507 9.64923C8.79577 9.64923 8.68258 9.60135 8.59552 9.50557C8.50845 9.4098 8.46492 9.29662 8.46492 9.16602C8.46492 9.03542 8.50845 8.92659 8.59552 8.83953L12.0172 5.41789H0.733577C0.646512 5.41789 0.568154 5.39612 0.498502 5.35259C0.428851 5.30906 0.372259 5.25246 0.328726 5.18281C0.285194 5.11316 0.263428 5.0348 0.263428 4.94774C0.263428 4.80843 0.311313 4.69525 0.407084 4.60819C0.502856 4.52112 0.611686 4.47759 0.733577 4.47759H12.0172L8.59552 1.05595C8.50845 0.968883 8.46492 0.860052 8.46492 0.729455C8.46492 0.598858 8.50845 0.485674 8.59552 0.389902C8.68258 0.294131 8.79577 0.246245 8.93507 0.246245C9.07437 0.246245 9.18756 0.289778 9.27462 0.376842Z" fill="#00C3FF"></path></svg>