<svg xmlns="http://www.w3.org/2000/svg" width="77" height="77" viewBox="0 0 77 77" fill="none"><path d="M28.875 15.6682H26.4688C25.8046 15.6682 25.2656 15.128 25.2656 14.4651H22.8594C22.8594 16.4551 24.4788 18.0745 26.4688 18.0745H28.875C30.865 18.0745 32.4844 16.4551 32.4844 14.4651C32.4844 12.4751 30.865 10.8557 28.875 10.8557H26.4688C25.8046 10.8557 25.2656 10.3155 25.2656 9.65259C25.2656 8.98967 25.8046 8.44946 26.4688 8.44946H28.875C29.5391 8.44946 30.0781 8.98967 30.0781 9.65259H32.4844C32.4844 7.66262 30.865 6.04321 28.875 6.04321H26.4688C24.4788 6.04321 22.8594 7.66262 22.8594 9.65259C22.8594 11.6426 24.4788 13.262 26.4688 13.262H28.875C29.5391 13.262 30.0781 13.8022 30.0781 14.4651C30.0781 15.128 29.5391 15.6682 28.875 15.6682Z" fill="url(#paint0_linear_1_1881)"></path><path d="M38.5 18.0745H42.1094V15.6682H38.5C37.8359 15.6682 37.2969 15.128 37.2969 14.4651V13.262H42.1094V10.8557H37.2969V9.65259C37.2969 8.98967 37.8359 8.44946 38.5 8.44946H42.1094V6.04321H38.5C36.51 6.04321 34.8906 7.66262 34.8906 9.65259V14.4651C34.8906 16.4551 36.51 18.0745 38.5 18.0745Z" fill="url(#paint1_linear_1_1881)"></path><path d="M48.125 18.0745H50.5312C52.5212 18.0745 54.1406 16.4551 54.1406 14.4651V9.65259C54.1406 7.66262 52.5212 6.04321 50.5312 6.04321H48.125C46.135 6.04321 44.5156 7.66262 44.5156 9.65259V14.4651C44.5156 16.4551 46.135 18.0745 48.125 18.0745ZM46.9219 9.65259C46.9219 8.98967 47.4609 8.44946 48.125 8.44946H50.5312C51.1954 8.44946 51.7344 8.98967 51.7344 9.65259V14.4651C51.7344 15.128 51.1954 15.6682 50.5312 15.6682H48.125C47.4609 15.6682 46.9219 15.128 46.9219 14.4651V9.65259Z" fill="url(#paint2_linear_1_1881)"></path><path d="M75.7969 27.6718H70.9844V24.0624C70.9844 20.7454 68.2858 18.0468 64.9688 18.0468H58.9531V4.84009C58.9531 2.85012 57.3337 1.23071 55.3438 1.23071H21.6562C19.6663 1.23071 18.0469 2.85012 18.0469 4.84009V18.0468H12.0312C8.71423 18.0468 6.01562 20.7454 6.01562 24.0624V31.3798C3.14377 33.0474 1.20312 36.1502 1.20312 39.703C1.20312 43.2559 3.14377 46.3587 6.01562 48.0263V57.7499C6.01562 61.0669 8.71423 63.7655 12.0312 63.7655H26.4688V68.578H25.2656C21.9486 68.578 19.25 71.2766 19.25 74.5937V75.7968H57.75V74.5937C57.75 71.2766 55.0514 68.578 51.7344 68.578H50.5312V63.7655H64.9688C68.2858 63.7655 70.9844 61.0669 70.9844 57.7499V49.328H75.7969V27.6718ZM20.4531 4.84009C20.4531 4.17717 20.9921 3.63696 21.6562 3.63696H55.3438C56.0079 3.63696 56.5469 4.17717 56.5469 4.84009V19.2776C56.5469 19.9405 56.0079 20.4807 55.3438 20.4807H42.9492L35.8928 25.1585C35.4922 25.428 34.8906 25.1031 34.8906 24.6195V20.4807H21.6562C20.9921 20.4807 20.4531 19.9405 20.4531 19.2776V4.84009ZM8.42188 24.0624C8.42188 22.0724 10.0413 20.453 12.0312 20.453H18.2598C18.7507 21.8643 20.079 22.887 21.6562 22.887H32.4844V24.6195C32.4844 26.3026 33.8535 27.6718 35.5367 27.6718C36.1383 27.6718 36.7206 27.4961 37.2223 27.1641L43.6746 22.887H55.3438C56.9198 22.887 58.2493 21.8643 58.7402 20.453H64.9688C66.9587 20.453 68.5781 22.0724 68.5781 24.0624V27.6718H58.9531V38.4999H51.7344V32.4843H44.5156V46.9218H42.1094V30.078H34.8906V46.9218H32.4844V34.8905H25.2656V38.4999H20.3701C19.7746 33.7596 15.7273 30.078 10.8281 30.078C9.99556 30.078 9.19308 30.1947 8.42188 30.3945V24.0624ZM46.9219 46.9218V34.8905H49.3281V46.9218H46.9219ZM39.7031 46.9218H37.2969V32.4843H39.7031V46.9218ZM30.0781 46.9218H27.6719V37.2968H30.0781V46.9218ZM3.60938 39.703C3.60938 35.7219 6.84698 32.4843 10.8281 32.4843C14.8093 32.4843 18.0469 35.7219 18.0469 39.703C18.0469 43.6842 14.8093 46.9218 10.8281 46.9218C6.84698 46.9218 3.60938 43.6842 3.60938 39.703ZM55.138 73.3905H21.862C22.3589 71.9901 23.6968 70.9843 25.2656 70.9843H51.7344C53.3032 70.9843 54.6411 71.9901 55.138 73.3905ZM48.125 68.578H28.875V63.7655H48.125V68.578ZM64.9688 61.3593H12.0312C10.0413 61.3593 8.42188 59.7399 8.42188 57.7499V54.1405H68.5781V57.7499C68.5781 59.7399 66.9587 61.3593 64.9688 61.3593ZM68.5781 51.7343H8.42188V49.0116C9.19308 49.2113 9.99556 49.328 10.8281 49.328C15.7273 49.328 19.7746 45.6465 20.3701 40.9062H25.2656V46.9218H22.8594V49.328H54.1406V46.9218H51.7344V40.9062H58.9531V49.328H68.5781V51.7343ZM73.3906 46.9218H61.3594V30.078H73.3906V46.9218Z" fill="url(#paint3_linear_1_1881)"></path><path d="M33.6875 58.9531C34.352 58.9531 34.8906 58.4145 34.8906 57.75C34.8906 57.0855 34.352 56.5469 33.6875 56.5469C33.023 56.5469 32.4844 57.0855 32.4844 57.75C32.4844 58.4145 33.023 58.9531 33.6875 58.9531Z" fill="url(#paint4_linear_1_1881)"></path><path d="M38.5 58.9531C39.1645 58.9531 39.7031 58.4145 39.7031 57.75C39.7031 57.0855 39.1645 56.5469 38.5 56.5469C37.8355 56.5469 37.2969 57.0855 37.2969 57.75C37.2969 58.4145 37.8355 58.9531 38.5 58.9531Z" fill="url(#paint5_linear_1_1881)"></path><path d="M43.3125 58.9531C43.977 58.9531 44.5156 58.4145 44.5156 57.75C44.5156 57.0855 43.977 56.5469 43.3125 56.5469C42.648 56.5469 42.1094 57.0855 42.1094 57.75C42.1094 58.4145 42.648 58.9531 43.3125 58.9531Z" fill="url(#paint6_linear_1_1881)"></path><path d="M15.6406 39.7031C15.6406 37.049 13.4822 34.8906 10.8281 34.8906C8.17403 34.8906 6.01562 37.049 6.01562 39.7031C6.01562 42.3572 8.17403 44.5156 10.8281 44.5156C13.4822 44.5156 15.6406 42.3572 15.6406 39.7031ZM8.42188 39.7031C8.42188 38.3761 9.50108 37.2969 10.8281 37.2969C12.1552 37.2969 13.2344 38.3761 13.2344 39.7031C13.2344 41.0302 12.1552 42.1094 10.8281 42.1094C9.50108 42.1094 8.42188 41.0302 8.42188 39.7031Z" fill="url(#paint7_linear_1_1881)"></path><path d="M63.7656 32.4844H70.9844V34.8906H63.7656V32.4844Z" fill="url(#paint8_linear_1_1881)"></path><path d="M63.7656 37.2969H70.9844V39.7031H63.7656V37.2969Z" fill="url(#paint9_linear_1_1881)"></path><path d="M63.7656 42.1094H70.9844V44.5156H63.7656V42.1094Z" fill="url(#paint10_linear_1_1881)"></path><defs><linearGradient id="paint0_linear_1_1881" x1="22.8594" y1="12.0588" x2="32.4844" y2="12.0588" gradientUnits="userSpaceOnUse"><stop stop-color="#FF403E"></stop><stop offset="1" stop-color="#FF811B"></stop></linearGradient><linearGradient id="paint1_linear_1_1881" x1="34.8906" y1="12.0588" x2="42.1094" y2="12.0588" gradientUnits="userSpaceOnUse"><stop stop-color="#FF403E"></stop><stop offset="1" stop-color="#FF811B"></stop></linearGradient><linearGradient id="paint2_linear_1_1881" x1="44.5156" y1="12.0588" x2="54.1406" y2="12.0588" gradientUnits="userSpaceOnUse"><stop stop-color="#FF403E"></stop><stop offset="1" stop-color="#FF811B"></stop></linearGradient><linearGradient id="paint3_linear_1_1881" x1="1.20312" y1="38.5138" x2="75.7969" y2="38.5138" gradientUnits="userSpaceOnUse"><stop stop-color="#FF403E"></stop><stop offset="1" stop-color="#FF811B"></stop></linearGradient><linearGradient id="paint4_linear_1_1881" x1="32.4844" y1="57.75" x2="34.8906" y2="57.75" gradientUnits="userSpaceOnUse"><stop stop-color="#FF403E"></stop><stop offset="1" stop-color="#FF811B"></stop></linearGradient><linearGradient id="paint5_linear_1_1881" x1="37.2969" y1="57.75" x2="39.7031" y2="57.75" gradientUnits="userSpaceOnUse"><stop stop-color="#FF403E"></stop><stop offset="1" stop-color="#FF811B"></stop></linearGradient><linearGradient id="paint6_linear_1_1881" x1="42.1094" y1="57.75" x2="44.5156" y2="57.75" gradientUnits="userSpaceOnUse"><stop stop-color="#FF403E"></stop><stop offset="1" stop-color="#FF811B"></stop></linearGradient><linearGradient id="paint7_linear_1_1881" x1="6.01562" y1="39.7031" x2="15.6406" y2="39.7031" gradientUnits="userSpaceOnUse"><stop stop-color="#FF403E"></stop><stop offset="1" stop-color="#FF811B"></stop></linearGradient><linearGradient id="paint8_linear_1_1881" x1="63.7656" y1="33.6875" x2="70.9844" y2="33.6875" gradientUnits="userSpaceOnUse"><stop stop-color="#FF403E"></stop><stop offset="1" stop-color="#FF811B"></stop></linearGradient><linearGradient id="paint9_linear_1_1881" x1="63.7656" y1="38.5" x2="70.9844" y2="38.5" gradientUnits="userSpaceOnUse"><stop stop-color="#FF403E"></stop><stop offset="1" stop-color="#FF811B"></stop></linearGradient><linearGradient id="paint10_linear_1_1881" x1="63.7656" y1="43.3125" x2="70.9844" y2="43.3125" gradientUnits="userSpaceOnUse"><stop stop-color="#FF403E"></stop><stop offset="1" stop-color="#FF811B"></stop></linearGradient></defs></svg>