<svg xmlns="http://www.w3.org/2000/svg" width="75" height="75" viewBox="0 0 75 75" fill="none"><path d="M65.1657 53.5829L33.9183 22.3356C33.4684 21.8919 32.7997 21.7544 32.2153 21.9981C31.631 22.2387 31.2498 22.8106 31.2498 23.4417V66.7068C31.2498 67.3037 31.5903 67.8474 32.1279 68.1098C32.6653 68.3723 33.3059 68.3067 33.7714 67.938L41.7051 61.7354L48.6295 74.1968C48.9171 74.7093 49.4482 74.9999 49.9982 74.9999C50.2325 74.9999 50.4732 74.9467 50.6982 74.8342L60.0724 70.1471C60.4537 69.9566 60.741 69.6191 60.8661 69.2128C60.9911 68.8034 60.9442 68.3628 60.7412 67.9911L54.2167 56.2515H64.0597C64.6908 56.2515 65.2595 55.8702 65.5033 55.2859C65.7469 54.7015 65.6125 54.0298 65.1657 53.5829ZM51.5637 53.1299C51.0106 53.1299 50.4981 53.4235 50.2169 53.9016C49.9356 54.3766 49.9263 54.9672 50.195 55.4514L57.2163 68.0848L50.6387 71.3751L43.5549 58.6199C43.333 58.2199 42.9455 57.9356 42.4987 57.8449C42.3925 57.8231 42.2894 57.8137 42.1862 57.8137C41.8425 57.8137 41.4988 57.9293 41.2238 58.1449L34.3743 63.5007V27.2132L60.2909 53.1299H51.5637Z" fill="url(#paint0_linear_1_1938)"></path><path d="M32.8122 0C31.9497 0 31.2498 0.69999 31.2498 1.56242V10.9366C31.2498 11.7991 31.9497 12.499 32.8122 12.499C33.6746 12.499 34.3746 11.7991 34.3746 10.9366V1.56242C34.3744 0.69999 33.6746 0 32.8122 0Z" fill="url(#paint1_linear_1_1938)"></path><path d="M20.3131 21.873H10.9389C10.0765 21.873 9.37646 22.573 9.37646 23.4355C9.37646 24.2979 10.0765 24.9979 10.9389 24.9979H20.3131C21.1755 24.9979 21.8755 24.2979 21.8755 23.4355C21.8755 22.573 21.1755 21.873 20.3131 21.873Z" fill="url(#paint2_linear_1_1938)"></path><path d="M54.6854 21.873H45.3112C44.4488 21.873 43.7488 22.573 43.7488 23.4355C43.7488 24.2979 44.4488 24.9979 45.3112 24.9979H54.6854C55.5478 24.9979 56.2478 24.2979 56.2478 23.4355C56.2478 22.573 55.5478 21.873 54.6854 21.873Z" fill="url(#paint3_linear_1_1938)"></path><path d="M25.0786 13.4925L18.448 6.86495C17.8386 6.25563 16.8481 6.25563 16.2387 6.86495C15.6294 7.47428 15.6294 8.46487 16.2387 9.07419L22.8694 15.7018C23.1756 16.0048 23.5755 16.158 23.9755 16.158C24.3755 16.158 24.7754 16.008 25.0786 15.7018C25.6879 15.0924 25.6879 14.1018 25.0786 13.4925Z" fill="url(#paint4_linear_1_1938)"></path><path d="M25.0786 31.1723C24.4693 30.563 23.4787 30.563 22.8694 31.1723L16.2387 37.7999C15.6294 38.4092 15.6294 39.3998 16.2387 40.0091C16.545 40.3122 16.9449 40.4654 17.3449 40.4654C17.7449 40.4654 18.1448 40.3123 18.448 40.0091L25.0786 33.3816C25.6879 32.7722 25.6879 31.7816 25.0786 31.1723Z" fill="url(#paint5_linear_1_1938)"></path><path d="M49.3859 6.86506C48.7766 6.25266 47.786 6.25266 47.1736 6.86506L40.5429 13.4926C39.9336 14.102 39.9336 15.0925 40.5429 15.7019C40.8492 16.0049 41.2491 16.1581 41.6491 16.1581C42.0491 16.1581 42.449 16.0081 42.7552 15.7019L49.3859 9.0743C49.9952 8.46498 49.9952 7.47761 49.3859 6.86506Z" fill="url(#paint6_linear_1_1938)"></path><defs><linearGradient id="paint0_linear_1_1938" x1="31.2498" y1="48.4393" x2="65.6233" y2="48.4393" gradientUnits="userSpaceOnUse"><stop stop-color="#FF403E"></stop><stop offset="1" stop-color="#FF811B"></stop></linearGradient><linearGradient id="paint1_linear_1_1938" x1="31.2498" y1="6.24952" x2="34.3746" y2="6.24952" gradientUnits="userSpaceOnUse"><stop stop-color="#FF403E"></stop><stop offset="1" stop-color="#FF811B"></stop></linearGradient><linearGradient id="paint2_linear_1_1938" x1="9.37646" y1="23.4355" x2="21.8755" y2="23.4355" gradientUnits="userSpaceOnUse"><stop stop-color="#FF403E"></stop><stop offset="1" stop-color="#FF811B"></stop></linearGradient><linearGradient id="paint3_linear_1_1938" x1="43.7488" y1="23.4355" x2="56.2478" y2="23.4355" gradientUnits="userSpaceOnUse"><stop stop-color="#FF403E"></stop><stop offset="1" stop-color="#FF811B"></stop></linearGradient><linearGradient id="paint4_linear_1_1938" x1="15.7817" y1="11.283" x2="25.5356" y2="11.283" gradientUnits="userSpaceOnUse"><stop stop-color="#FF403E"></stop><stop offset="1" stop-color="#FF811B"></stop></linearGradient><linearGradient id="paint5_linear_1_1938" x1="15.7817" y1="35.5904" x2="25.5356" y2="35.5904" gradientUnits="userSpaceOnUse"><stop stop-color="#FF403E"></stop><stop offset="1" stop-color="#FF811B"></stop></linearGradient><linearGradient id="paint6_linear_1_1938" x1="40.0859" y1="11.2819" x2="49.8429" y2="11.2819" gradientUnits="userSpaceOnUse"><stop stop-color="#FF403E"></stop><stop offset="1" stop-color="#FF811B"></stop></linearGradient></defs></svg>