<svg xmlns="http://www.w3.org/2000/svg" width="69" height="69" viewBox="0 0 69 69" fill="none"><g clip-path="url(#clip0_1_1898)"><path d="M36.2064 32.7953C35.6795 32.2684 34.8264 32.2684 34.2995 32.7953C33.7739 33.3209 33.7739 34.174 34.2995 34.7009C34.8264 35.2265 35.6795 35.2265 36.2064 34.7009C36.732 34.174 36.732 33.3209 36.2064 32.7953Z" fill="white"></path><path d="M53.3581 15.6422C50.7248 13.009 46.4619 13.0089 43.8285 15.6422C41.202 18.2686 41.2019 22.5434 43.8289 25.172C46.4563 27.7977 50.731 27.7988 53.3581 25.1717C55.9912 22.5387 55.9917 18.2756 53.3581 15.6422ZM51.4523 23.2657C49.8765 24.8417 47.3113 24.8417 45.7347 23.266C44.1586 21.689 44.1585 19.1238 45.7345 17.548C47.3143 15.9682 49.8722 15.9679 51.4523 17.548C53.0321 19.1277 53.0324 21.6857 51.4523 23.2657Z" fill="white"></path><path d="M68.605 0.394741C68.3404 0.130197 67.9792 -0.0131938 67.6037 0.000956565C67.299 0.0118726 60.0439 0.303505 51.4196 3.35176C44.5089 5.79182 38.7486 9.28535 34.2988 13.7353C33.3016 14.7324 32.3313 15.7898 31.4029 16.8883C27.0031 14.2984 23.4774 15.1104 21.2485 16.3033C16.1165 19.0498 12.9399 26.5071 12.9399 31.8412C12.9403 32.3862 13.2688 32.8776 13.7723 33.0861C13.939 33.1553 14.1142 33.1888 14.2877 33.1888C14.6385 33.1888 14.9831 33.0518 15.2409 32.7941C17.9474 30.0876 21.2857 30.2569 22.3762 30.4002L22.8482 30.8722C21.9194 33.0823 21.1711 35.2801 20.6224 37.4176C20.4243 38.1912 20.4911 39.0097 20.7856 39.7585C19.4881 40.3564 18.2362 41.2344 17.1462 42.3244C13.6772 45.7936 12.9728 54.2479 12.9445 54.6061C12.9135 54.9992 13.0561 55.3863 13.3349 55.6651C13.5887 55.9187 13.9319 56.0598 14.2877 56.0598C14.323 56.0598 14.3585 56.0585 14.3939 56.0557C14.7521 56.0275 23.2068 55.3231 26.6758 51.8541C27.7653 50.7645 28.6432 49.5128 29.2412 48.2156C30.0338 48.5273 30.8497 48.5657 31.5834 48.3777C33.72 47.829 35.9174 47.0811 38.1279 46.1522L38.5998 46.6241C38.7431 47.7148 38.9123 51.053 36.206 53.7593C35.8207 54.1447 35.7053 54.7243 35.9139 55.2278C36.1224 55.7314 36.6138 56.0597 37.1589 56.0597C42.4929 56.0597 49.9501 52.8832 52.6967 47.7512C53.8895 45.5225 54.7016 41.9968 52.1117 37.5969C53.2096 36.6689 54.2671 35.6986 55.2646 34.701C59.7146 30.2511 63.208 24.4908 65.648 17.5806C68.6964 8.95585 68.9879 1.70062 68.9988 1.39605C69.0123 1.02207 68.8696 0.65942 68.605 0.394741ZM15.953 28.9425C16.7902 24.891 19.2218 20.4453 22.5208 18.6796C24.7254 17.4998 27.1352 17.6155 29.6973 19.018C27.5145 21.8887 25.6169 24.9816 24.0352 28.2476C24.0151 28.2352 23.7725 27.9303 23.3219 27.8287C23.1366 27.7867 19.5708 27.0198 15.953 28.9425ZM24.7699 49.9481C22.9169 51.8011 18.57 52.7784 15.8226 53.1775C16.2217 50.4299 17.1992 46.0832 19.0521 44.2303C20.0898 43.1926 21.293 42.4058 22.5024 41.9627L27.0375 46.4978C26.5944 47.7072 25.8077 48.9104 24.7699 49.9481ZM30.9139 45.7667C30.5239 45.8666 30.0721 45.72 29.7363 45.3847C27.9928 43.6412 27.3108 42.9592 27.0968 42.7453C26.7043 42.3529 25.742 41.3905 23.6163 39.2647C23.2802 38.9279 23.1336 38.4763 23.2332 38.087C23.6648 36.4059 24.2294 34.6812 24.9159 32.9399L36.0603 44.0843C34.3187 44.771 32.5943 45.3354 30.9139 45.7667ZM50.3206 46.4794C48.5549 49.7783 44.1093 52.21 40.058 53.047C41.3497 50.6163 41.6345 47.5219 41.1625 45.6456C41.0529 45.2098 40.7686 44.9906 40.7527 44.9649C44.0185 43.3831 47.1112 41.4855 49.9822 39.3027C51.3847 41.8651 51.5002 44.2752 50.3206 46.4794ZM53.359 32.7952C52.1447 34.0094 50.837 35.1825 49.4724 36.2818C46.1919 38.9232 42.5813 41.1606 38.7292 42.9417L26.0585 30.2713C27.8396 26.4189 30.077 22.8082 32.7181 19.5282C33.8183 18.1626 34.9913 16.8548 36.2052 15.6412C40.1976 11.6486 45.3502 8.4711 51.5241 6.18386L62.8163 17.4761C60.5294 23.6499 57.3519 28.8025 53.359 32.7952ZM63.786 14.6338L54.3664 5.21422C59.4984 3.62022 63.9631 3.02334 66.1915 2.80879C65.9769 5.03768 65.3798 9.50232 63.786 14.6338Z" fill="white"></path><path d="M32.3936 55.6646C31.8671 55.1383 31.0138 55.1386 30.4877 55.6648L26.6765 59.4774C26.1504 60.0038 26.1505 60.8571 26.6768 61.3832C27.2033 61.9093 28.0566 61.9093 28.5827 61.3829L32.3939 57.5704C32.92 57.044 32.9199 56.1907 32.3936 55.6646Z" fill="white"></path><path d="M13.3357 36.6065C12.8095 36.0801 11.9563 36.0801 11.4298 36.6062L7.61731 40.4174C7.09091 40.9435 7.09078 41.7969 7.6169 42.3232C8.14289 42.8494 8.99609 42.8499 9.52276 42.3235L13.3353 38.5124C13.8617 37.9862 13.8618 37.1329 13.3357 36.6065Z" fill="white"></path><path d="M22.8647 57.5717C22.3387 57.0455 21.4853 57.0455 20.9589 57.5716L11.8299 66.6992C11.3035 67.2255 11.3035 68.0788 11.8297 68.6051C12.3557 69.1313 13.2092 69.1316 13.7356 68.6052L22.8646 59.4776C23.391 58.9513 23.391 58.098 22.8647 57.5717Z" fill="white"></path><path d="M12.0835 57.5717C11.5574 57.0455 10.7039 57.0455 10.1776 57.5716L1.04862 66.6992C0.522227 67.2255 0.522227 68.0788 1.04849 68.6051C1.57448 69.1313 2.42794 69.1316 2.95434 68.6052L12.0833 59.4776C12.6097 58.9513 12.6097 58.098 12.0835 57.5717Z" fill="white"></path><path d="M11.4284 46.1353C10.9023 45.6092 10.0488 45.6092 9.52258 46.1354L0.394921 55.2644C-0.131337 55.7908 -0.131337 56.644 0.395056 57.1704C0.921315 57.6967 1.77465 57.6967 2.30091 57.1703L11.4286 48.0413C11.9548 47.5149 11.9548 46.6617 11.4284 46.1353Z" fill="white"></path><path d="M41.9233 27.0768C41.3969 26.5506 40.5438 26.5506 40.0173 27.0768L38.1117 28.9824C37.5855 29.5087 37.5855 30.362 38.1117 30.8884C38.6381 31.4146 39.4913 31.4146 40.0177 30.8884L41.9233 28.9828C42.4496 28.4565 42.4496 27.6032 41.9233 27.0768Z" fill="white"></path></g><defs><clipPath id="clip0_1_1898"><rect width="69" height="69" fill="white"></rect></clipPath></defs></svg>