<svg xmlns="http://www.w3.org/2000/svg" width="20" height="20" viewBox="0 0 20 20" fill="none"><path d="M7.53624 9.10776C10.1347 9.10776 12.2411 7.06897 12.2411 4.55388C12.2411 2.03879 10.1347 0 7.53624 0C4.93777 0 2.83093 2.03879 2.83093 4.55388C2.8336 7.0681 4.93866 9.10561 7.53624 9.10776ZM7.53624 0.861638C9.64307 0.861638 11.3509 2.51466 11.3509 4.55388C11.3509 6.5931 9.64307 8.24612 7.53624 8.24612C5.4294 8.24612 3.72158 6.5931 3.72158 4.55388C3.72381 2.51552 5.4303 0.864224 7.53624 0.861638Z" fill="url(#paint0_linear_1_887)"></path><path d="M0.903584 17.2901C0.997102 15.5966 1.678 14.0505 2.8354 12.8996C4.06851 11.672 5.73759 10.9953 7.53136 10.9953H7.54472C9.03032 10.9871 10.475 11.4686 11.6399 12.3612C11.7067 12.413 11.7735 12.469 11.8403 12.5207L12.4192 11.8703C12.3435 11.8056 12.2678 11.7453 12.1921 11.6849C10.866 10.6634 9.25432 10.1293 7.5318 10.1293C5.49311 10.1336 3.60136 10.9005 2.19903 12.2961C0.77444 13.7095 -0.00443426 15.6354 1.89909e-05 17.725C0.000909641 17.963 0.199525 18.1552 0.445344 18.1561L12.9536 18.1345V17.2729L0.903584 17.2901Z" fill="url(#paint1_linear_1_887)"></path><path d="M17.2443 13.5801L15.2323 15.1659L14.5069 14.3431C14.347 14.162 14.066 14.1409 13.8794 14.2956C13.6924 14.4504 13.6706 14.7224 13.8305 14.903L14.8409 16.0448C14.926 16.14 15.0493 16.1952 15.1794 16.1956C15.2813 16.1965 15.3806 16.1629 15.4599 16.1008L17.8103 14.2525C18.0014 14.1012 18.0299 13.8288 17.874 13.6439C17.7177 13.4581 17.4363 13.4297 17.2443 13.5801Z" fill="url(#paint2_linear_1_887)"></path><path d="M19.764 11.6543L15.927 9.6767C15.7948 9.60687 15.6349 9.60859 15.504 9.68101L11.7739 11.6586C11.631 11.7349 11.5424 11.8797 11.5424 12.0375V14.6224C11.545 16.8448 12.9059 18.8556 15.0097 19.7452L15.5262 19.9646C15.5823 19.9888 15.6434 20.0008 15.7044 19.9991C15.7654 19.9982 15.8255 19.9866 15.8825 19.9646L16.4654 19.7189C18.6079 18.8491 20.0013 16.8189 20 14.5702V12.037C20 11.8776 19.9091 11.7306 19.764 11.6543ZM19.1093 14.5711C19.1102 16.475 17.9288 18.1931 16.1136 18.9271H16.1092L15.7044 19.0948L15.3659 18.9526C13.5855 18.2 12.4343 16.4987 12.4326 14.6181V12.287L15.7222 10.5422L19.1098 12.2914V14.5711H19.1093Z" fill="url(#paint3_linear_1_887)"></path><defs><linearGradient id="paint0_linear_1_887" x1="2.83093" y1="4.55388" x2="12.2411" y2="4.55388" gradientUnits="userSpaceOnUse"><stop stop-color="#38C9F7"></stop><stop offset="1" stop-color="#266FF2"></stop></linearGradient><linearGradient id="paint1_linear_1_887" x1="0" y1="14.1427" x2="12.9536" y2="14.1427" gradientUnits="userSpaceOnUse"><stop stop-color="#38C9F7"></stop><stop offset="1" stop-color="#266FF2"></stop></linearGradient><linearGradient id="paint2_linear_1_887" x1="13.7235" y1="14.8396" x2="17.9746" y2="14.8396" gradientUnits="userSpaceOnUse"><stop stop-color="#38C9F7"></stop><stop offset="1" stop-color="#266FF2"></stop></linearGradient><linearGradient id="paint3_linear_1_887" x1="11.5424" y1="14.8124" x2="20" y2="14.8124" gradientUnits="userSpaceOnUse"><stop stop-color="#38C9F7"></stop><stop offset="1" stop-color="#266FF2"></stop></linearGradient></defs></svg>