<svg xmlns="http://www.w3.org/2000/svg" width="20" height="19" viewBox="0 0 20 19" fill="none"><g clip-path="url(#clip0_1_842)"><path d="M4.06802 18.9529C4.05802 18.9529 4.04802 18.9529 4.03752 18.9519C3.85552 18.941 3.69402 18.8324 3.61602 18.6691L2.73552 16.8237L0.561519 17.0891C0.370519 17.1124 0.183519 17.0251 0.0795195 16.8649C-0.0244805 16.7046 -0.0264805 16.4993 0.0745195 16.3371L4.01352 9.99214C4.15702 9.75799 4.46402 9.68358 4.70052 9.82595C4.93652 9.96833 5.01152 10.2734 4.86802 10.5076L4.86452 10.513L1.47152 15.9789L2.97152 15.7958C3.18552 15.77 3.39202 15.8826 3.48452 16.0761L4.13102 17.4309L7.20002 12.6189C7.34652 12.3867 7.65502 12.3168 7.88902 12.4621C8.12302 12.6075 8.19352 12.9141 8.04702 13.1462L8.04502 13.1497L4.49052 18.7222C4.39852 18.8661 4.23952 18.9529 4.06802 18.9529Z" fill="url(#paint0_linear_1_842)"></path><path d="M15.8046 18.9445C15.6331 18.9445 15.4736 18.8571 15.3821 18.7133L11.8471 13.1616C11.6996 12.9299 11.7691 12.6239 12.0026 12.477C12.2361 12.3307 12.5446 12.4001 12.6926 12.6313L15.7551 17.4413L16.4351 16.0979C16.5311 15.9089 16.7371 15.8008 16.9486 15.8291L18.5086 16.0384L15.0176 10.5145C14.8711 10.2823 14.9416 9.97626 15.1756 9.8309C15.4096 9.68555 15.7181 9.7555 15.8651 9.98767L19.9231 16.409C20.0261 16.5722 20.0251 16.7795 19.9196 16.9413C19.8146 17.103 19.6246 17.1898 19.4321 17.164L17.1681 16.8599L16.2506 18.6706C16.1696 18.8304 16.0086 18.9345 15.8286 18.9435C15.8211 18.9445 15.8131 18.9445 15.8046 18.9445Z" fill="url(#paint1_linear_1_842)"></path><path d="M9.94055 0C6.11555 0 3.00305 3.08762 3.00305 6.88316C3.00305 10.6787 6.11505 13.7663 9.94055 13.7663C13.7656 13.7663 16.8776 10.6787 16.8776 6.88316C16.8776 3.08762 13.7656 0 9.94055 0ZM9.94055 12.7737C6.66155 12.7737 4.00355 10.1365 4.00355 6.88266C4.00355 3.62885 6.66155 0.992167 9.94055 0.992167C13.2196 0.992167 15.8781 3.62935 15.8781 6.88316C15.8741 10.135 13.2181 12.7702 9.94055 12.7737Z" fill="url(#paint2_linear_1_842)"></path><path d="M9.94054 2.5578C7.53304 2.5578 5.58154 4.49451 5.58154 6.88315C5.58154 9.2718 7.53354 11.208 9.94104 11.208C12.3485 11.208 14.3 9.2713 14.3 6.88266C14.3 4.49401 12.3485 2.5578 9.94054 2.5578ZM9.94054 10.2158C8.08504 10.2158 6.58154 8.72313 6.58154 6.88266C6.58154 5.04169 8.08604 3.54997 9.94104 3.54997C11.7965 3.54997 13.3 5.04219 13.3 6.88315C13.3 8.72412 11.796 10.2158 9.94054 10.2158Z" fill="url(#paint3_linear_1_842)"></path></g><defs><linearGradient id="paint0_linear_1_842" x1="0.00012207" y1="14.3533" x2="8.12339" y2="14.3533" gradientUnits="userSpaceOnUse"><stop stop-color="#38C9F7"></stop><stop offset="1" stop-color="#266FF2"></stop></linearGradient><linearGradient id="paint1_linear_1_842" x1="11.7697" y1="14.3498" x2="19.9995" y2="14.3498" gradientUnits="userSpaceOnUse"><stop stop-color="#38C9F7"></stop><stop offset="1" stop-color="#266FF2"></stop></linearGradient><linearGradient id="paint2_linear_1_842" x1="3.00305" y1="6.88316" x2="16.8776" y2="6.88316" gradientUnits="userSpaceOnUse"><stop stop-color="#38C9F7"></stop><stop offset="1" stop-color="#266FF2"></stop></linearGradient><linearGradient id="paint3_linear_1_842" x1="5.58154" y1="6.88291" x2="14.3" y2="6.88291" gradientUnits="userSpaceOnUse"><stop stop-color="#38C9F7"></stop><stop offset="1" stop-color="#266FF2"></stop></linearGradient><clipPath id="clip0_1_842"><rect width="20" height="19" fill="white"></rect></clipPath></defs></svg>