<svg xmlns="http://www.w3.org/2000/svg" width="42" height="42" viewBox="0 0 42 42" fill="none"><path d="M38.4847 37.0928V14.5151C38.4847 13.3609 37.5783 12.4253 36.4602 12.4253H5.29305C4.17496 12.4253 3.26855 13.3609 3.26855 14.5151V37.0928" stroke="#7360F2" stroke-width="1.34156" stroke-miterlimit="10" stroke-linecap="round" stroke-linejoin="round"></path><path d="M6.36908 37.0928H1.3604C1.02498 37.0928 0.753052 37.3735 0.753052 37.7197V38.8979C0.753052 40.052 1.65946 40.9877 2.77755 40.9877H38.9755C40.0936 40.9877 41 40.052 41 38.8979V37.7197C41 37.3735 40.7281 37.0928 40.3927 37.0928H25.9074L25.2426 37.779C24.863 38.1709 24.348 38.391 23.8111 38.391H17.9419C17.405 38.391 16.8901 38.1709 16.5103 37.779L15.8456 37.0928H9.20329" stroke="#7360F2" stroke-width="1.34156" stroke-miterlimit="10" stroke-linecap="round" stroke-linejoin="round"></path><path d="M35.969 15.0217H5.78381V34.4961H35.969V15.0217Z" stroke="#7360F2" stroke-width="1.34156" stroke-miterlimit="10" stroke-linecap="round" stroke-linejoin="round"></path><path d="M15.8456 31.8996C16.5402 31.8996 17.1033 31.3183 17.1033 30.6013V18.9167C17.1033 18.1996 16.5402 17.6184 15.8456 17.6184C15.151 17.6184 14.5879 18.1997 14.5879 18.9167V30.6012C14.5879 31.3183 15.1509 31.8996 15.8456 31.8996Z" stroke="#7360F2" stroke-width="1.34156" stroke-miterlimit="10" stroke-linecap="round" stroke-linejoin="round"></path><path d="M25.2785 21.8334V20.2152H27.165C27.8597 20.2152 28.4227 19.6339 28.4227 18.9169C28.4227 18.2 27.8596 17.6187 27.165 17.6187H20.8765C20.1818 17.6187 19.6188 18.2 19.6188 18.9169C19.6188 19.6339 20.1819 20.2152 20.8765 20.2152H22.7631V30.6015C22.7631 31.3185 23.3262 31.8998 24.0208 31.8998C24.7153 31.8998 25.2785 31.3185 25.2785 30.6015V24.7592" stroke="#7360F2" stroke-width="1.34156" stroke-miterlimit="10" stroke-linecap="round" stroke-linejoin="round"></path><path d="M27.9912 5.0809L30.701 2.28366C30.8529 2.12692 31.0589 2.03882 31.2736 2.03882H33.4536" stroke="#7360F2" stroke-width="1.34156" stroke-miterlimit="10" stroke-linecap="round" stroke-linejoin="round"></path><path d="M34.7114 3.33726C35.406 3.33726 35.9691 2.756 35.9691 2.03899C35.9691 1.32198 35.406 0.740723 34.7114 0.740723C34.0168 0.740723 33.4537 1.32198 33.4537 2.03899C33.4537 2.756 34.0168 3.33726 34.7114 3.33726Z" stroke="#7360F2" stroke-width="1.34156" stroke-miterlimit="10" stroke-linecap="round" stroke-linejoin="round"></path><path d="M35.9691 9.82847C36.6637 9.82847 37.2268 9.24721 37.2268 8.5302C37.2268 7.81319 36.6637 7.23193 35.9691 7.23193C35.2745 7.23193 34.7114 7.81319 34.7114 8.5302C34.7114 9.24721 35.2745 9.82847 35.9691 9.82847Z" stroke="#7360F2" stroke-width="1.34156" stroke-miterlimit="10" stroke-linecap="round" stroke-linejoin="round"></path><path d="M13.7617 5.0809L11.0519 2.28366C10.9001 2.12692 10.6941 2.03882 10.4793 2.03882H8.29932" stroke="#7360F2" stroke-width="1.34156" stroke-miterlimit="10" stroke-linecap="round" stroke-linejoin="round"></path><path d="M7.04151 3.33726C7.73612 3.33726 8.29921 2.756 8.29921 2.03899C8.29921 1.32198 7.73612 0.740723 7.04151 0.740723C6.3469 0.740723 5.78381 1.32198 5.78381 2.03899C5.78381 2.756 6.3469 3.33726 7.04151 3.33726Z" stroke="#7360F2" stroke-width="1.34156" stroke-miterlimit="10" stroke-linecap="round" stroke-linejoin="round"></path><path d="M34.7112 8.53027H28.5105" stroke="#7360F2" stroke-width="1.34156" stroke-miterlimit="10" stroke-linecap="round" stroke-linejoin="round"></path><path d="M5.78394 9.82847C6.47855 9.82847 7.04164 9.24721 7.04164 8.5302C7.04164 7.81319 6.47855 7.23193 5.78394 7.23193C5.08934 7.23193 4.52625 7.81319 4.52625 8.5302C4.52625 9.24721 5.08934 9.82847 5.78394 9.82847Z" stroke="#7360F2" stroke-width="1.34156" stroke-miterlimit="10" stroke-linecap="round" stroke-linejoin="round"></path><path d="M7.04163 8.53027H13.2423" stroke="#7360F2" stroke-width="1.34156" stroke-miterlimit="10" stroke-linecap="round" stroke-linejoin="round"></path><path d="M30.9382 12.4251V11.2147C30.9382 10.9772 30.8082 10.7601 30.6024 10.654L29.2412 9.95138C29.0995 9.87824 28.9904 9.7511 28.9395 9.5962C28.8201 9.23325 28.6783 8.88099 28.5158 8.54119C28.4456 8.39432 28.4355 8.22462 28.4856 8.06931L28.967 6.57836C29.0398 6.35308 28.983 6.10465 28.8203 5.9368L27.162 4.225C26.9993 4.05706 26.7587 3.99847 26.5405 4.07353L25.0961 4.57049C24.9457 4.62231 24.7813 4.61178 24.639 4.53931C24.3097 4.37162 23.9685 4.22525 23.617 4.10195C23.467 4.04937 23.3437 3.93677 23.2729 3.79049L22.5922 2.38539C22.4894 2.17298 22.2791 2.03882 22.049 2.03882H19.7038C19.4738 2.03882 19.2635 2.17298 19.1606 2.38539L18.48 3.79049C18.4091 3.93677 18.286 4.04937 18.1359 4.10195C17.7843 4.22525 17.4431 4.37162 17.1139 4.53931C16.9716 4.61178 16.8072 4.62223 16.6567 4.57049L15.2124 4.07353C14.9941 3.99847 14.7536 4.05706 14.5909 4.225L12.9326 5.9368C12.7699 6.10473 12.7131 6.35308 12.7858 6.57836L13.2673 8.06931C13.3175 8.22462 13.3073 8.39432 13.237 8.54119C13.0746 8.88107 12.9328 9.23333 12.8134 9.5962C12.7624 9.75102 12.6533 9.87824 12.5116 9.95138L11.1504 10.654C10.9447 10.7602 10.8147 10.9772 10.8147 11.2147V12.4251" stroke="#7360F2" stroke-width="1.34156" stroke-miterlimit="10" stroke-linecap="round" stroke-linejoin="round"></path><path d="M20.5477 8.54482C20.656 8.53521 20.7655 8.53027 20.8762 8.53027C22.96 8.53027 24.6494 10.2741 24.6494 12.4252" stroke="#7360F2" stroke-width="1.34156" stroke-miterlimit="10" stroke-linecap="round" stroke-linejoin="round"></path><path d="M17.1034 12.4251C17.1034 11.4774 17.4314 10.6087 17.9764 9.93335" stroke="#7360F2" stroke-width="1.34156" stroke-miterlimit="10" stroke-linecap="round" stroke-linejoin="round"></path></svg>