<svg xmlns="http://www.w3.org/2000/svg" width="20" height="23" viewBox="0 0 20 23" fill="none"><path d="M0.58801 10.1615C0.263692 10.1621 0.000588599 10.4312 0 10.763V22.3985C0 22.7308 0.263692 23 0.58801 23C0.912917 23 1.17602 22.7308 1.17602 22.3985V10.763C1.17543 10.4312 0.912917 10.1621 0.58801 10.1615Z" fill="url(#paint0_linear_1_858)"></path><path d="M19.9205 2.96592C19.8146 2.77927 19.6198 2.66487 19.4085 2.66487H11.8214V0.601492C11.8202 0.269738 11.5577 0.000602094 11.2334 0H0.58801C0.263692 0.00120419 0.0011772 0.269738 0 0.601492V10.763C0.0011772 11.0948 0.263692 11.3639 0.58801 11.3645H6.38689V13.1816C6.38747 13.5134 6.65058 13.7825 6.9749 13.7831H19.4079C19.6186 13.7831 19.8134 13.6687 19.9199 13.4821C20.0259 13.296 20.0259 13.066 19.9199 12.8806L17.2554 8.22401L19.9199 3.56741C20.0235 3.38076 20.0235 3.15257 19.9205 2.96592ZM1.17661 10.1615V1.20298H10.646V10.1609H1.17661V10.1615ZM16.0623 7.91754C15.9563 8.10539 15.9563 8.3366 16.0623 8.52505L18.3796 12.5802H7.56349V11.3645H11.2334C11.5577 11.3633 11.8208 11.0948 11.8214 10.763V3.86243H18.3849L16.0623 7.91754Z" fill="url(#paint1_linear_1_858)"></path><defs><linearGradient id="paint0_linear_1_858" x1="0" y1="16.5807" x2="1.17602" y2="16.5807" gradientUnits="userSpaceOnUse"><stop stop-color="#38C9F7"></stop><stop offset="1" stop-color="#266FF2"></stop></linearGradient><linearGradient id="paint1_linear_1_858" x1="0" y1="6.89157" x2="19.9994" y2="6.89157" gradientUnits="userSpaceOnUse"><stop stop-color="#38C9F7"></stop><stop offset="1" stop-color="#266FF2"></stop></linearGradient></defs></svg>