<svg xmlns="http://www.w3.org/2000/svg" width="20" height="20" viewBox="0 0 20 20" fill="none"><path d="M11.0143 8.89771H4.08843C3.84178 8.89771 3.6416 9.08834 3.6416 9.32323C3.6416 9.55812 3.84178 9.74875 4.08843 9.74875H11.0143C11.2609 9.74875 11.4611 9.55812 11.4611 9.32323C11.4611 9.08834 11.2609 8.89771 11.0143 8.89771Z" fill="url(#paint0_linear_1_870)"></path><path d="M8.23499 11.6636H4.08843C3.84178 11.6636 3.6416 11.8542 3.6416 12.0891C3.6416 12.324 3.84178 12.5146 4.08843 12.5146H8.23499C8.48164 12.5146 8.68182 12.324 8.68182 12.0891C8.68182 11.8542 8.48164 11.6636 8.23499 11.6636Z" fill="url(#paint1_linear_1_870)"></path><path d="M4.51299 3.32333C4.75964 3.32248 4.95892 3.13227 4.95982 2.89781V0.425523C4.95982 0.190634 4.75964 0 4.51299 0C4.26634 0 4.06616 0.190634 4.06616 0.425523V2.89781C4.06706 3.1327 4.26634 3.32291 4.51299 3.32333Z" fill="url(#paint2_linear_1_870)"></path><path d="M11.4834 0C11.2368 0.000851046 11.0375 0.190634 11.0366 0.425523V2.89781C11.0366 3.1327 11.2368 3.32333 11.4834 3.32333C11.7301 3.32333 11.9303 3.1327 11.9303 2.89781V0.425523C11.9294 0.190634 11.7301 0.000851046 11.4834 0Z" fill="url(#paint3_linear_1_870)"></path><path d="M17.1537 13.7912L14.4996 16.2039L13.1278 14.8933C12.954 14.7278 12.6716 14.7278 12.4978 14.8933C12.324 15.0588 12.324 15.3278 12.4978 15.4933L14.1823 17.0975C14.2663 17.1779 14.3807 17.2222 14.4996 17.2209C14.6149 17.2218 14.7261 17.1792 14.8079 17.1018L17.7748 14.3997C17.8602 14.3218 17.9098 14.215 17.912 14.1027C17.9147 13.9899 17.87 13.881 17.7882 13.8001C17.614 13.6333 17.3329 13.6295 17.1537 13.7912Z" fill="url(#paint4_linear_1_870)"></path><path d="M15.992 10.7189V3.3659C15.9915 2.19103 14.9915 1.23871 13.7578 1.23828H2.23414C1.00045 1.23871 0.000446828 2.19103 0 3.3659V14.8933C0.000446828 16.0682 1.00045 17.0205 2.23414 17.0209H10.5049C11.3646 19.1179 13.6702 20.3353 15.9933 19.9187C18.3164 19.5021 19.9996 17.5698 20 15.3188C20 13.0338 18.2708 11.1274 15.992 10.7189ZM2.23414 2.08933H13.7578C14.4973 2.09145 15.0961 2.66166 15.0983 3.3659V4.39566H0.893655V3.3659C0.894102 2.6608 1.49419 2.08975 2.23414 2.08933ZM2.23414 16.1699C1.49464 16.1678 0.895889 15.5976 0.893655 14.8933V5.24245H15.0983V10.6381H15.0849C13.6256 10.6402 12.2422 11.2589 11.3088 12.327C10.3753 13.395 9.98749 14.8027 10.2502 16.1699H2.23414ZM15.0849 19.1485C12.8637 19.1485 11.0634 17.4341 11.0634 15.3188C11.0634 13.2036 12.8637 11.4891 15.0849 11.4891C17.3056 11.4891 19.1063 13.2036 19.1063 15.3188C19.1028 17.4328 17.3043 19.1456 15.0849 19.1485Z" fill="url(#paint5_linear_1_870)"></path><defs><linearGradient id="paint0_linear_1_870" x1="3.6416" y1="9.32323" x2="11.4611" y2="9.32323" gradientUnits="userSpaceOnUse"><stop stop-color="#38C9F7"></stop><stop offset="1" stop-color="#266FF2"></stop></linearGradient><linearGradient id="paint1_linear_1_870" x1="3.6416" y1="12.0891" x2="8.68182" y2="12.0891" gradientUnits="userSpaceOnUse"><stop stop-color="#38C9F7"></stop><stop offset="1" stop-color="#266FF2"></stop></linearGradient><linearGradient id="paint2_linear_1_870" x1="4.06616" y1="1.66167" x2="4.95982" y2="1.66167" gradientUnits="userSpaceOnUse"><stop stop-color="#38C9F7"></stop><stop offset="1" stop-color="#266FF2"></stop></linearGradient><linearGradient id="paint3_linear_1_870" x1="11.0366" y1="1.66167" x2="11.9303" y2="1.66167" gradientUnits="userSpaceOnUse"><stop stop-color="#38C9F7"></stop><stop offset="1" stop-color="#266FF2"></stop></linearGradient><linearGradient id="paint4_linear_1_870" x1="12.3674" y1="15.4467" x2="17.9121" y2="15.4467" gradientUnits="userSpaceOnUse"><stop stop-color="#38C9F7"></stop><stop offset="1" stop-color="#266FF2"></stop></linearGradient><linearGradient id="paint5_linear_1_870" x1="0" y1="10.6192" x2="20" y2="10.6192" gradientUnits="userSpaceOnUse"><stop stop-color="#38C9F7"></stop><stop offset="1" stop-color="#266FF2"></stop></linearGradient></defs></svg>