<svg width="29" height="28" viewBox="0 0 29 28" fill="none" xmlns="http://www.w3.org/2000/svg">
<path d="M2.85145 1.06432L27.3766 12.7938C27.6244 12.9121 27.8338 13.0983 27.9803 13.3306C28.1268 13.563 28.2046 13.832 28.2046 14.1067C28.2046 14.3814 28.1268 14.6505 27.9803 14.8829C27.8338 15.1152 27.6244 15.3014 27.3766 15.4197L2.85145 27.1492C2.60003 27.2696 2.31931 27.3153 2.04269 27.2807C1.76606 27.2462 1.50519 27.1329 1.29109 26.9544C1.07699 26.7758 0.918694 26.5396 0.835025 26.2736C0.751355 26.0077 0.745839 25.7234 0.819132 25.4544L3.27281 16.4592C3.30284 16.3489 3.36466 16.25 3.45056 16.1746C3.53646 16.0993 3.64264 16.0509 3.75586 16.0355L15.6401 14.421C15.6898 14.414 15.7368 14.3942 15.7766 14.3636C15.8163 14.333 15.8475 14.2926 15.8671 14.2464L15.8881 14.1743C15.8972 14.1093 15.8842 14.0431 15.851 13.9865C15.8178 13.9298 15.7665 13.8861 15.7053 13.8623L15.6413 13.8449L3.76866 12.2304C3.65566 12.2148 3.54973 12.1663 3.46405 12.091C3.37838 12.0156 3.31673 11.9168 3.28678 11.8067L0.819132 2.76024C0.745542 2.49121 0.750834 2.20668 0.834377 1.94057C0.91792 1.67445 1.07619 1.43796 1.29035 1.25925C1.5045 1.08054 1.76551 0.967159 2.04228 0.932599C2.31905 0.89804 2.59992 0.943763 2.85145 1.06432Z" fill="#FDFDFD"/>
</svg>
