<svg xmlns="http://www.w3.org/2000/svg" width="51" height="51" viewBox="0 0 51 51" fill="none"><path d="M25.4607 0.100586C20.4449 0.100586 15.5418 1.58793 11.3714 4.37453C7.20094 7.16114 3.95047 11.1218 2.03102 15.7558C0.111574 20.3898 -0.390641 25.4888 0.587885 30.4082C1.56641 35.3276 3.98173 39.8463 7.5284 43.393C11.0751 46.9397 15.5938 49.355 20.5132 50.3335C25.4326 51.312 30.5316 50.8098 35.1656 48.8904C39.7996 46.9709 43.7603 43.7205 46.5469 39.55C49.3335 35.3796 50.8208 30.4764 50.8208 25.4607C50.8134 18.737 48.1392 12.2909 43.3849 7.53654C38.6305 2.7822 32.1844 0.10797 25.4607 0.100586ZM47.6863 32.5615H35.9826C36.8313 27.8657 36.8313 23.0557 35.9826 18.3599H47.6863C49.1605 22.979 49.1605 27.9424 47.6863 32.5615ZM25.4607 48.792C25.328 48.7919 25.1967 48.7642 25.0753 48.7105C24.9539 48.6567 24.845 48.5783 24.7557 48.4801C21.294 44.7521 18.791 39.9286 17.4494 34.5903H33.472C32.1304 39.9286 29.6274 44.7521 26.1657 48.4801C26.0764 48.5783 25.9675 48.6567 25.8461 48.7105C25.7247 48.7642 25.5935 48.7919 25.4607 48.792ZM17.0031 32.5615C16.1071 27.87 16.1071 23.0513 17.0031 18.3599H33.9183C34.8144 23.0513 34.8144 27.87 33.9183 32.5615H17.0031ZM25.4607 2.12939C25.5935 2.12945 25.7247 2.15722 25.8461 2.21093C25.9675 2.26465 26.0764 2.34312 26.1657 2.44132C29.6274 6.16926 32.1304 11.0054 33.472 16.3311H17.4494C18.791 11.0054 21.294 6.16926 24.7557 2.44132C24.845 2.34312 24.9539 2.26465 25.0753 2.21093C25.1967 2.15722 25.328 2.12945 25.4607 2.12939ZM46.9306 16.3311H35.5566C34.3114 11.0739 32.0061 6.25802 28.7956 2.36778C32.7609 2.94813 36.5107 4.53683 39.6861 6.98173C42.8614 9.42663 45.3559 12.6458 46.9306 16.3311ZM22.1259 2.36778C18.9229 6.25802 16.61 11.0739 15.3648 16.3311H3.99084C5.5655 12.6458 8.05996 9.42663 11.2353 6.98173C14.4107 4.53683 18.1606 2.94813 22.1259 2.36778ZM3.23511 18.3599H14.9388C14.0901 23.0557 14.0901 27.8657 14.9388 32.5615H3.23511C1.76087 27.9424 1.76087 22.979 3.23511 18.3599ZM3.99591 34.5903H15.3648C16.61 39.8475 18.9153 44.6634 22.1259 48.5536C18.1606 47.9733 14.4107 46.3846 11.2353 43.9397C8.05996 41.4948 5.5655 38.2755 3.99084 34.5903H3.99591ZM28.8006 48.5536C32.0036 44.6634 34.3165 39.8475 35.5616 34.5903H46.9356C45.3605 38.2762 42.8653 41.4959 39.689 43.9408C36.5127 46.3857 32.7618 47.9741 28.7956 48.5536H28.8006Z" fill="url(#paint0_linear_399_945)"></path><defs><linearGradient id="paint0_linear_399_945" x1="0.100586" y1="0.100586" x2="50.8208" y2="0.100586" gradientUnits="userSpaceOnUse"><stop stop-color="#FF7369"></stop><stop offset="1" stop-color="#FFB06D"></stop></linearGradient></defs></svg>