<svg xmlns="http://www.w3.org/2000/svg" width="58" height="58" viewBox="0 0 58 58" fill="none"><g clip-path="url(#clip0_399_969)"><path d="M29 3.22237C26.6852 3.22878 24.3819 3.54854 22.1528 4.17292L23.3934 7.16959C28.2116 5.89382 33.3161 6.24167 37.9168 8.15932C42.5174 10.077 46.3578 13.4575 48.8436 17.7777C51.3293 22.098 52.3219 27.1171 51.6677 32.0583C51.0134 36.9995 48.7488 41.5873 45.2244 45.1117C41.6999 48.6362 37.1121 50.9008 32.1709 51.555C27.2297 52.2093 22.2106 51.2167 17.8904 48.7309C13.5701 46.2452 10.1896 42.4048 8.27198 37.8041C6.35433 33.2034 6.00648 28.099 7.28225 23.2807L4.28558 22.024C2.82319 27.2263 3.03269 32.7566 4.88446 37.8333C6.73623 42.91 10.1366 47.2764 14.605 50.3153C19.0735 53.3543 24.384 54.9121 29.7859 54.7686C35.1879 54.6252 40.4082 52.7876 44.709 49.5158C49.0099 46.2439 52.1737 41.7032 53.7533 36.5353C55.333 31.3674 55.2486 25.8338 53.5121 20.7165C51.7757 15.5992 48.4749 11.1571 44.0763 8.01784C39.6778 4.87861 34.4039 3.20109 29 3.22237Z" fill="#636363"></path><path d="M12.0028 25.2942C11.1987 28.9685 11.6056 32.8044 13.1628 36.2281C14.72 39.6518 17.3437 42.4795 20.6415 44.2881C23.9393 46.0967 27.7341 46.7891 31.4581 46.2618C35.1822 45.7344 38.6355 44.0156 41.3015 41.3624C43.9675 38.7093 45.7029 35.2644 46.2483 31.5429C46.7936 27.8214 46.1196 24.0234 44.3269 20.7168C42.5342 17.4103 39.7193 14.773 36.3031 13.1993C32.887 11.6256 29.0531 11.2001 25.375 11.9865L26.3739 14.4998C29.5032 13.9139 32.738 14.3467 35.6032 15.7346C38.4685 17.1225 40.8133 19.3925 42.2934 22.2112C43.7736 25.0299 44.3111 28.2489 43.827 31.3956C43.343 34.5423 41.8629 37.4509 39.604 39.6944C37.3451 41.938 34.4265 43.3983 31.2766 43.8609C28.1267 44.3235 24.9114 43.7641 22.1029 42.2648C19.2943 40.7655 17.0404 38.4053 15.672 35.5306C14.3036 32.656 13.8928 29.4184 14.5 26.2931L12.0028 25.2942Z" fill="#636363"></path><path d="M29.0002 35.5892C27.3853 35.5653 25.8356 34.9477 24.647 33.8541C23.4584 32.7606 22.714 31.2677 22.5558 29.6603L19.9297 28.5648V28.9998C19.9298 30.817 20.47 32.5931 21.4816 34.1027C22.4933 35.6123 23.9307 36.7871 25.6115 37.478C27.2922 38.1689 29.1403 38.3448 30.9212 37.9831C32.7021 37.6215 34.3353 36.7388 35.6134 35.447C36.8915 34.1553 37.7569 32.5128 38.0996 30.7282C38.4423 28.9436 38.247 27.0974 37.5383 25.4241C36.8296 23.7508 35.6396 22.3259 34.1193 21.3303C32.5991 20.3347 30.8173 19.8134 29.0002 19.8325H28.6136L29.693 22.5553C31.3033 22.7995 32.7651 23.6342 33.7937 24.897C34.8224 26.1597 35.3443 27.7601 35.2578 29.3865C35.1714 31.0128 34.4828 32.5489 33.3261 33.6954C32.1694 34.842 30.6273 35.5171 29.0002 35.5892Z" fill="#636363"></path><path d="M13.2111 21.4922C13.3598 21.644 13.5625 21.7308 13.775 21.7338H19.6555L28.3072 30.3855C28.6106 30.691 29.0229 30.8635 29.4534 30.865C29.884 30.8665 30.2975 30.6969 30.603 30.3936C30.9085 30.0902 31.081 29.6779 31.0825 29.2473C31.084 28.8168 30.9145 28.4032 30.6111 28.0977L21.7983 19.3333V13.7105C21.7953 13.498 21.7084 13.2953 21.5566 13.1466L12.5505 4.14051C12.4379 4.03011 12.2954 3.95519 12.1406 3.92503C11.9859 3.89487 11.8256 3.91079 11.6798 3.97083C11.534 4.03087 11.4091 4.13238 11.3204 4.26278C11.2317 4.39318 11.1833 4.54673 11.1811 4.7044V11.1488H4.8333C4.67564 11.1511 4.52208 11.1995 4.39169 11.2882C4.26129 11.3768 4.15978 11.5018 4.09974 11.6476C4.0397 11.7934 4.02378 11.9536 4.05394 12.1084C4.0841 12.2632 4.15902 12.4057 4.26941 12.5183L13.2111 21.4922Z" fill="#636363"></path></g><defs><clipPath id="clip0_399_969"><rect width="58" height="58" fill="white"></rect></clipPath></defs></svg>