<svg xmlns="http://www.w3.org/2000/svg" width="100" height="100" viewBox="0 0 100 100" fill="none"><path d="M74.3201 71.2754C74.1446 68.6905 72.9727 61.3358 72.9224 61.023C72.9084 60.9332 72.8862 60.8448 72.856 60.759C72.469 59.6205 71.7406 58.629 70.7701 57.9191C69.7995 57.2093 68.6338 56.8157 67.4316 56.7918H67.4171L53.2609 55.5115C51.0914 55.3162 48.9088 55.3162 46.7393 55.5115L32.7237 56.7857C31.4962 56.7863 30.2993 57.1692 29.2994 57.8813C28.2995 58.5933 27.5463 59.5991 27.1443 60.759C27.1145 60.8449 27.0923 60.9332 27.0779 61.023C27.0276 61.3355 25.8557 68.6905 25.6802 71.2769C24.9516 81.9932 27.2679 87.2804 27.322 87.3902C28.6221 90.9852 30.4088 92.8696 32.6329 92.9932C32.7366 92.9993 32.8404 93.0024 32.9434 93.0024C34.2418 93.0105 35.4935 92.518 36.4384 91.6274C38.4945 89.7232 39.5962 85.9243 39.7152 80.3329C39.7182 80.1873 39.754 80.0443 39.8199 79.9144C39.8858 79.7846 39.9801 79.6712 40.0959 79.5829C40.2171 79.4883 40.3577 79.4218 40.5077 79.388C40.6577 79.3542 40.8133 79.3541 40.9634 79.3876L46.8884 80.7258C48.9381 81.1835 51.0635 81.1835 53.1132 80.7258L59.0374 79.3876C59.1875 79.3542 59.3431 79.3545 59.493 79.3882C59.643 79.422 59.7836 79.4885 59.9049 79.5829C60.0207 79.6712 60.115 79.7846 60.1809 79.9144C60.2468 80.0443 60.2826 80.1873 60.2856 80.3329C60.4046 85.9237 61.5063 89.7235 63.5624 91.6274C64.0697 92.1033 64.6692 92.4701 65.3239 92.705C65.9786 92.9399 66.6746 93.0379 67.3687 92.993C69.566 92.871 71.3374 91.0293 72.6323 87.5166C73.1441 86.5723 75.0648 82.2205 74.3201 71.2754ZM69.8826 86.0337C69.8247 86.1265 69.7769 86.2252 69.7399 86.3282C68.9534 88.5026 68.0012 89.8282 67.1956 89.8751C66.9202 89.8945 66.6438 89.8565 66.3839 89.7635C66.124 89.6706 65.8862 89.5246 65.6857 89.3349C64.3352 88.0837 63.506 84.7787 63.4106 80.2666C63.3977 79.6579 63.2492 79.0597 62.9759 78.5157C62.7025 77.9716 62.3113 77.4954 61.8306 77.1218C61.3452 76.7403 60.7808 76.4721 60.1785 76.3367C59.5762 76.2012 58.9512 76.202 58.3493 76.339L52.4257 77.6773C50.8288 78.0343 49.1727 78.0343 47.5757 77.6773L41.6515 76.339C41.0496 76.2017 40.4246 76.2007 39.8222 76.3361C39.2199 76.4716 38.6554 76.74 38.1702 77.1218C37.6896 77.4953 37.2983 77.9713 37.0249 78.5152C36.7514 79.0591 36.6028 79.6571 36.5898 80.2657C36.4943 84.7777 35.6651 88.0827 34.3146 89.334C34.1141 89.5235 33.8765 89.6694 33.6168 89.7624C33.357 89.8554 33.0808 89.8934 32.8056 89.8741C31.9999 89.8282 31.0468 88.5026 30.2187 86.2244C30.1974 86.1776 28.1282 81.3263 28.7968 71.489C28.9501 69.2352 29.9695 62.738 30.1388 61.6669C30.3602 61.1312 30.7394 60.6756 31.2261 60.3608C31.7128 60.046 32.2838 59.8869 32.8632 59.9046L47.0195 58.6243C49.002 58.4443 50.9969 58.4443 52.9795 58.6243L67.2763 59.9107C67.8334 59.911 68.3775 60.0785 68.8383 60.3917C69.299 60.7048 69.6551 61.1491 69.8604 61.6669C70.0298 62.738 71.0491 69.2352 71.2024 71.4876C71.939 82.3182 69.8895 86.0215 69.8826 86.0337Z" fill="#35E1B4"></path><path d="M38.505 62.3611C37.4013 62.3611 36.3224 62.6884 35.4048 63.3015C34.4871 63.9147 33.7719 64.7862 33.3496 65.8058C32.9272 66.8254 32.8167 67.9474 33.032 69.0299C33.2473 70.1123 33.7788 71.1066 34.5592 71.887C35.3396 72.6674 36.3339 73.1989 37.4163 73.4142C38.4988 73.6295 39.6208 73.519 40.6404 73.0966C41.66 72.6743 42.5315 71.9591 43.1447 71.0414C43.7579 70.1238 44.0851 69.0449 44.0851 67.9412C44.0833 66.4619 43.4948 65.0436 42.4487 63.9975C41.4026 62.9514 39.9844 62.3629 38.505 62.3611ZM38.505 70.3964C38.0194 70.3964 37.5447 70.2524 37.141 69.9826C36.7372 69.7129 36.4225 69.3294 36.2367 68.8808C36.0509 68.4322 36.0022 67.9385 36.097 67.4623C36.1917 66.986 36.4255 66.5485 36.7689 66.2052C37.1123 65.8618 37.5497 65.628 38.026 65.5333C38.5022 65.4385 38.9959 65.4871 39.4445 65.673C39.8931 65.8588 40.2766 66.1735 40.5464 66.5772C40.8161 66.981 40.9601 67.4557 40.9601 67.9412C40.9592 68.5921 40.7003 69.2161 40.24 69.6763C39.7798 70.1365 39.1558 70.3955 38.505 70.3964Z" fill="#35E1B4"></path><path d="M57.5279 66.3787H55.6357C55.2213 66.3787 54.8239 66.5433 54.5309 66.8363C54.2379 67.1293 54.0732 67.5268 54.0732 67.9412C54.0732 68.3556 54.2379 68.753 54.5309 69.046C54.8239 69.339 55.2213 69.5037 55.6357 69.5037H57.5279C57.9423 69.5037 58.3398 69.339 58.6328 69.046C58.9258 68.753 59.0904 68.3556 59.0904 67.9412C59.0904 67.5268 58.9258 67.1293 58.6328 66.8363C58.3398 66.5433 57.9423 66.3787 57.5279 66.3787Z" fill="#35E1B4"></path><path d="M65.374 66.3787H63.4834C63.069 66.3787 62.6716 66.5433 62.3785 66.8363C62.0855 67.1293 61.9209 67.5268 61.9209 67.9412C61.9209 68.3556 62.0855 68.753 62.3785 69.046C62.6716 69.339 63.069 69.5037 63.4834 69.5037H65.374C65.7884 69.5037 66.1859 69.339 66.4789 69.046C66.7719 68.753 66.9365 68.3556 66.9365 67.9412C66.9365 67.5268 66.7719 67.1293 66.4789 66.8363C66.1859 66.5433 65.7884 66.3787 65.374 66.3787Z" fill="#35E1B4"></path><path d="M60.5049 66.5254C60.9193 66.5254 61.3167 66.3608 61.6097 66.0677C61.9028 65.7747 62.0674 65.3773 62.0674 64.9629V63.0723C62.0674 62.6579 61.9028 62.2604 61.6097 61.9674C61.3167 61.6744 60.9193 61.5098 60.5049 61.5098C60.0905 61.5098 59.6931 61.6744 59.4 61.9674C59.107 62.2604 58.9424 62.6579 58.9424 63.0723V64.9629C58.9424 65.3773 59.107 65.7747 59.4 66.0677C59.6931 66.3608 60.0905 66.5254 60.5049 66.5254Z" fill="#35E1B4"></path><path d="M60.5049 69.3557C60.0905 69.3557 59.6931 69.5203 59.4 69.8134C59.107 70.1064 58.9424 70.5038 58.9424 70.9182V72.8102C58.9424 73.2246 59.107 73.6221 59.4 73.9151C59.6931 74.2081 60.0905 74.3727 60.5049 74.3727C60.9193 74.3727 61.3167 74.2081 61.6097 73.9151C61.9028 73.6221 62.0674 73.2246 62.0674 72.8102V70.9182C62.0674 70.5038 61.9028 70.1064 61.6097 69.8134C61.3167 69.5203 60.9193 69.3557 60.5049 69.3557Z" fill="#35E1B4"></path><path d="M74.8811 47.0781C66.6148 46.2318 58.3096 45.8222 50.0001 45.851C41.6907 45.8224 33.3855 46.2322 25.1192 47.0787C24.9145 47.0999 24.7159 47.1614 24.535 47.2595C24.3541 47.3577 24.1944 47.4906 24.065 47.6507C23.9356 47.8108 23.8392 47.9949 23.7812 48.1924C23.7231 48.3898 23.7047 48.5968 23.7269 48.8015C23.7491 49.0061 23.8115 49.2043 23.9106 49.3847C24.0096 49.5652 24.1433 49.7242 24.304 49.8528C24.4647 49.9814 24.6493 50.077 24.847 50.1341C25.0448 50.1912 25.2519 50.2086 25.4564 50.1854C33.6107 49.3511 41.8033 48.9474 50.0001 48.976C58.1969 48.9474 66.3896 49.3511 74.5439 50.1854C74.6007 50.1914 74.6577 50.1945 74.7148 50.1945C75.1143 50.1936 75.4982 50.0399 75.7878 49.7648C76.0774 49.4897 76.2506 49.1141 76.2719 48.7152C76.2932 48.3164 76.1609 47.9245 75.9022 47.6201C75.6436 47.3158 75.2781 47.1214 74.8811 47.0781Z" fill="#35E1B4"></path><path d="M50 3.125C48.0858 3.125 3.125 3.22875 3.125 12.2208V54.9469C3.125 56.9825 4.84625 59.9411 19.7297 62.1322C19.9517 62.1635 20.1778 62.1474 20.3932 62.0848C20.6085 62.0222 20.808 61.9146 20.9786 61.7691C21.1484 61.6224 21.2847 61.4409 21.378 61.2368C21.4714 61.0327 21.5196 60.811 21.5195 60.5866V17.8605C21.5195 17.4856 21.3848 17.1232 21.1398 16.8394C20.8948 16.5557 20.556 16.3694 20.1852 16.3147C9.56328 14.75 6.54094 12.8066 6.25 12.3083V12.2803C7.16656 10.1094 22.5134 6.25 50 6.25C77.5422 6.25 92.9008 10.125 93.7606 12.1475C93.5134 12.7716 90.5263 14.7362 79.8148 16.3147C79.444 16.3694 79.1052 16.5557 78.8602 16.8394C78.6152 17.1232 78.4805 17.4856 78.4805 17.8605V60.5866C78.4805 61.001 78.6451 61.3984 78.9381 61.6914C79.2311 61.9844 79.6286 62.1491 80.043 62.1491C80.1191 62.1488 80.195 62.1432 80.2703 62.1322C95.1538 59.9411 96.875 56.9825 96.875 54.9469V12.2208C96.875 3.22875 51.9142 3.125 50 3.125ZM18.3945 19.2017V58.7616C9.13547 57.2403 6.47281 55.4656 6.25 54.9469C6.25 54.9286 6.48438 53.1387 14.898 51.535C15.3051 51.4573 15.6646 51.2211 15.8976 50.8783C16.1305 50.5354 16.2177 50.1141 16.14 49.707C16.0623 49.2999 15.8261 48.9404 15.4832 48.7074C15.1404 48.4745 14.7191 48.3873 14.312 48.465C11.5214 48.9001 8.8068 49.73 6.25 50.93V15.9587C10.1176 17.6285 14.2094 18.7212 18.3945 19.2017ZM81.6055 58.7616V19.2017C85.7906 18.7212 89.8824 17.6285 93.75 15.9587V50.93C91.1931 49.73 88.4783 48.9 85.6875 48.465C85.2804 48.3873 84.8591 48.4745 84.5163 48.7074C84.1735 48.9404 83.9372 49.2999 83.8595 49.707C83.7818 50.1141 83.869 50.5354 84.102 50.8783C84.3349 51.2211 84.6945 51.4573 85.1016 51.535C92.8587 53.0136 93.663 54.6511 93.7495 54.8539V54.8919C93.4755 55.4956 90.7812 57.2531 81.6055 58.7616Z" fill="#35E1B4"></path><path d="M49.3709 39.0976C49.571 39.1776 49.7846 39.2187 50.0002 39.2187C50.2063 39.2188 50.4104 39.1781 50.6007 39.0988L62.1226 34.3007C62.4075 34.1821 62.6509 33.9818 62.8221 33.7251C62.9933 33.4683 63.0846 33.1666 63.0846 32.858V18.8513C63.0846 18.5396 62.9915 18.2351 62.8171 17.9768C62.6426 17.7185 62.395 17.5182 62.1059 17.4018L50.5968 12.7701C50.2224 12.619 49.804 12.619 49.4296 12.7701L37.9221 17.4018C37.633 17.5182 37.3853 17.7185 37.2109 17.9768C37.0365 18.2351 36.9433 18.5396 36.9434 18.8513V32.8582C36.9433 33.1663 37.0344 33.4675 37.2051 33.724C37.3759 33.9805 37.6187 34.1807 37.903 34.2994L49.3709 39.0976ZM40.0676 21.4126L48.4377 25.7196V35.3201L40.0676 31.8183V21.4126ZM51.5627 35.3124V25.7205L59.9596 21.4097V31.816L51.5627 35.3124ZM50.0132 15.9037L57.7659 19.0237L50.0015 23.0094L42.2582 19.0251L50.0132 15.9037Z" fill="#35E1B4"></path></svg>