<svg xmlns="http://www.w3.org/2000/svg" width="91" height="91" viewBox="0 0 91 91" fill="none"><g clip-path="url(#clip0_399_627)"><mask id="mask0_399_627" style="mask-type:luminance" maskUnits="userSpaceOnUse" x="0" y="0" width="91" height="91"><path d="M0 7.62939e-06H90.6667V90.6667H0V7.62939e-06Z" fill="white"></path></mask><g mask="url(#mask0_399_627)"><path d="M84.5415 61.2516C87.1924 61.257 89.3387 63.4067 89.3387 66.0595V70.1111C89.3387 72.7621 87.1924 74.9136 84.5415 74.9189" stroke="#35E1B4" stroke-width="2.65625" stroke-miterlimit="10" stroke-linecap="round" stroke-linejoin="round"></path><path d="M6.12532 74.9189C3.47438 74.9136 1.32812 72.7621 1.32812 70.1111V66.0595C1.32812 63.4067 3.47438 61.257 6.12532 61.2516" stroke="#35E1B4" stroke-width="2.65625" stroke-miterlimit="10" stroke-linecap="round" stroke-linejoin="round"></path><path d="M22.1374 88.8481H34.2942C37.4055 88.8481 40.2672 87.7839 42.5374 86.0006C44.1807 84.7097 46.4864 84.7097 48.1297 86.0006C50.4001 87.7839 53.2616 88.8481 56.3729 88.8481H71.186C78.5615 88.8481 84.5416 82.868 84.5416 75.4907V61.131C84.5416 53.5058 78.3596 47.3221 70.7326 47.3221H19.9345C12.3075 47.3221 6.12549 53.5058 6.12549 61.131V75.4907C6.12549 81.9631 10.7297 87.3606 16.839 88.5861" stroke="#35E1B4" stroke-width="2.65625" stroke-miterlimit="10" stroke-linecap="round" stroke-linejoin="round"></path><path d="M58.9722 55.4581L62.7299 66.2834C62.8085 66.5051 63.1227 66.503 63.1984 66.2804L66.787 55.4783" stroke="#35E1B4" stroke-width="2.65625" stroke-miterlimit="10" stroke-linecap="round" stroke-linejoin="round"></path><path d="M72.5815 61.2032L77.1983 66.4487" stroke="#35E1B4" stroke-width="2.65625" stroke-miterlimit="10" stroke-linecap="round" stroke-linejoin="round"></path><path d="M71.2563 58.3143V66.4485" stroke="#35E1B4" stroke-width="2.65625" stroke-miterlimit="10" stroke-linecap="round" stroke-linejoin="round"></path><path d="M77.1983 58.3144C77.1983 59.8919 75.8149 61.1708 74.1802 61.1708C73.3695 61.1708 71.2801 61.1833 71.2801 61.1833C71.2801 61.1833 71.267 59.1095 71.267 58.3144C71.267 57.6613 71.2598 55.4582 71.2598 55.4582H74.1802C75.8149 55.4582 77.1983 56.737 77.1983 58.3144Z" stroke="#35E1B4" stroke-width="2.65625" stroke-miterlimit="10" stroke-linecap="round" stroke-linejoin="round"></path><path d="M52.7004 42.5911C51.6667 42.5911 50.6327 42.1967 49.844 41.408C47.3572 38.921 43.3105 38.9207 40.823 41.408C39.2457 42.9854 36.6883 42.9854 35.1108 41.408C33.5334 39.8307 33.5334 37.2732 35.1108 35.6958C40.7476 30.0587 49.9194 30.0589 55.5565 35.6958C57.1336 37.2732 57.1336 39.8307 55.5565 41.408C54.7678 42.1967 53.734 42.5911 52.7004 42.5911Z" stroke="#35E1B4" stroke-width="2.65625" stroke-miterlimit="10" stroke-linecap="round" stroke-linejoin="round"></path><path d="M27.9532 32.5776C26.9193 32.5776 25.8857 32.1832 25.0972 31.3945C23.5197 29.8172 23.5197 27.2598 25.0972 25.6823C30.5025 20.277 37.689 17.3002 45.3334 17.3002C52.9779 17.3002 60.1645 20.277 65.5698 25.6823C67.1471 27.2598 67.147 29.8172 65.5696 31.3945C63.9927 32.9719 61.4352 32.9721 59.8574 31.3945C55.9779 27.5149 50.82 25.3784 45.3334 25.3784C39.847 25.3784 34.6889 27.5149 30.8093 31.3945C30.0206 32.1832 28.987 32.5776 27.9532 32.5776Z" stroke="#35E1B4" stroke-width="2.65625" stroke-miterlimit="10" stroke-linecap="round" stroke-linejoin="round"></path><path d="M71.639 10.5134C73.3496 11.7901 74.9788 13.1979 76.5159 14.735C78.0937 16.3128 78.0937 18.8699 76.5159 20.4477C74.9381 22.0256 72.381 22.0256 70.805 20.4477C64.0014 13.6442 54.9542 9.89711 45.3333 9.89711C35.7123 9.89711 26.6651 13.6442 19.8616 20.4477C19.0736 21.2358 18.0394 21.6307 17.007 21.6307C15.9728 21.6307 14.9387 21.2358 14.1506 20.4477C12.5728 18.8699 12.5728 16.3128 14.1506 14.735C22.4789 6.40679 33.5537 1.81856 45.3333 1.81856C53.1267 1.81856 60.612 3.82669 67.196 7.59856" stroke="#35E1B4" stroke-width="2.65625" stroke-miterlimit="10" stroke-linecap="round" stroke-linejoin="round"></path></g></g><defs><clipPath id="clip0_399_627"><rect width="90.6667" height="90.6667" fill="white"></rect></clipPath></defs></svg>