<svg xmlns="http://www.w3.org/2000/svg" width="41" height="42" viewBox="0 0 41 42" fill="none"><path d="M3.3606 31.0907C2.39533 30.6367 1.57928 29.9172 1.00793 29.0165C0.436577 28.1157 0.133544 27.0708 0.134279 26.0041V16.0757C0.134279 14.586 0.726053 13.1574 1.77942 12.104C2.83279 11.0506 4.26146 10.4589 5.75114 10.4589H15.5088C17.2904 10.4589 19.0609 10.1623 20.7437 9.57813C24.9204 7.99418 29.2633 5.698 32.5166 3.01314L34.469 1.39998C34.8041 1.15704 35.1997 1.01137 35.6123 0.979037C36.0249 0.946702 36.4384 1.02896 36.8073 1.21673C37.1761 1.40451 37.4859 1.69051 37.7024 2.04318C37.919 2.39585 38.034 2.80149 38.0346 3.21535V18.3067C38.6676 18.4318 39.2375 18.7726 39.6472 19.271C40.0568 19.7695 40.2808 20.3947 40.2808 21.0399C40.2808 21.6851 40.0568 22.3103 39.6472 22.8088C39.2375 23.3072 38.6676 23.6481 38.0346 23.7731V38.8667C38.033 39.2804 37.9174 39.6857 37.7003 40.0379C37.4833 40.3901 37.1734 40.6756 36.8045 40.8631C36.4357 41.0505 36.0223 41.1326 35.6099 41.1002C35.1974 41.0679 34.8019 40.9224 34.4668 40.6798L32.5166 39.0667C29.2678 36.3818 24.9586 34.0924 20.7751 32.5713C19.0936 31.9851 17.3255 31.6859 15.5447 31.6861C14.1764 31.6209 12.7026 31.6209 12.7026 31.6209V36.4447C12.6649 37.6585 12.1563 38.8099 11.2844 39.6551C10.4126 40.5004 9.24591 40.973 8.03159 40.973C6.81726 40.973 5.65062 40.5004 4.77875 39.6551C3.90688 38.8099 3.39825 37.6585 3.3606 36.4447V31.0907ZM5.60735 31.6209V36.4447C5.60735 37.0877 5.86276 37.7043 6.31739 38.1589C6.77202 38.6135 7.38864 38.8689 8.03159 38.8689C8.67453 38.8689 9.29115 38.6135 9.74578 38.1589C10.2004 37.7043 10.4558 37.0877 10.4558 36.4447V31.6209H5.60735ZM19.0878 29.6393L19.4069 29.7292C24.7323 31.2213 29.6863 33.812 33.95 37.3344L35.7879 38.8555V3.22434L33.9455 4.74538C29.685 8.26315 24.7346 10.8493 19.4136 12.3371L19.0878 12.4293V29.6393ZM12.7026 29.3742H16.8411V12.7056H5.75114C4.85733 12.7056 4.00013 13.0607 3.36811 13.6927C2.73609 14.3247 2.38102 15.1819 2.38102 16.0757V26.0041C2.38102 26.8975 2.73578 27.7544 3.36731 28.3863C3.99885 29.0183 4.85547 29.3736 5.74889 29.3742H12.7026Z" fill="#636363"></path></svg>