<svg xmlns="http://www.w3.org/2000/svg" width="88" height="88" viewBox="0 0 88 88" fill="none"><g clip-path="url(#clip0_399_658)"><path d="M12.4039 66.275C12.3624 66.076 12.3656 65.8704 12.4131 65.6728C12.4607 65.4752 12.5515 65.2906 12.6789 65.1323L13.5355 64.0818C13.5616 64.0406 16.0628 59.7877 6.853 49.4766C-3.87888 37.4591 1.089 23.2856 1.309 22.6778C3.08221 18.5311 5.65154 14.7724 8.8715 11.6146C13.8779 6.56972 22.8456 0.460594 37.1333 0.0233438C54.4362 -0.518406 63.2844 8.11247 67.21 13.75H86.625C86.9897 13.75 87.3394 13.8948 87.5973 14.1527C87.8551 14.4106 88 14.7603 88 15.125V41.25C88 41.6146 87.8551 41.9644 87.5973 42.2222C87.3394 42.4801 86.9897 42.625 86.625 42.625H81.2336C81.5507 43.3315 81.6383 44.1197 81.4839 44.8786C80.7538 48.2762 75.6016 49.632 75.383 49.6911C75.2496 49.7164 75.1265 49.7801 75.0288 49.8744C74.9311 49.9687 74.863 50.0894 74.833 50.2218C74.8055 50.4185 74.9086 50.6343 75.1919 51.1665C75.5028 51.7223 75.7575 52.3077 75.9522 52.9141C76.0754 53.2937 76.1109 53.6963 76.0561 54.0916C76.0014 54.487 75.8577 54.8647 75.636 55.1966C75.3188 55.646 74.8994 56.0136 74.4123 56.2691C74.6713 56.5757 74.8556 56.9382 74.9507 57.3282C75.0458 57.7181 75.049 58.1248 74.96 58.5162C74.8711 58.9076 74.6925 59.273 74.4383 59.5836C74.1841 59.8942 73.8612 60.1415 73.4951 60.3061C73.0389 60.5497 72.6932 60.9587 72.5291 61.4491C72.3649 61.9395 72.3947 62.4742 72.6124 62.9433C72.6405 63.0044 72.6644 63.0674 72.6839 63.1317C73.8733 67.0917 73.6299 70.0067 71.9579 71.8038C69.6616 74.2706 65.7044 73.4181 65.4665 73.3631C54.4019 70.2817 50.5753 71.2208 49.4216 71.7763C49.3652 71.8025 43.7305 74.4755 44.0179 80.4718L43.9945 81.1731C43.9868 81.4056 43.9202 81.6324 43.801 81.8322C43.6818 82.032 43.5138 82.1983 43.3128 82.3155C43.1118 82.4326 42.8844 82.4969 42.6518 82.5023C42.4192 82.5076 42.189 82.4538 41.9829 82.346L13.1079 67.221C12.9277 67.1254 12.7711 66.9909 12.6493 66.8273C12.5275 66.6637 12.4437 66.475 12.4039 66.275ZM3.77988 38.5H18.5969C19.4463 36.0876 21.0234 33.9983 23.1107 32.5204C25.198 31.0424 27.6925 30.2487 30.25 30.2487C32.8075 30.2487 35.302 31.0424 37.3893 32.5204C39.4766 33.9983 41.0537 36.0876 41.9031 38.5H44V20.625H5.3625C4.80016 21.5894 4.3089 22.5935 3.89262 23.6293C2.42654 28.4723 2.38739 33.6353 3.77988 38.5ZM20.625 42.625C20.625 44.5286 21.1895 46.3895 22.2471 47.9723C23.3047 49.5552 24.8079 50.7888 26.5667 51.5173C28.3254 52.2458 30.2607 52.4364 32.1277 52.065C33.9948 51.6936 35.7098 50.777 37.0559 49.4309C38.402 48.0848 39.3187 46.3698 39.6901 44.5027C40.0614 42.6356 39.8708 40.7004 39.1423 38.9416C38.4138 37.1829 37.1802 35.6797 35.5974 34.6221C34.0145 33.5645 32.1536 33 30.25 33C27.6982 33.0029 25.2517 34.0179 23.4473 35.8223C21.6429 37.6267 20.6279 40.0732 20.625 42.625ZM37.2158 2.77197C20.3748 3.28759 11.3768 11.8745 7.11975 17.875H45.375C45.6691 17.8768 45.9547 17.9742 46.1885 18.1526C46.4224 18.3309 46.592 18.5805 46.6716 18.8636L63.9843 14.0126C59.9885 8.93747 51.9516 2.32234 37.2158 2.77197ZM46.75 29.8375L65.6453 24.7967C65.7609 24.7654 65.8802 24.7497 66 24.75H78.375V22H66.1801L46.75 27.181V29.8375ZM78.375 39.875V27.5H66.1801L46.75 32.681V36.421L65.2369 39.875H78.375ZM65.2987 16.5L46.75 21.6975V24.3375L65.6453 19.2967C65.7609 19.2654 65.8802 19.2497 66 19.25H78.375V16.5H65.2987ZM85.25 16.5H81.125V39.875H85.25V16.5ZM41.305 78.881C41.888 72.3043 47.9916 69.4072 48.2515 69.2876C51.3274 67.8012 57.5355 68.2935 66.1416 70.6942C66.1664 70.6942 68.7541 71.2098 69.949 69.927C70.8854 68.9218 70.9294 66.8758 70.0865 64.0048C69.6217 62.9401 69.5607 61.7424 69.915 60.636C70.2693 59.5295 71.0146 58.59 72.0115 57.9933C72.083 57.9466 72.1394 57.9067 72.182 57.8723C71.7858 57.5116 71.3317 57.2201 70.8386 57.0102C70.5562 56.8908 70.3218 56.6803 70.1727 56.4123C70.0236 56.1443 69.9683 55.8342 70.0158 55.5312C70.0632 55.2282 70.2105 54.9498 70.4344 54.7402C70.6582 54.5306 70.9457 54.4018 71.2511 54.3743C71.99 54.3343 72.7064 54.1067 73.3329 53.713C73.1894 53.2755 73.0024 52.8535 72.7746 52.4535C72.2668 51.682 72.0365 50.7607 72.1215 49.841C72.2226 49.1683 72.522 48.541 72.9815 48.0393C73.441 47.5377 74.0397 47.1845 74.701 47.025C76.4569 46.5753 78.5716 45.3461 78.7958 44.3011C78.9181 43.725 78.375 43.0828 77.8663 42.625H65.1104C65.0255 42.6248 64.9408 42.617 64.8574 42.6016L46.75 39.2191V39.875C46.75 40.2396 46.6051 40.5894 46.3473 40.8472C46.0894 41.1051 45.7397 41.25 45.375 41.25H42.5439C42.7433 42.983 42.5741 44.7386 42.0472 46.4017C41.5204 48.0647 40.648 49.5976 39.4871 50.8997C38.3262 52.2019 36.9031 53.2439 35.3112 53.9573C33.7193 54.6708 31.9945 55.0396 30.25 55.0396C28.5055 55.0396 26.7807 54.6708 25.1888 53.9573C23.5969 53.2439 22.1738 52.2019 21.0129 50.8997C19.852 49.5976 18.9796 48.0647 18.4528 46.4017C17.9259 44.7386 17.7567 42.983 17.9561 41.25H4.78225C5.80728 43.5889 7.19987 45.7488 8.90725 47.6478C18.9736 58.9228 16.5811 64.3926 15.8565 65.5517L41.305 78.881Z" fill="#35E1B4"></path><path d="M5.76651 66.0002C6.72091 66.0002 7.66048 66.2364 8.50139 66.6877L38.7005 82.9512C39.2265 83.2349 39.6429 83.6859 39.8837 84.2328C40.1245 84.7797 40.176 85.3914 40.03 85.9708C39.884 86.5503 39.5489 87.0646 39.0777 87.4322C38.6066 87.7997 38.0262 87.9996 37.4286 88.0002H16.233C11.9306 87.9955 7.80557 86.2848 4.76251 83.2433C1.71944 80.2018 0.00667953 76.0777 -0.000236511 71.7752C-0.000236511 70.245 0.607067 68.7774 1.68831 67.6946C2.76955 66.6118 4.23632 66.0024 5.76651 66.0002ZM8.24976 69.677V82.6089C9.10096 83.2432 10.024 83.7748 10.9998 84.1929V71.1579L8.24976 69.677ZM21.9998 77.0814L19.2498 75.6005V85.2502H21.9998V77.0814ZM24.7498 85.2502H27.4998V80.0431L24.7498 78.5622V85.2502ZM30.2498 81.524V85.2502H37.1701L30.2498 81.524ZM16.4998 85.2502V74.1196L13.7498 72.6387V85.0137C14.5684 85.1694 15.3997 85.2486 16.233 85.2502H16.4998ZM5.49976 79.8877V68.7777C4.74949 68.8428 4.05085 69.1867 3.54174 69.7416C3.03263 70.2965 2.75005 71.0222 2.74976 71.7752C2.75219 74.7099 3.71836 77.5625 5.49976 79.8946V79.8877Z" fill="#35E1B4"></path><path d="M27.5 24.7502H6.875V22.0002H28.875C29.2397 22.0002 29.5894 22.1451 29.8473 22.403C30.1051 22.6608 30.25 23.0106 30.25 23.3752V28.8752C30.25 29.2399 30.1051 29.5897 29.8473 29.8475C29.5894 30.1054 29.2397 30.2502 28.875 30.2502H5.5V27.5002H27.5V24.7502Z" fill="#35E1B4"></path><path d="M30.25 34.3752C31.8817 34.3752 33.4767 34.8591 34.8334 35.7656C36.1902 36.6721 37.2476 37.9606 37.872 39.4681C38.4964 40.9756 38.6598 42.6344 38.3415 44.2347C38.0231 45.8351 37.2374 47.3051 36.0836 48.4589C34.9298 49.6127 33.4598 50.3984 31.8595 50.7167C30.2591 51.0351 28.6003 50.8717 27.0929 50.2473C25.5854 49.6228 24.2969 48.5654 23.3904 47.2087C22.4838 45.852 22 44.2569 22 42.6252C22.0022 40.4379 22.8721 38.3407 24.4188 36.794C25.9655 35.2473 28.0626 34.3774 30.25 34.3752ZM30.25 48.1252C31.3378 48.1252 32.4012 47.8027 33.3056 47.1983C34.2101 46.594 34.9151 45.735 35.3313 44.73C35.7476 43.725 35.8565 42.6191 35.6443 41.5522C35.4321 40.4854 34.9083 39.5053 34.1391 38.7362C33.3699 37.967 32.3899 37.4431 31.323 37.2309C30.2561 37.0187 29.1502 37.1276 28.1452 37.5439C27.1402 37.9602 26.2813 38.6651 25.6769 39.5696C25.0726 40.4741 24.75 41.5374 24.75 42.6252C24.75 44.0839 25.3295 45.4829 26.3609 46.5143C27.3924 47.5458 28.7913 48.1252 30.25 48.1252Z" fill="#35E1B4"></path><path d="M8.25 34.3752H5.5V37.1252H8.25V34.3752Z" fill="#35E1B4"></path><path d="M13.75 34.3752H11V37.1252H13.75V34.3752Z" fill="#35E1B4"></path></g><defs><clipPath id="clip0_399_658"><rect width="88" height="88" fill="white" transform="matrix(-1 0 0 1 88 0)"></rect></clipPath></defs></svg>