<svg xmlns="http://www.w3.org/2000/svg" width="90" height="90" viewBox="0 0 90 90" fill="none"><g id="vector"><g id="g3791"><g id="Clip path group"><mask id="mask0_302_1953" style="mask-type:luminance" maskUnits="userSpaceOnUse" x="0" y="-1" width="91" height="91"><g id="clipPath3797"><path id="path3795" d="M88.5005 88.4998V1.49976H1.50049V88.4998H88.5005Z" fill="white" stroke="white" stroke-width="3"></path></g></mask><g mask="url(#mask0_302_1953)"><g id="g3793"><g id="g3799"><path id="path3801" d="M43.1548 58.2419V61.4353C43.1548 62.8915 41.9742 64.072 40.5181 64.072H32.7837C31.5216 64.072 30.4985 63.049 30.4985 61.7869V34.5408C30.4985 33.0846 31.6791 31.9041 33.1353 31.9041H40.5181C41.9742 31.9041 43.1548 33.0846 43.1548 34.5408V52.0895" stroke="#7B66FF" stroke-width="3" stroke-miterlimit="10" stroke-linecap="round" stroke-linejoin="round"></path></g><g id="g3803"><path id="path3805" d="M43.1548 34.7166H45.9258C46.9288 34.7166 47.9109 34.4306 48.7569 33.8921L55.9594 29.3088C58.4945 27.6955 60.0298 24.8988 60.0298 21.8938V17.7537C60.0298 15.0839 62.194 12.9197 64.8638 12.9197C67.5335 12.9197 69.6978 15.0839 69.6978 17.7537L69.7083 33.8382C69.7085 34.3233 70.1019 34.7166 70.5872 34.7166H75.8501H81.4682C83.6128 34.7166 85.4393 36.3842 85.5154 38.5273C85.5956 40.7775 83.7952 42.6267 81.563 42.6267H84.7271C86.9593 42.6267 88.7596 44.4759 88.6795 46.7261C88.6034 48.8692 86.7768 50.5369 84.6323 50.5369H81.563C83.7952 50.5369 85.5956 52.3861 85.5154 54.6363C85.4393 56.7794 83.6128 58.447 81.4682 58.447H76.8169C78.4961 58.447 79.8612 59.7926 79.8925 61.4645C79.9249 63.1884 78.4604 64.5994 76.7362 64.5994H50.0723C48.553 64.5994 47.0596 64.2056 45.7379 63.4563L43.1548 61.992" stroke="#7B66FF" stroke-width="3" stroke-miterlimit="10" stroke-linecap="round" stroke-linejoin="round"></path></g><g id="g3807"><path id="path3809" d="M81.563 42.6267H74.356" stroke="#7B66FF" stroke-width="3" stroke-miterlimit="10" stroke-linecap="round" stroke-linejoin="round"></path></g><g id="g3811"><path id="path3813" d="M81.563 50.5369H74.356" stroke="#7B66FF" stroke-width="3" stroke-miterlimit="10" stroke-linecap="round" stroke-linejoin="round"></path></g><g id="g3815"><path id="path3817" d="M76.6411 58.4468H74.356" stroke="#7B66FF" stroke-width="3" stroke-miterlimit="10" stroke-linecap="round" stroke-linejoin="round"></path></g><g id="g3819"><path id="path3821" d="M57.4899 64.6284C53.0115 75.0527 42.6515 82.3533 30.5864 82.3533C14.4225 82.3533 1.31885 69.2497 1.31885 53.0857V26.7185C1.31885 26.233 1.71242 25.8396 2.19775 25.8396H2.54932C11.2867 25.8396 18.3696 18.7567 18.3696 10.0193V8.52515C18.3696 8.03964 18.7632 7.64624 19.2485 7.64624H41.9243C42.4098 7.64624 42.8032 8.03964 42.8032 8.52515V10.4294C42.8032 19.1668 49.8863 26.2497 58.6235 26.2497" stroke="#7B66FF" stroke-width="3" stroke-miterlimit="10" stroke-linecap="round" stroke-linejoin="round"></path></g><g id="g3823"><path id="path3825" d="M30.4985 60.5562V77.0796C17.2954 77.0796 6.59229 66.3764 6.59229 53.1735V30.0581C15.7988 30.0581 23.2621 22.5948 23.2621 13.3882V12.8315H30.4985V25.7515" stroke="#7B66FF" stroke-width="3" stroke-miterlimit="10" stroke-linecap="round" stroke-linejoin="round"></path></g><g id="g3827"><path id="path3829" d="M30.4106 34.5405H22.9399C21.775 34.5405 20.8306 35.485 20.8306 36.6499V59.3257C20.8306 60.4906 21.775 61.4351 22.9399 61.4351H30.4106" stroke="#7B66FF" stroke-width="3" stroke-miterlimit="10" stroke-linecap="round" stroke-linejoin="round"></path></g></g></g></g></g></g></svg>